<svg xmlns="http://www.w3.org/2000/svg" width="1120" height="520" viewBox="0 0 1120 520" role="img" aria-labelledby="title desc">
<title id="title">CrewAI Flows and Crews</title><desc id="desc">Architecture diagram for CrewAI Flows and Crews.</desc>
<defs><marker id="arrow" viewBox="0 0 10 10" refX="9" refY="5" markerWidth="8" markerHeight="8" orient="auto-start-reverse"><path d="M 0 0 L 10 5 L 0 10 z" fill="#5F6368"/></marker></defs>
<rect width="1120" height="520" fill="none"/>
<text x="560" y="45" text-anchor="middle" font-family="Inter, Arial, sans-serif" font-size="28" font-weight="700" fill="#173F4F">CrewAI Flows and Crews</text>
<line x1="230" y1="185" x2="300" y2="165" stroke="#5F6368" stroke-width="2.4" marker-end="url(#arrow)"/>
<line x1="400" y1="210" x2="400" y2="290" stroke="#5F6368" stroke-width="2.4" marker-end="url(#arrow)"/>
<text x="400" y="242" text-anchor="middle" font-family="Inter, Arial, sans-serif" font-size="13" fill="#3C4043">updates</text>
<line x1="500" y1="165" x2="580" y2="165" stroke="#5F6368" stroke-width="2.4" marker-end="url(#arrow)"/>
<text x="540" y="157" text-anchor="middle" font-family="Inter, Arial, sans-serif" font-size="13" fill="#3C4043">delegates</text>
<line x1="780" y1="165" x2="840" y2="135" stroke="#5F6368" stroke-width="2.4" marker-end="url(#arrow)"/>
<text x="810" y="142" text-anchor="middle" font-family="Inter, Arial, sans-serif" font-size="13" fill="#3C4043">tasks</text>
<line x1="945" y1="180" x2="945" y2="250" stroke="#5F6368" stroke-width="2.4" marker-end="url(#arrow)"/>
<text x="945" y="207" text-anchor="middle" font-family="Inter, Arial, sans-serif" font-size="13" fill="#3C4043">work</text>
<line x1="840" y1="290" x2="500" y2="330" stroke="#5F6368" stroke-width="2.4" marker-end="url(#arrow)"/>
<text x="670" y="302" text-anchor="middle" font-family="Inter, Arial, sans-serif" font-size="13" fill="#3C4043">record</text>
<line x1="500" y1="330" x2="580" y2="355" stroke="#5F6368" stroke-width="2.4" marker-end="url(#arrow)"/>
<text x="540" y="334.5" text-anchor="middle" font-family="Inter, Arial, sans-serif" font-size="13" fill="#3C4043">complete</text>
<rect x="60" y="150" width="170" height="70" rx="10" ry="10" fill="#E8F0FE" stroke="#3367D6" stroke-width="2"/>
<text x="145" y="185" text-anchor="middle" dominant-baseline="middle" font-family="Inter, Arial, sans-serif" font-size="16" fill="#202124">Event / Request</text>
<rect x="300" y="120" width="200" height="90" rx="10" ry="10" fill="#E6F4EA" stroke="#188038" stroke-width="2"/>
<text x="400" y="155" text-anchor="middle" dominant-baseline="middle" font-family="Inter, Arial, sans-serif" font-size="16" fill="#202124">Flow</text>
<text x="400" y="177" text-anchor="middle" dominant-baseline="middle" font-family="Inter, Arial, sans-serif" font-size="16" fill="#202124">state and order</text>
<rect x="300" y="290" width="200" height="80" rx="10" ry="10" fill="#FFF4E5" stroke="#F9AB00" stroke-width="2"/>
<text x="400" y="330" text-anchor="middle" dominant-baseline="middle" font-family="Inter, Arial, sans-serif" font-size="16" fill="#202124">Flow State</text>
<rect x="580" y="120" width="200" height="90" rx="10" ry="10" fill="#F3E8FD" stroke="#9334E6" stroke-width="2"/>
<text x="680" y="155" text-anchor="middle" dominant-baseline="middle" font-family="Inter, Arial, sans-serif" font-size="16" fill="#202124">Crew</text>
<text x="680" y="177" text-anchor="middle" dominant-baseline="middle" font-family="Inter, Arial, sans-serif" font-size="16" fill="#202124">bounded work</text>
<rect x="840" y="90" width="210" height="90" rx="10" ry="10" fill="#EAF5FF" stroke="#007B83" stroke-width="2"/>
<text x="945" y="135" text-anchor="middle" dominant-baseline="middle" font-family="Inter, Arial, sans-serif" font-size="16" fill="#202124">Specialist Agents</text>
<rect x="840" y="250" width="210" height="80" rx="10" ry="10" fill="#FCE8E6" stroke="#D93025" stroke-width="2"/>
<text x="945" y="290" text-anchor="middle" dominant-baseline="middle" font-family="Inter, Arial, sans-serif" font-size="16" fill="#202124">Crew Result</text>
<rect x="580" y="320" width="200" height="70" rx="10" ry="10" fill="#F1F3F4" stroke="#5F6368" stroke-width="2"/>
<text x="680" y="355" text-anchor="middle" dominant-baseline="middle" font-family="Inter, Arial, sans-serif" font-size="16" fill="#202124">Final Output</text>
</svg>
