<svg xmlns="http://www.w3.org/2000/svg" width="1120" height="520" viewBox="0 0 1120 520" role="img" aria-labelledby="title desc">
<title id="title">Mastra Runtime</title><desc id="desc">Architecture diagram for Mastra Runtime.</desc>
<defs><marker id="arrow" viewBox="0 0 10 10" refX="9" refY="5" markerWidth="8" markerHeight="8" orient="auto-start-reverse"><path d="M 0 0 L 10 5 L 0 10 z" fill="#5F6368"/></marker></defs>
<rect width="1120" height="520" fill="none"/>
<text x="560" y="45" text-anchor="middle" font-family="Inter, Arial, sans-serif" font-size="28" font-weight="700" fill="#173F4F">Mastra Runtime</text>
<line x1="230" y1="190" x2="300" y2="120" stroke="#5F6368" stroke-width="2.4" marker-end="url(#arrow)"/>
<text x="265" y="147" text-anchor="middle" font-family="Inter, Arial, sans-serif" font-size="13" fill="#3C4043">calls</text>
<line x1="230" y1="190" x2="300" y2="290" stroke="#5F6368" stroke-width="2.4" marker-end="url(#arrow)"/>
<text x="265" y="232" text-anchor="middle" font-family="Inter, Arial, sans-serif" font-size="13" fill="#3C4043">starts</text>
<line x1="490" y1="120" x2="570" y2="95" stroke="#5F6368" stroke-width="2.4" marker-end="url(#arrow)"/>
<text x="530" y="99.5" text-anchor="middle" font-family="Inter, Arial, sans-serif" font-size="13" fill="#3C4043">uses</text>
<line x1="490" y1="120" x2="570" y2="195" stroke="#5F6368" stroke-width="2.4" marker-end="url(#arrow)"/>
<text x="530" y="149.5" text-anchor="middle" font-family="Inter, Arial, sans-serif" font-size="13" fill="#3C4043">reads/writes</text>
<line x1="490" y1="290" x2="570" y2="295" stroke="#5F6368" stroke-width="2.4" marker-end="url(#arrow)"/>
<text x="530" y="284.5" text-anchor="middle" font-family="Inter, Arial, sans-serif" font-size="13" fill="#3C4043">checks</text>
<line x1="490" y1="120" x2="820" y2="200" stroke="#5F6368" stroke-width="2.4" marker-end="url(#arrow)"/>
<text x="655" y="152" text-anchor="middle" font-family="Inter, Arial, sans-serif" font-size="13" fill="#3C4043">traces</text>
<line x1="490" y1="290" x2="820" y2="200" stroke="#5F6368" stroke-width="2.4" marker-end="url(#arrow)"/>
<text x="655" y="237" text-anchor="middle" font-family="Inter, Arial, sans-serif" font-size="13" fill="#3C4043">traces</text>
<rect x="60" y="150" width="170" height="80" rx="10" ry="10" fill="#E8F0FE" stroke="#3367D6" stroke-width="2"/>
<text x="145" y="190" text-anchor="middle" dominant-baseline="middle" font-family="Inter, Arial, sans-serif" font-size="16" fill="#202124">TypeScript App</text>
<rect x="300" y="80" width="190" height="80" rx="10" ry="10" fill="#E6F4EA" stroke="#188038" stroke-width="2"/>
<text x="395" y="120" text-anchor="middle" dominant-baseline="middle" font-family="Inter, Arial, sans-serif" font-size="16" fill="#202124">Mastra Agent</text>
<rect x="300" y="250" width="190" height="80" rx="10" ry="10" fill="#FFF4E5" stroke="#F9AB00" stroke-width="2"/>
<text x="395" y="290" text-anchor="middle" dominant-baseline="middle" font-family="Inter, Arial, sans-serif" font-size="16" fill="#202124">Workflow</text>
<rect x="570" y="60" width="170" height="70" rx="10" ry="10" fill="#F3E8FD" stroke="#9334E6" stroke-width="2"/>
<text x="655" y="95" text-anchor="middle" dominant-baseline="middle" font-family="Inter, Arial, sans-serif" font-size="16" fill="#202124">Tools</text>
<rect x="570" y="160" width="170" height="70" rx="10" ry="10" fill="#EAF5FF" stroke="#007B83" stroke-width="2"/>
<text x="655" y="195" text-anchor="middle" dominant-baseline="middle" font-family="Inter, Arial, sans-serif" font-size="16" fill="#202124">Memory</text>
<rect x="570" y="260" width="170" height="70" rx="10" ry="10" fill="#FCE8E6" stroke="#D93025" stroke-width="2"/>
<text x="655" y="295" text-anchor="middle" dominant-baseline="middle" font-family="Inter, Arial, sans-serif" font-size="16" fill="#202124">Evals</text>
<rect x="820" y="160" width="190" height="80" rx="10" ry="10" fill="#F1F3F4" stroke="#5F6368" stroke-width="2"/>
<text x="915" y="200" text-anchor="middle" dominant-baseline="middle" font-family="Inter, Arial, sans-serif" font-size="16" fill="#202124">Observability</text>
</svg>
