<svg xmlns="http://www.w3.org/2000/svg" width="1120" height="520" viewBox="0 0 1120 520" role="img" aria-labelledby="title desc">
<title id="title">MCP-first Tool Use</title><desc id="desc">Architecture diagram for MCP-first Tool Use.</desc>
<defs><marker id="arrow" viewBox="0 0 10 10" refX="9" refY="5" markerWidth="8" markerHeight="8" orient="auto-start-reverse"><path d="M 0 0 L 10 5 L 0 10 z" fill="#5F6368"/></marker></defs>
<rect width="1120" height="520" fill="none"/>
<text x="560" y="45" text-anchor="middle" font-family="Inter, Arial, sans-serif" font-size="28" font-weight="700" fill="#173F4F">MCP-first Tool Use</text>
<line x1="230" y1="190" x2="300" y2="125" stroke="#5F6368" stroke-width="2.4" marker-end="url(#arrow)"/>
<text x="265" y="149.5" text-anchor="middle" font-family="Inter, Arial, sans-serif" font-size="13" fill="#3C4043">read</text>
<line x1="230" y1="190" x2="300" y2="305" stroke="#5F6368" stroke-width="2.4" marker-end="url(#arrow)"/>
<text x="265" y="239.5" text-anchor="middle" font-family="Inter, Arial, sans-serif" font-size="13" fill="#3C4043">request</text>
<line x1="520" y1="305" x2="590" y2="190" stroke="#5F6368" stroke-width="2.4" marker-end="url(#arrow)"/>
<text x="555" y="239.5" text-anchor="middle" font-family="Inter, Arial, sans-serif" font-size="13" fill="#3C4043">invoke</text>
<line x1="780" y1="190" x2="850" y2="190" stroke="#5F6368" stroke-width="2.4" marker-end="url(#arrow)"/>
<text x="815" y="182" text-anchor="middle" font-family="Inter, Arial, sans-serif" font-size="13" fill="#3C4043">call</text>
<line x1="850" y1="190" x2="780" y2="380" stroke="#5F6368" stroke-width="2.4" marker-end="url(#arrow)"/>
<text x="815" y="277" text-anchor="middle" font-family="Inter, Arial, sans-serif" font-size="13" fill="#3C4043">return</text>
<line x1="590" y1="380" x2="230" y2="190" stroke="#5F6368" stroke-width="2.4" marker-end="url(#arrow)"/>
<text x="410" y="277" text-anchor="middle" font-family="Inter, Arial, sans-serif" font-size="13" fill="#3C4043">validated</text>
<rect x="70" y="150" width="160" height="80" rx="10" ry="10" fill="#E8F0FE" stroke="#3367D6" stroke-width="2"/>
<text x="150" y="190" text-anchor="middle" dominant-baseline="middle" font-family="Inter, Arial, sans-serif" font-size="16" fill="#202124">Agent</text>
<rect x="300" y="80" width="220" height="90" rx="10" ry="10" fill="#E6F4EA" stroke="#188038" stroke-width="2"/>
<text x="410" y="115" text-anchor="middle" dominant-baseline="middle" font-family="Inter, Arial, sans-serif" font-size="16" fill="#202124">Tool Manifest</text>
<text x="410" y="137" text-anchor="middle" dominant-baseline="middle" font-family="Inter, Arial, sans-serif" font-size="16" fill="#202124">schemas, descriptions</text>
<rect x="300" y="260" width="220" height="90" rx="10" ry="10" fill="#FFF4E5" stroke="#F9AB00" stroke-width="2"/>
<text x="410" y="295" text-anchor="middle" dominant-baseline="middle" font-family="Inter, Arial, sans-serif" font-size="16" fill="#202124">Policy Boundary</text>
<text x="410" y="317" text-anchor="middle" dominant-baseline="middle" font-family="Inter, Arial, sans-serif" font-size="16" fill="#202124">authz, approvals</text>
<rect x="590" y="150" width="190" height="80" rx="10" ry="10" fill="#F3E8FD" stroke="#9334E6" stroke-width="2"/>
<text x="685" y="190" text-anchor="middle" dominant-baseline="middle" font-family="Inter, Arial, sans-serif" font-size="16" fill="#202124">MCP Server</text>
<rect x="850" y="150" width="190" height="80" rx="10" ry="10" fill="#EAF5FF" stroke="#007B83" stroke-width="2"/>
<text x="945" y="190" text-anchor="middle" dominant-baseline="middle" font-family="Inter, Arial, sans-serif" font-size="16" fill="#202124">Tools / APIs</text>
<rect x="590" y="340" width="190" height="80" rx="10" ry="10" fill="#FCE8E6" stroke="#D93025" stroke-width="2"/>
<text x="685" y="380" text-anchor="middle" dominant-baseline="middle" font-family="Inter, Arial, sans-serif" font-size="16" fill="#202124">Structured Result</text>
</svg>
