<svg id="pdf_mermaid_18" width="100%" xmlns="http://www.w3.org/2000/svg" style="max-width: 802.28515625px;" viewBox="-8 -8 802.28515625 901.96875" role="graphics-document document" aria-roledescription="flowchart-v2"><style>#pdf_mermaid_18{font-family:Inter,system-ui,sans-serif;font-size:16px;fill:#173f4f;}#pdf_mermaid_18 .error-icon{fill:#fffaf0;}#pdf_mermaid_18 .error-text{fill:#00050f;stroke:#00050f;}#pdf_mermaid_18 .edge-thickness-normal{stroke-width:2px;}#pdf_mermaid_18 .edge-thickness-thick{stroke-width:3.5px;}#pdf_mermaid_18 .edge-pattern-solid{stroke-dasharray:0;}#pdf_mermaid_18 .edge-pattern-dashed{stroke-dasharray:3;}#pdf_mermaid_18 .edge-pattern-dotted{stroke-dasharray:2;}#pdf_mermaid_18 .marker{fill:#527887;stroke:#527887;}#pdf_mermaid_18 .marker.cross{stroke:#527887;}#pdf_mermaid_18 svg{font-family:Inter,system-ui,sans-serif;font-size:16px;}#pdf_mermaid_18 .label{font-family:Inter,system-ui,sans-serif;color:#173f4f;}#pdf_mermaid_18 .cluster-label text{fill:#00050f;}#pdf_mermaid_18 .cluster-label span,#pdf_mermaid_18 p{color:#00050f;}#pdf_mermaid_18 .label text,#pdf_mermaid_18 span,#pdf_mermaid_18 p{fill:#173f4f;color:#173f4f;}#pdf_mermaid_18 .node rect,#pdf_mermaid_18 .node circle,#pdf_mermaid_18 .node ellipse,#pdf_mermaid_18 .node polygon,#pdf_mermaid_18 .node path{fill:#f6efe2;stroke:#c7a76a;stroke-width:1px;}#pdf_mermaid_18 .flowchart-label text{text-anchor:middle;}#pdf_mermaid_18 .node .katex path{fill:#000;stroke:#000;stroke-width:1px;}#pdf_mermaid_18 .node .label{text-align:center;}#pdf_mermaid_18 .node.clickable{cursor:pointer;}#pdf_mermaid_18 .arrowheadPath{fill:#0b0b0b;}#pdf_mermaid_18 .edgePath .path{stroke:#527887;stroke-width:2.0px;}#pdf_mermaid_18 .flowchart-link{stroke:#527887;fill:none;}#pdf_mermaid_18 .edgeLabel{background-color:#e8f0ed;text-align:center;}#pdf_mermaid_18 .edgeLabel rect{opacity:0.5;background-color:#e8f0ed;fill:#e8f0ed;}#pdf_mermaid_18 .labelBkg{background-color:rgba(232, 240, 237, 0.5);}#pdf_mermaid_18 .cluster rect{fill:#fffaf0;stroke:hsl(40, 60%, 87.0588235294%);stroke-width:1px;}#pdf_mermaid_18 .cluster text{fill:#00050f;}#pdf_mermaid_18 .cluster span,#pdf_mermaid_18 p{color:#00050f;}#pdf_mermaid_18 div.mermaidTooltip{position:absolute;text-align:center;max-width:200px;padding:2px;font-family:Inter,system-ui,sans-serif;font-size:12px;background:#fffaf0;border:1px solid hsl(40, 60%, 87.0588235294%);border-radius:2px;pointer-events:none;z-index:100;}#pdf_mermaid_18 .flowchartTitleText{text-anchor:middle;font-size:18px;fill:#173f4f;}#pdf_mermaid_18 :root{--mermaid-font-family:"trebuchet ms",verdana,arial,sans-serif;}</style><g><marker id="pdf_mermaid_18_flowchart-pointEnd" class="marker flowchart" viewBox="0 0 10 10" refX="6" refY="5" markerUnits="userSpaceOnUse" markerWidth="12" markerHeight="12" orient="auto"><path d="M 0 0 L 10 5 L 0 10 z" class="arrowMarkerPath" style="stroke-width: 1; stroke-dasharray: 1, 0;"></path></marker><marker id="pdf_mermaid_18_flowchart-pointStart" class="marker flowchart" viewBox="0 0 10 10" refX="4.5" refY="5" markerUnits="userSpaceOnUse" markerWidth="12" markerHeight="12" orient="auto"><path d="M 0 5 L 10 10 L 10 0 z" class="arrowMarkerPath" style="stroke-width: 1; stroke-dasharray: 1, 0;"></path></marker><marker id="pdf_mermaid_18_flowchart-circleEnd" class="marker flowchart" viewBox="0 0 10 10" refX="11" refY="5" markerUnits="userSpaceOnUse" markerWidth="11" markerHeight="11" orient="auto"><circle cx="5" cy="5" r="5" class="arrowMarkerPath" style="stroke-width: 1; stroke-dasharray: 1, 0;"></circle></marker><marker id="pdf_mermaid_18_flowchart-circleStart" class="marker flowchart" viewBox="0 0 10 10" refX="-1" refY="5" markerUnits="userSpaceOnUse" markerWidth="11" markerHeight="11" orient="auto"><circle cx="5" cy="5" r="5" class="arrowMarkerPath" style="stroke-width: 1; stroke-dasharray: 1, 0;"></circle></marker><marker id="pdf_mermaid_18_flowchart-crossEnd" class="marker cross flowchart" viewBox="0 0 11 11" refX="12" refY="5.2" markerUnits="userSpaceOnUse" markerWidth="11" markerHeight="11" orient="auto"><path d="M 1,1 l 9,9 M 10,1 l -9,9" class="arrowMarkerPath" style="stroke-width: 2; stroke-dasharray: 1, 0;"></path></marker><marker id="pdf_mermaid_18_flowchart-crossStart" class="marker cross flowchart" viewBox="0 0 11 11" refX="-1" refY="5.2" markerUnits="userSpaceOnUse" markerWidth="11" markerHeight="11" orient="auto"><path d="M 1,1 l 9,9 M 10,1 l -9,9" class="arrowMarkerPath" style="stroke-width: 2; stroke-dasharray: 1, 0;"></path></marker><g class="root"><g class="clusters"></g><g class="edgePaths"><path d="M427.086,33L427.086,37.167C427.086,41.333,427.086,49.667,427.086,57.117C427.086,64.567,427.086,71.133,427.086,74.417L427.086,77.7" id="L-A-B-0" class="edge-thickness-normal edge-pattern-solid flowchart-link LS-A LE-B" style="fill:none;" marker-end="url(#pdf_mermaid_18_flowchart-pointEnd)"></path><path d="M337.555,114.986L312.49,119.322C287.424,123.658,237.294,132.329,212.229,139.948C187.164,147.567,187.164,154.133,187.164,157.417L187.164,160.7" id="L-B-C-0" class="edge-thickness-normal edge-pattern-solid flowchart-link LS-B LE-C" style="fill:none;" marker-end="url(#pdf_mermaid_18_flowchart-pointEnd)"></path><path d="M187.164,199L187.164,203.167C187.164,207.333,187.164,215.667,187.164,223.117C187.164,230.567,187.164,237.133,187.164,240.417L187.164,243.7" id="L-C-D-0" class="edge-thickness-normal edge-pattern-solid flowchart-link LS-C LE-D" style="fill:none;" marker-end="url(#pdf_mermaid_18_flowchart-pointEnd)"></path><path d="M187.164,282L187.164,286.167C187.164,290.333,187.164,298.667,187.164,306.117C187.164,313.567,187.164,320.133,187.164,323.417L187.164,326.7" id="L-D-E-0" class="edge-thickness-normal edge-pattern-solid flowchart-link LS-D LE-E" style="fill:none;" marker-end="url(#pdf_mermaid_18_flowchart-pointEnd)"></path><path d="M187.164,365L187.164,369.167C187.164,373.333,187.164,381.667,187.164,389.117C187.164,396.567,187.164,403.133,187.164,406.417L187.164,409.7" id="L-E-F-0" class="edge-thickness-normal edge-pattern-solid flowchart-link LS-E LE-F" style="fill:none;" marker-end="url(#pdf_mermaid_18_flowchart-pointEnd)"></path><path d="M187.164,448L187.164,452.167C187.164,456.333,187.164,464.667,187.23,472.2C187.296,479.734,187.428,486.467,187.494,489.834L187.56,493.201" id="L-F-G-0" class="edge-thickness-normal edge-pattern-solid flowchart-link LS-F LE-G" style="fill:none;" marker-end="url(#pdf_mermaid_18_flowchart-pointEnd)"></path><path d="M187.664,702.469L187.581,708.052C187.497,713.635,187.331,724.802,198.908,735.687C210.485,746.571,233.806,757.173,245.467,762.474L257.127,767.775" id="L-G-H-0" class="edge-thickness-normal edge-pattern-solid flowchart-link LS-G LE-H" style="fill:none;" marker-end="url(#pdf_mermaid_18_flowchart-pointEnd)"></path><path d="M340.342,769.969L354.8,764.302C369.257,758.635,398.171,747.302,412.629,718.971C427.086,690.641,427.086,645.313,427.086,601.484C427.086,557.656,427.086,515.328,427.086,487.247C427.086,459.167,427.086,445.333,427.086,431.5C427.086,417.667,427.086,403.833,427.086,390C427.086,376.167,427.086,362.333,427.086,348.5C427.086,334.667,427.086,320.833,427.086,307C427.086,293.167,427.086,279.333,427.086,265.5C427.086,251.667,427.086,237.833,427.086,224C427.086,210.167,427.086,196.333,427.086,182.5C427.086,168.667,427.086,154.833,427.086,144.633C427.086,134.433,427.086,127.867,427.086,124.583L427.086,121.3" id="L-H-B-0" class="edge-thickness-normal edge-pattern-solid flowchart-link LS-H LE-B" style="fill:none;" marker-end="url(#pdf_mermaid_18_flowchart-pointEnd)"></path><path d="M263.834,626.299L317.928,644.577C372.023,662.856,480.213,699.412,534.308,722.474C588.402,745.535,588.402,755.102,588.402,759.885L588.402,764.669" id="L-G-I-0" class="edge-thickness-normal edge-pattern-solid flowchart-link LS-G LE-I" style="fill:none;" marker-end="url(#pdf_mermaid_18_flowchart-pointEnd)"></path><path d="M588.402,802.969L588.402,807.135C588.402,811.302,588.402,819.635,594.773,827.523C601.143,835.411,613.884,842.853,620.255,846.574L626.625,850.296" id="L-I-J-0" class="edge-thickness-normal edge-pattern-solid flowchart-link LS-I LE-J" style="fill:none;" marker-end="url(#pdf_mermaid_18_flowchart-pointEnd)"></path><path d="M687.697,852.969L694.83,848.802C701.963,844.635,716.23,836.302,723.363,825.219C730.496,814.135,730.496,800.302,730.496,784.969C730.496,769.635,730.496,752.802,730.496,721.721C730.496,690.641,730.496,645.313,730.496,601.484C730.496,557.656,730.496,515.328,730.496,487.247C730.496,459.167,730.496,445.333,730.496,431.5C730.496,417.667,730.496,403.833,730.496,390C730.496,376.167,730.496,362.333,730.496,348.5C730.496,334.667,730.496,320.833,730.496,307C730.496,293.167,730.496,279.333,730.496,265.5C730.496,251.667,730.496,237.833,730.496,224C730.496,210.167,730.496,196.333,730.496,182.5C730.496,168.667,730.496,154.833,695.725,143.161C660.953,131.488,591.411,121.976,556.64,117.22L521.868,112.464" id="L-J-B-0" class="edge-thickness-normal edge-pattern-solid flowchart-link LS-J LE-B" style="fill:none;" marker-end="url(#pdf_mermaid_18_flowchart-pointEnd)"></path></g><g class="edgeLabels"><g class="edgeLabel"><g class="label" transform="translate(0, 0)"><foreignObject width="0" height="0"><div xmlns="http://www.w3.org/1999/xhtml" style="display: inline-block; white-space: nowrap;"><span class="edgeLabel"></span></div></foreignObject></g></g><g class="edgeLabel"><g class="label" transform="translate(0, 0)"><foreignObject width="0" height="0"><div xmlns="http://www.w3.org/1999/xhtml" style="display: inline-block; white-space: nowrap;"><span class="edgeLabel"></span></div></foreignObject></g></g><g class="edgeLabel"><g class="label" transform="translate(0, 0)"><foreignObject width="0" height="0"><div xmlns="http://www.w3.org/1999/xhtml" style="display: inline-block; white-space: nowrap;"><span class="edgeLabel"></span></div></foreignObject></g></g><g class="edgeLabel"><g class="label" transform="translate(0, 0)"><foreignObject width="0" height="0"><div xmlns="http://www.w3.org/1999/xhtml" style="display: inline-block; white-space: nowrap;"><span class="edgeLabel"></span></div></foreignObject></g></g><g class="edgeLabel"><g class="label" transform="translate(0, 0)"><foreignObject width="0" height="0"><div xmlns="http://www.w3.org/1999/xhtml" style="display: inline-block; white-space: nowrap;"><span class="edgeLabel"></span></div></foreignObject></g></g><g class="edgeLabel"><g class="label" transform="translate(0, 0)"><foreignObject width="0" height="0"><div xmlns="http://www.w3.org/1999/xhtml" style="display: inline-block; white-space: nowrap;"><span class="edgeLabel"></span></div></foreignObject></g></g><g class="edgeLabel" transform="translate(187.1640625, 735.96875)"><g class="label" transform="translate(-9.0859375, -9)"><foreignObject width="18.171875" height="18"><div xmlns="http://www.w3.org/1999/xhtml" style="display: inline-block; white-space: nowrap;"><span class="edgeLabel">no</span></div></foreignObject></g></g><g class="edgeLabel"><g class="label" transform="translate(0, 0)"><foreignObject width="0" height="0"><div xmlns="http://www.w3.org/1999/xhtml" style="display: inline-block; white-space: nowrap;"><span class="edgeLabel"></span></div></foreignObject></g></g><g class="edgeLabel" transform="translate(588.40234375, 735.96875)"><g class="label" transform="translate(-12.4765625, -9)"><foreignObject width="24.953125" height="18"><div xmlns="http://www.w3.org/1999/xhtml" style="display: inline-block; white-space: nowrap;"><span class="edgeLabel">yes</span></div></foreignObject></g></g><g class="edgeLabel"><g class="label" transform="translate(0, 0)"><foreignObject width="0" height="0"><div xmlns="http://www.w3.org/1999/xhtml" style="display: inline-block; white-space: nowrap;"><span class="edgeLabel"></span></div></foreignObject></g></g><g class="edgeLabel"><g class="label" transform="translate(0, 0)"><foreignObject width="0" height="0"><div xmlns="http://www.w3.org/1999/xhtml" style="display: inline-block; white-space: nowrap;"><span class="edgeLabel"></span></div></foreignObject></g></g></g><g class="nodes"><g class="node default default flowchart-label" id="flowchart-A-294" data-node="true" data-id="A" transform="translate(427.0859375, 16.5)"><rect class="basic label-container" style="" rx="0" ry="0" x="-57.3828125" y="-16.5" width="114.765625" height="33"></rect><g class="label" style="" transform="translate(-49.8828125, -9)"><rect></rect><foreignObject width="99.765625" height="18"><div xmlns="http://www.w3.org/1999/xhtml" style="display: inline-block; white-space: nowrap;"><span class="nodeLabel">Product tasks</span></div></foreignObject></g></g><g class="node default default flowchart-label" id="flowchart-B-295" data-node="true" data-id="B" transform="translate(427.0859375, 99.5)"><rect class="basic label-container" style="" rx="0" ry="0" x="-89.53125" y="-16.5" width="179.0625" height="33"></rect><g class="label" style="" transform="translate(-82.03125, -9)"><rect></rect><foreignObject width="164.0625" height="18"><div xmlns="http://www.w3.org/1999/xhtml" style="display: inline-block; white-space: nowrap;"><span class="nodeLabel">Failure mode inventory</span></div></foreignObject></g></g><g class="node default default flowchart-label" id="flowchart-C-297" data-node="true" data-id="C" transform="translate(187.1640625, 182.5)"><rect class="basic label-container" style="" rx="0" ry="0" x="-90.203125" y="-16.5" width="180.40625" height="33"></rect><g class="label" style="" transform="translate(-82.703125, -9)"><rect></rect><foreignObject width="165.40625" height="18"><div xmlns="http://www.w3.org/1999/xhtml" style="display: inline-block; white-space: nowrap;"><span class="nodeLabel">Eval cases and fixtures</span></div></foreignObject></g></g><g class="node default default flowchart-label" id="flowchart-D-299" data-node="true" data-id="D" transform="translate(187.1640625, 265.5)"><rect class="basic label-container" style="" rx="0" ry="0" x="-94.2421875" y="-16.5" width="188.484375" height="33"></rect><g class="label" style="" transform="translate(-86.7421875, -9)"><rect></rect><foreignObject width="173.484375" height="18"><div xmlns="http://www.w3.org/1999/xhtml" style="display: inline-block; white-space: nowrap;"><span class="nodeLabel">Baseline current system</span></div></foreignObject></g></g><g class="node default default flowchart-label" id="flowchart-E-301" data-node="true" data-id="E" transform="translate(187.1640625, 348.5)"><rect class="basic label-container" style="" rx="0" ry="0" x="-187.1640625" y="-16.5" width="374.328125" height="33"></rect><g class="label" style="" transform="translate(-179.6640625, -9)"><rect></rect><foreignObject width="359.328125" height="18"><div xmlns="http://www.w3.org/1999/xhtml" style="display: inline-block; white-space: nowrap;"><span class="nodeLabel">Change prompt, tool, state, policy, or architecture</span></div></foreignObject></g></g><g class="node default default flowchart-label" id="flowchart-F-303" data-node="true" data-id="F" transform="translate(187.1640625, 431.5)"><rect class="basic label-container" style="" rx="0" ry="0" x="-120.7421875" y="-16.5" width="241.484375" height="33"></rect><g class="label" style="" transform="translate(-113.2421875, -9)"><rect></rect><foreignObject width="226.484375" height="18"><div xmlns="http://www.w3.org/1999/xhtml" style="display: inline-block; white-space: nowrap;"><span class="nodeLabel">Run trajectory and output evals</span></div></foreignObject></g></g><g class="node default default flowchart-label" id="flowchart-G-305" data-node="true" data-id="G" transform="translate(187.1640625, 599.984375)"><polygon points="101.984375,0 203.96875,-101.984375 101.984375,-203.96875 0,-101.984375" class="label-container" transform="translate(-101.984375,101.984375)" style=""></polygon><g class="label" style="" transform="translate(-77.984375, -9)"><rect></rect><foreignObject width="155.96875" height="18"><div xmlns="http://www.w3.org/1999/xhtml" style="display: inline-block; white-space: nowrap;"><span class="nodeLabel">Release gate passes?</span></div></foreignObject></g></g><g class="node default default flowchart-label" id="flowchart-H-307" data-node="true" data-id="H" transform="translate(298.24609375, 786.46875)"><rect class="basic label-container" style="" rx="0" ry="0" x="-133.0625" y="-16.5" width="266.125" height="33"></rect><g class="label" style="" transform="translate(-125.5625, -9)"><rect></rect><foreignObject width="251.125" height="18"><div xmlns="http://www.w3.org/1999/xhtml" style="display: inline-block; white-space: nowrap;"><span class="nodeLabel">Inspect regressions and add cases</span></div></foreignObject></g></g><g class="node default default flowchart-label" id="flowchart-I-311" data-node="true" data-id="I" transform="translate(588.40234375, 786.46875)"><rect class="basic label-container" style="" rx="0" ry="0" x="-107.09375" y="-16.5" width="214.1875" height="33"></rect><g class="label" style="" transform="translate(-99.59375, -9)"><rect></rect><foreignObject width="199.1875" height="18"><div xmlns="http://www.w3.org/1999/xhtml" style="display: inline-block; white-space: nowrap;"><span class="nodeLabel">Ship with trace and monitor</span></div></foreignObject></g></g><g class="node default default flowchart-label" id="flowchart-J-313" data-node="true" data-id="J" transform="translate(659.44921875, 869.46875)"><rect class="basic label-container" style="" rx="0" ry="0" x="-126.8359375" y="-16.5" width="253.671875" height="33"></rect><g class="label" style="" transform="translate(-119.3359375, -9)"><rect></rect><foreignObject width="238.671875" height="18"><div xmlns="http://www.w3.org/1999/xhtml" style="display: inline-block; white-space: nowrap;"><span class="nodeLabel">Production incident or correction</span></div></foreignObject></g></g></g></g></g></svg>