<svg id="pdf_mermaid_agent_engineering_practice_agent_ux_and_human_trust_2" width="100%" xmlns="http://www.w3.org/2000/svg" style="max-width: 859.37109375px;" viewBox="-8 -8 859.37109375 830.578125" role="graphics-document document" aria-roledescription="flowchart-v2"><style>#pdf_mermaid_agent_engineering_practice_agent_ux_and_human_trust_2{font-family:Inter,system-ui,sans-serif;font-size:16px;fill:#173f4f;}#pdf_mermaid_agent_engineering_practice_agent_ux_and_human_trust_2 .error-icon{fill:#fffaf0;}#pdf_mermaid_agent_engineering_practice_agent_ux_and_human_trust_2 .error-text{fill:#00050f;stroke:#00050f;}#pdf_mermaid_agent_engineering_practice_agent_ux_and_human_trust_2 .edge-thickness-normal{stroke-width:2px;}#pdf_mermaid_agent_engineering_practice_agent_ux_and_human_trust_2 .edge-thickness-thick{stroke-width:3.5px;}#pdf_mermaid_agent_engineering_practice_agent_ux_and_human_trust_2 .edge-pattern-solid{stroke-dasharray:0;}#pdf_mermaid_agent_engineering_practice_agent_ux_and_human_trust_2 .edge-pattern-dashed{stroke-dasharray:3;}#pdf_mermaid_agent_engineering_practice_agent_ux_and_human_trust_2 .edge-pattern-dotted{stroke-dasharray:2;}#pdf_mermaid_agent_engineering_practice_agent_ux_and_human_trust_2 .marker{fill:#527887;stroke:#527887;}#pdf_mermaid_agent_engineering_practice_agent_ux_and_human_trust_2 .marker.cross{stroke:#527887;}#pdf_mermaid_agent_engineering_practice_agent_ux_and_human_trust_2 svg{font-family:Inter,system-ui,sans-serif;font-size:16px;}#pdf_mermaid_agent_engineering_practice_agent_ux_and_human_trust_2 .label{font-family:Inter,system-ui,sans-serif;color:#173f4f;}#pdf_mermaid_agent_engineering_practice_agent_ux_and_human_trust_2 .cluster-label text{fill:#00050f;}#pdf_mermaid_agent_engineering_practice_agent_ux_and_human_trust_2 .cluster-label span,#pdf_mermaid_agent_engineering_practice_agent_ux_and_human_trust_2 p{color:#00050f;}#pdf_mermaid_agent_engineering_practice_agent_ux_and_human_trust_2 .label text,#pdf_mermaid_agent_engineering_practice_agent_ux_and_human_trust_2 span,#pdf_mermaid_agent_engineering_practice_agent_ux_and_human_trust_2 p{fill:#173f4f;color:#173f4f;}#pdf_mermaid_agent_engineering_practice_agent_ux_and_human_trust_2 .node rect,#pdf_mermaid_agent_engineering_practice_agent_ux_and_human_trust_2 .node circle,#pdf_mermaid_agent_engineering_practice_agent_ux_and_human_trust_2 .node ellipse,#pdf_mermaid_agent_engineering_practice_agent_ux_and_human_trust_2 .node polygon,#pdf_mermaid_agent_engineering_practice_agent_ux_and_human_trust_2 .node path{fill:#f6efe2;stroke:#c7a76a;stroke-width:1px;}#pdf_mermaid_agent_engineering_practice_agent_ux_and_human_trust_2 .flowchart-label text{text-anchor:middle;}#pdf_mermaid_agent_engineering_practice_agent_ux_and_human_trust_2 .node .katex path{fill:#000;stroke:#000;stroke-width:1px;}#pdf_mermaid_agent_engineering_practice_agent_ux_and_human_trust_2 .node .label{text-align:center;}#pdf_mermaid_agent_engineering_practice_agent_ux_and_human_trust_2 .node.clickable{cursor:pointer;}#pdf_mermaid_agent_engineering_practice_agent_ux_and_human_trust_2 .arrowheadPath{fill:#0b0b0b;}#pdf_mermaid_agent_engineering_practice_agent_ux_and_human_trust_2 .edgePath .path{stroke:#527887;stroke-width:2.0px;}#pdf_mermaid_agent_engineering_practice_agent_ux_and_human_trust_2 .flowchart-link{stroke:#527887;fill:none;}#pdf_mermaid_agent_engineering_practice_agent_ux_and_human_trust_2 .edgeLabel{background-color:#e8f0ed;text-align:center;}#pdf_mermaid_agent_engineering_practice_agent_ux_and_human_trust_2 .edgeLabel rect{opacity:0.5;background-color:#e8f0ed;fill:#e8f0ed;}#pdf_mermaid_agent_engineering_practice_agent_ux_and_human_trust_2 .labelBkg{background-color:rgba(232, 240, 237, 0.5);}#pdf_mermaid_agent_engineering_practice_agent_ux_and_human_trust_2 .cluster rect{fill:#fffaf0;stroke:hsl(40, 60%, 87.0588235294%);stroke-width:1px;}#pdf_mermaid_agent_engineering_practice_agent_ux_and_human_trust_2 .cluster text{fill:#00050f;}#pdf_mermaid_agent_engineering_practice_agent_ux_and_human_trust_2 .cluster span,#pdf_mermaid_agent_engineering_practice_agent_ux_and_human_trust_2 p{color:#00050f;}#pdf_mermaid_agent_engineering_practice_agent_ux_and_human_trust_2 div.mermaidTooltip{position:absolute;text-align:center;max-width:200px;padding:2px;font-family:Inter,system-ui,sans-serif;font-size:12px;background:#fffaf0;border:1px solid hsl(40, 60%, 87.0588235294%);border-radius:2px;pointer-events:none;z-index:100;}#pdf_mermaid_agent_engineering_practice_agent_ux_and_human_trust_2 .flowchartTitleText{text-anchor:middle;font-size:18px;fill:#173f4f;}#pdf_mermaid_agent_engineering_practice_agent_ux_and_human_trust_2 :root{--mermaid-font-family:"trebuchet ms",verdana,arial,sans-serif;}</style><g><marker id="pdf_mermaid_agent_engineering_practice_agent_ux_and_human_trust_2_flowchart-pointEnd" class="marker flowchart" viewBox="0 0 10 10" refX="6" refY="5" markerUnits="userSpaceOnUse" markerWidth="12" markerHeight="12" orient="auto"><path d="M 0 0 L 10 5 L 0 10 z" class="arrowMarkerPath" style="stroke-width: 1; stroke-dasharray: 1, 0;"></path></marker><marker id="pdf_mermaid_agent_engineering_practice_agent_ux_and_human_trust_2_flowchart-pointStart" class="marker flowchart" viewBox="0 0 10 10" refX="4.5" refY="5" markerUnits="userSpaceOnUse" markerWidth="12" markerHeight="12" orient="auto"><path d="M 0 5 L 10 10 L 10 0 z" class="arrowMarkerPath" style="stroke-width: 1; stroke-dasharray: 1, 0;"></path></marker><marker id="pdf_mermaid_agent_engineering_practice_agent_ux_and_human_trust_2_flowchart-circleEnd" class="marker flowchart" viewBox="0 0 10 10" refX="11" refY="5" markerUnits="userSpaceOnUse" markerWidth="11" markerHeight="11" orient="auto"><circle cx="5" cy="5" r="5" class="arrowMarkerPath" style="stroke-width: 1; stroke-dasharray: 1, 0;"></circle></marker><marker id="pdf_mermaid_agent_engineering_practice_agent_ux_and_human_trust_2_flowchart-circleStart" class="marker flowchart" viewBox="0 0 10 10" refX="-1" refY="5" markerUnits="userSpaceOnUse" markerWidth="11" markerHeight="11" orient="auto"><circle cx="5" cy="5" r="5" class="arrowMarkerPath" style="stroke-width: 1; stroke-dasharray: 1, 0;"></circle></marker><marker id="pdf_mermaid_agent_engineering_practice_agent_ux_and_human_trust_2_flowchart-crossEnd" class="marker cross flowchart" viewBox="0 0 11 11" refX="12" refY="5.2" markerUnits="userSpaceOnUse" markerWidth="11" markerHeight="11" orient="auto"><path d="M 1,1 l 9,9 M 10,1 l -9,9" class="arrowMarkerPath" style="stroke-width: 2; stroke-dasharray: 1, 0;"></path></marker><marker id="pdf_mermaid_agent_engineering_practice_agent_ux_and_human_trust_2_flowchart-crossStart" class="marker cross flowchart" viewBox="0 0 11 11" refX="-1" refY="5.2" markerUnits="userSpaceOnUse" markerWidth="11" markerHeight="11" orient="auto"><path d="M 1,1 l 9,9 M 10,1 l -9,9" class="arrowMarkerPath" style="stroke-width: 2; stroke-dasharray: 1, 0;"></path></marker><g class="root"><g class="clusters"></g><g class="edgePaths"><path d="M651.203,33L651.203,37.167C651.203,41.333,651.203,49.667,651.203,57.117C651.203,64.567,651.203,71.133,651.203,74.417L651.203,77.7" id="L-Start-Planning-0" class="edge-thickness-normal edge-pattern-solid flowchart-link LS-Start LE-Planning" style="fill:none;" marker-end="url(#pdf_mermaid_agent_engineering_practice_agent_ux_and_human_trust_2_flowchart-pointEnd)"></path><path d="M612.578,107.382L585.123,112.985C557.668,118.588,502.758,129.794,475.303,138.68C447.848,147.567,447.848,154.133,447.848,157.417L447.848,160.7" id="L-Planning-Retrieving-0" class="edge-thickness-normal edge-pattern-solid flowchart-link LS-Planning LE-Retrieving" style="fill:none;" marker-end="url(#pdf_mermaid_agent_engineering_practice_agent_ux_and_human_trust_2_flowchart-pointEnd)"></path><path d="M411.734,199L402.614,203.167C393.494,207.333,375.255,215.667,366.135,223.117C357.016,230.567,357.016,237.133,357.016,240.417L357.016,243.7" id="L-Retrieving-Tool-0" class="edge-thickness-normal edge-pattern-solid flowchart-link LS-Retrieving LE-Tool" style="fill:none;" marker-end="url(#pdf_mermaid_agent_engineering_practice_agent_ux_and_human_trust_2_flowchart-pointEnd)"></path><path d="M312.898,273.248L280.868,278.873C248.837,284.499,184.776,295.749,152.811,304.742C120.847,313.734,120.979,320.467,121.045,323.834L121.111,327.201" id="L-Tool-Approve-0" class="edge-thickness-normal edge-pattern-solid flowchart-link LS-Tool LE-Approve" style="fill:none;" marker-end="url(#pdf_mermaid_agent_engineering_practice_agent_ux_and_human_trust_2_flowchart-pointEnd)"></path><path d="M107.733,503.518L106.295,511.348C104.857,519.179,101.981,534.839,145.407,556.09C188.833,577.34,278.561,604.18,323.425,617.6L368.289,631.02" id="L-Approve-Waiting-0" class="edge-thickness-normal edge-pattern-solid flowchart-link LS-Approve LE-Waiting" style="fill:none;" marker-end="url(#pdf_mermaid_agent_engineering_practice_agent_ux_and_human_trust_2_flowchart-pointEnd)"></path><path d="M438.747,632.539L447.217,618.866C455.686,605.193,472.624,577.846,481.093,543.132C489.563,508.417,489.563,466.333,489.563,425.75C489.563,385.167,489.563,346.083,475.667,322.191C461.772,298.299,433.981,289.598,420.086,285.247L406.191,280.897" id="L-Waiting-Tool-0" class="edge-thickness-normal edge-pattern-solid flowchart-link LS-Waiting LE-Tool" style="fill:none;" marker-end="url(#pdf_mermaid_agent_engineering_practice_agent_ux_and_human_trust_2_flowchart-pointEnd)"></path><path d="M481.987,632.539L526.287,618.866C570.587,605.193,659.188,577.846,703.489,543.132C747.789,508.417,747.789,466.333,747.789,425.75C747.789,385.167,747.789,346.083,747.789,319.625C747.789,293.167,747.789,279.333,747.789,265.5C747.789,251.667,747.789,237.833,747.789,224C747.789,210.167,747.789,196.333,747.789,182.5C747.789,168.667,747.789,154.833,738.903,144.099C730.017,133.364,712.246,125.728,703.36,121.91L694.474,118.092" id="L-Waiting-Planning-0" class="edge-thickness-normal edge-pattern-solid flowchart-link LS-Waiting LE-Planning" style="fill:none;" marker-end="url(#pdf_mermaid_agent_engineering_practice_agent_ux_and_human_trust_2_flowchart-pointEnd)"></path><path d="M428.527,665.539L428.527,679.212C428.527,692.885,428.527,720.232,423.422,738.951C418.316,757.67,408.106,767.761,403,772.807L397.895,777.853" id="L-Waiting-Escalate-0" class="edge-thickness-normal edge-pattern-solid flowchart-link LS-Waiting LE-Escalate" style="fill:none;" marker-end="url(#pdf_mermaid_agent_engineering_practice_agent_ux_and_human_trust_2_flowchart-pointEnd)"></path><path d="M143.609,494.606L146.539,503.922C149.468,513.237,155.328,531.869,152.977,554.04C150.627,576.212,140.066,601.924,134.786,614.78L129.505,627.636" id="L-Approve-Verify-0" class="edge-thickness-normal edge-pattern-solid flowchart-link LS-Approve LE-Verify" style="fill:none;" marker-end="url(#pdf_mermaid_agent_engineering_practice_agent_ux_and_human_trust_2_flowchart-pointEnd)"></path><path d="M108.425,665.539L98.241,679.212C88.057,692.885,67.689,720.232,57.504,738.688C47.32,757.145,47.32,766.711,47.32,771.495L47.32,776.278" id="L-Verify-Complete-0" class="edge-thickness-normal edge-pattern-solid flowchart-link LS-Verify LE-Complete" style="fill:none;" marker-end="url(#pdf_mermaid_agent_engineering_practice_agent_ux_and_human_trust_2_flowchart-pointEnd)"></path><path d="M139.676,665.539L155.389,679.212C171.102,692.885,202.527,720.232,269.992,740.77C337.457,761.309,440.961,775.039,492.713,781.905L544.465,788.77" id="L-Verify-Clarify-0" class="edge-thickness-normal edge-pattern-solid flowchart-link LS-Verify LE-Clarify" style="fill:none;" marker-end="url(#pdf_mermaid_agent_engineering_practice_agent_ux_and_human_trust_2_flowchart-pointEnd)"></path><path d="M669.228,781.578L687.978,775.911C706.727,770.245,744.227,758.911,762.977,736.822C781.727,714.732,781.727,681.885,781.727,649.039C781.727,616.193,781.727,583.346,781.727,545.882C781.727,508.417,781.727,466.333,781.727,425.75C781.727,385.167,781.727,346.083,781.727,319.625C781.727,293.167,781.727,279.333,781.727,265.5C781.727,251.667,781.727,237.833,781.727,224C781.727,210.167,781.727,196.333,781.727,182.5C781.727,168.667,781.727,154.833,767.252,143.314C752.777,131.796,723.828,122.591,709.354,117.989L694.879,113.387" id="L-Clarify-Planning-0" class="edge-thickness-normal edge-pattern-solid flowchart-link LS-Clarify LE-Planning" style="fill:none;" marker-end="url(#pdf_mermaid_agent_engineering_practice_agent_ux_and_human_trust_2_flowchart-pointEnd)"></path><path d="M372.31,282L376.173,286.167C380.035,290.333,387.76,298.667,391.622,318.742C395.484,338.817,395.484,370.633,395.484,386.542L395.484,402.45" id="L-Tool-Failed-0" class="edge-thickness-normal edge-pattern-solid flowchart-link LS-Tool LE-Failed" style="fill:none;" marker-end="url(#pdf_mermaid_agent_engineering_practice_agent_ux_and_human_trust_2_flowchart-pointEnd)"></path><path d="M395.484,440.75L395.484,459.042C395.484,477.333,395.484,513.917,425.156,545.111C454.827,576.305,514.17,602.11,543.842,615.012L573.514,627.915" id="L-Failed-Retry-0" class="edge-thickness-normal edge-pattern-solid flowchart-link LS-Failed LE-Retry" style="fill:none;" marker-end="url(#pdf_mermaid_agent_engineering_practice_agent_ux_and_human_trust_2_flowchart-pointEnd)"></path><path d="M666.029,627.627L690.79,614.772C715.551,601.918,765.072,576.209,789.833,542.313C814.594,508.417,814.594,466.333,814.594,425.75C814.594,385.167,814.594,346.083,814.594,319.625C814.594,293.167,814.594,279.333,814.594,265.5C814.594,251.667,814.594,237.833,814.594,224C814.594,210.167,814.594,196.333,814.594,182.5C814.594,168.667,814.594,154.833,794.656,142.853C774.718,130.872,734.841,120.743,714.903,115.679L694.965,110.615" id="L-Retry-Planning-0" class="edge-thickness-normal edge-pattern-solid flowchart-link LS-Retry LE-Planning" style="fill:none;" marker-end="url(#pdf_mermaid_agent_engineering_practice_agent_ux_and_human_trust_2_flowchart-pointEnd)"></path><path d="M623.402,714.078L623.319,719.661C623.236,725.245,623.069,736.411,646.704,748.506C670.339,760.601,717.776,773.625,741.495,780.136L765.213,786.648" id="L-Retry-Blocked-0" class="edge-thickness-normal edge-pattern-solid flowchart-link LS-Retry LE-Blocked" style="fill:none;" marker-end="url(#pdf_mermaid_agent_engineering_practice_agent_ux_and_human_trust_2_flowchart-pointEnd)"></path><path d="M676.112,116L682.402,120.167C688.692,124.333,701.272,132.667,707.562,143.75C713.852,154.833,713.852,168.667,713.852,182.5C713.852,196.333,713.852,210.167,713.852,224C713.852,237.833,713.852,251.667,713.852,265.5C713.852,279.333,713.852,293.167,703.011,316.143C692.171,339.119,670.49,371.238,659.65,387.298L648.81,403.357" id="L-Planning-Cancelled-0" class="edge-thickness-normal edge-pattern-solid flowchart-link LS-Planning LE-Cancelled" style="fill:none;" marker-end="url(#pdf_mermaid_agent_engineering_practice_agent_ux_and_human_trust_2_flowchart-pointEnd)"></path><path d="M522.141,199L540.902,203.167C559.663,207.333,597.185,215.667,615.946,226.75C634.707,237.833,634.707,251.667,634.707,265.5C634.707,279.333,634.707,293.167,634.707,315.992C634.707,338.817,634.707,370.633,634.707,386.542L634.707,402.45" id="L-Retrieving-Cancelled-0" class="edge-thickness-normal edge-pattern-solid flowchart-link LS-Retrieving LE-Cancelled" style="fill:none;" marker-end="url(#pdf_mermaid_agent_engineering_practice_agent_ux_and_human_trust_2_flowchart-pointEnd)"></path><path d="M391.013,282L399.598,286.167C408.183,290.333,425.353,298.667,460.707,319.165C496.061,339.663,549.6,372.326,576.369,388.658L603.138,404.99" id="L-Tool-Cancelled-0" class="edge-thickness-normal edge-pattern-solid flowchart-link LS-Tool LE-Cancelled" style="fill:none;" marker-end="url(#pdf_mermaid_agent_engineering_practice_agent_ux_and_human_trust_2_flowchart-pointEnd)"></path></g><g class="edgeLabels"><g class="edgeLabel"><g class="label" transform="translate(0, 0)"><foreignObject width="0" height="0"><div xmlns="http://www.w3.org/1999/xhtml" style="display: inline-block; white-space: nowrap;"><span class="edgeLabel"></span></div></foreignObject></g></g><g class="edgeLabel"><g class="label" transform="translate(0, 0)"><foreignObject width="0" height="0"><div xmlns="http://www.w3.org/1999/xhtml" style="display: inline-block; white-space: nowrap;"><span class="edgeLabel"></span></div></foreignObject></g></g><g class="edgeLabel"><g class="label" transform="translate(0, 0)"><foreignObject width="0" height="0"><div xmlns="http://www.w3.org/1999/xhtml" style="display: inline-block; white-space: nowrap;"><span class="edgeLabel"></span></div></foreignObject></g></g><g class="edgeLabel"><g class="label" transform="translate(0, 0)"><foreignObject width="0" height="0"><div xmlns="http://www.w3.org/1999/xhtml" style="display: inline-block; white-space: nowrap;"><span class="edgeLabel"></span></div></foreignObject></g></g><g class="edgeLabel" transform="translate(99.10546875, 550.5)"><g class="label" transform="translate(-12.8671875, -9)"><foreignObject width="25.734375" height="18"><div xmlns="http://www.w3.org/1999/xhtml" style="display: inline-block; white-space: nowrap;"><span class="edgeLabel">Yes</span></div></foreignObject></g></g><g class="edgeLabel" transform="translate(489.5625, 424.25)"><g class="label" transform="translate(-30.3125, -9)"><foreignObject width="60.625" height="18"><div xmlns="http://www.w3.org/1999/xhtml" style="display: inline-block; white-space: nowrap;"><span class="edgeLabel">Approve</span></div></foreignObject></g></g><g class="edgeLabel" transform="translate(747.7890625, 265.5)"><g class="label" transform="translate(-13.9375, -9)"><foreignObject width="27.875" height="18"><div xmlns="http://www.w3.org/1999/xhtml" style="display: inline-block; white-space: nowrap;"><span class="edgeLabel">Edit</span></div></foreignObject></g></g><g class="edgeLabel" transform="translate(428.52734375, 747.578125)"><g class="label" transform="translate(-18.6171875, -9)"><foreignObject width="37.234375" height="18"><div xmlns="http://www.w3.org/1999/xhtml" style="display: inline-block; white-space: nowrap;"><span class="edgeLabel">Deny</span></div></foreignObject></g></g><g class="edgeLabel" transform="translate(161.1875, 550.5)"><g class="label" transform="translate(-10.3515625, -9)"><foreignObject width="20.703125" height="18"><div xmlns="http://www.w3.org/1999/xhtml" style="display: inline-block; white-space: nowrap;"><span class="edgeLabel">No</span></div></foreignObject></g></g><g class="edgeLabel"><g class="label" transform="translate(0, 0)"><foreignObject width="0" height="0"><div xmlns="http://www.w3.org/1999/xhtml" style="display: inline-block; white-space: nowrap;"><span class="edgeLabel"></span></div></foreignObject></g></g><g class="edgeLabel"><g class="label" transform="translate(0, 0)"><foreignObject width="0" height="0"><div xmlns="http://www.w3.org/1999/xhtml" style="display: inline-block; white-space: nowrap;"><span class="edgeLabel"></span></div></foreignObject></g></g><g class="edgeLabel"><g class="label" transform="translate(0, 0)"><foreignObject width="0" height="0"><div xmlns="http://www.w3.org/1999/xhtml" style="display: inline-block; white-space: nowrap;"><span class="edgeLabel"></span></div></foreignObject></g></g><g class="edgeLabel"><g class="label" transform="translate(0, 0)"><foreignObject width="0" height="0"><div xmlns="http://www.w3.org/1999/xhtml" style="display: inline-block; white-space: nowrap;"><span class="edgeLabel"></span></div></foreignObject></g></g><g class="edgeLabel"><g class="label" transform="translate(0, 0)"><foreignObject width="0" height="0"><div xmlns="http://www.w3.org/1999/xhtml" style="display: inline-block; white-space: nowrap;"><span class="edgeLabel"></span></div></foreignObject></g></g><g class="edgeLabel" transform="translate(814.59375, 265.5)"><g class="label" transform="translate(-12.8671875, -9)"><foreignObject width="25.734375" height="18"><div xmlns="http://www.w3.org/1999/xhtml" style="display: inline-block; white-space: nowrap;"><span class="edgeLabel">Yes</span></div></foreignObject></g></g><g class="edgeLabel" transform="translate(622.90234375, 747.578125)"><g class="label" transform="translate(-10.3515625, -9)"><foreignObject width="20.703125" height="18"><div xmlns="http://www.w3.org/1999/xhtml" style="display: inline-block; white-space: nowrap;"><span class="edgeLabel">No</span></div></foreignObject></g></g><g class="edgeLabel"><g class="label" transform="translate(0, 0)"><foreignObject width="0" height="0"><div xmlns="http://www.w3.org/1999/xhtml" style="display: inline-block; white-space: nowrap;"><span class="edgeLabel"></span></div></foreignObject></g></g><g class="edgeLabel"><g class="label" transform="translate(0, 0)"><foreignObject width="0" height="0"><div xmlns="http://www.w3.org/1999/xhtml" style="display: inline-block; white-space: nowrap;"><span class="edgeLabel"></span></div></foreignObject></g></g><g class="edgeLabel"><g class="label" transform="translate(0, 0)"><foreignObject width="0" height="0"><div xmlns="http://www.w3.org/1999/xhtml" style="display: inline-block; white-space: nowrap;"><span class="edgeLabel"></span></div></foreignObject></g></g></g><g class="nodes"><g class="node default default flowchart-label" id="flowchart-Start-338" data-node="true" data-id="Start" transform="translate(651.203125, 16.5)"><rect class="basic label-container" style="" rx="0" ry="0" x="-71.5078125" y="-16.5" width="143.015625" height="33"></rect><g class="label" style="" transform="translate(-64.0078125, -9)"><rect></rect><foreignObject width="128.015625" height="18"><div xmlns="http://www.w3.org/1999/xhtml" style="display: inline-block; white-space: nowrap;"><span class="nodeLabel">User assigns goal</span></div></foreignObject></g></g><g class="node default default flowchart-label" id="flowchart-Planning-339" data-node="true" data-id="Planning" transform="translate(651.203125, 99.5)"><rect class="basic label-container" style="" rx="0" ry="0" x="-38.625" y="-16.5" width="77.25" height="33"></rect><g class="label" style="" transform="translate(-31.125, -9)"><rect></rect><foreignObject width="62.25" height="18"><div xmlns="http://www.w3.org/1999/xhtml" style="display: inline-block; white-space: nowrap;"><span class="nodeLabel">Planning</span></div></foreignObject></g></g><g class="node default default flowchart-label" id="flowchart-Retrieving-341" data-node="true" data-id="Retrieving" transform="translate(447.84765625, 182.5)"><rect class="basic label-container" style="" rx="0" ry="0" x="-78.7421875" y="-16.5" width="157.484375" height="33"></rect><g class="label" style="" transform="translate(-71.2421875, -9)"><rect></rect><foreignObject width="142.484375" height="18"><div xmlns="http://www.w3.org/1999/xhtml" style="display: inline-block; white-space: nowrap;"><span class="nodeLabel">Retrieving evidence</span></div></foreignObject></g></g><g class="node default default flowchart-label" id="flowchart-Tool-343" data-node="true" data-id="Tool" transform="translate(357.015625, 265.5)"><rect class="basic label-container" style="" rx="0" ry="0" x="-44.1171875" y="-16.5" width="88.234375" height="33"></rect><g class="label" style="" transform="translate(-36.6171875, -9)"><rect></rect><foreignObject width="73.234375" height="18"><div xmlns="http://www.w3.org/1999/xhtml" style="display: inline-block; white-space: nowrap;"><span class="nodeLabel">Using tool</span></div></foreignObject></g></g><g class="node default default flowchart-label" id="flowchart-Approve-345" data-node="true" data-id="Approve" transform="translate(120.71484375, 424.25)"><polygon points="92.25,0 184.5,-92.25 92.25,-184.5 0,-92.25" class="label-container" transform="translate(-92.25,92.25)" style=""></polygon><g class="label" style="" transform="translate(-68.25, -9)"><rect></rect><foreignObject width="136.5" height="18"><div xmlns="http://www.w3.org/1999/xhtml" style="display: inline-block; white-space: nowrap;"><span class="nodeLabel">Approval required?</span></div></foreignObject></g></g><g class="node default default flowchart-label" id="flowchart-Waiting-347" data-node="true" data-id="Waiting" transform="translate(428.52734375, 649.0390625)"><rect class="basic label-container" style="" rx="0" ry="0" x="-79.8359375" y="-16.5" width="159.671875" height="33"></rect><g class="label" style="" transform="translate(-72.3359375, -9)"><rect></rect><foreignObject width="144.671875" height="18"><div xmlns="http://www.w3.org/1999/xhtml" style="display: inline-block; white-space: nowrap;"><span class="nodeLabel">Waiting for approval</span></div></foreignObject></g></g><g class="node default default flowchart-label" id="flowchart-Escalate-353" data-node="true" data-id="Escalate" transform="translate(377.4296875, 798.078125)"><rect class="basic label-container" style="" rx="0" ry="0" x="-65.578125" y="-16.5" width="131.15625" height="33"></rect><g class="label" style="" transform="translate(-58.078125, -9)"><rect></rect><foreignObject width="116.15625" height="18"><div xmlns="http://www.w3.org/1999/xhtml" style="display: inline-block; white-space: nowrap;"><span class="nodeLabel">Escalate or stop</span></div></foreignObject></g></g><g class="node default default flowchart-label" id="flowchart-Verify-355" data-node="true" data-id="Verify" transform="translate(120.71484375, 649.0390625)"><rect class="basic label-container" style="" rx="0" ry="0" x="-54.3125" y="-16.5" width="108.625" height="33"></rect><g class="label" style="" transform="translate(-46.8125, -9)"><rect></rect><foreignObject width="93.625" height="18"><div xmlns="http://www.w3.org/1999/xhtml" style="display: inline-block; white-space: nowrap;"><span class="nodeLabel">Verify output</span></div></foreignObject></g></g><g class="node default default flowchart-label" id="flowchart-Complete-357" data-node="true" data-id="Complete" transform="translate(47.3203125, 798.078125)"><rect class="basic label-container" style="" rx="0" ry="0" x="-47.3203125" y="-16.5" width="94.640625" height="33"></rect><g class="label" style="" transform="translate(-39.8203125, -9)"><rect></rect><foreignObject width="79.640625" height="18"><div xmlns="http://www.w3.org/1999/xhtml" style="display: inline-block; white-space: nowrap;"><span class="nodeLabel">Completed</span></div></foreignObject></g></g><g class="node default default flowchart-label" id="flowchart-Clarify-359" data-node="true" data-id="Clarify" transform="translate(614.6328125, 798.078125)"><rect class="basic label-container" style="" rx="0" ry="0" x="-64.9140625" y="-16.5" width="129.828125" height="33"></rect><g class="label" style="" transform="translate(-57.4140625, -9)"><rect></rect><foreignObject width="114.828125" height="18"><div xmlns="http://www.w3.org/1999/xhtml" style="display: inline-block; white-space: nowrap;"><span class="nodeLabel">Ask clarification</span></div></foreignObject></g></g><g class="node default default flowchart-label" id="flowchart-Failed-363" data-node="true" data-id="Failed" transform="translate(395.484375, 424.25)"><rect class="basic label-container" style="" rx="0" ry="0" x="-28.765625" y="-16.5" width="57.53125" height="33"></rect><g class="label" style="" transform="translate(-21.265625, -9)"><rect></rect><foreignObject width="42.53125" height="18"><div xmlns="http://www.w3.org/1999/xhtml" style="display: inline-block; white-space: nowrap;"><span class="nodeLabel">Failed</span></div></foreignObject></g></g><g class="node default default flowchart-label" id="flowchart-Retry-365" data-node="true" data-id="Retry" transform="translate(622.90234375, 649.0390625)"><polygon points="64.5390625,0 129.078125,-64.5390625 64.5390625,-129.078125 0,-64.5390625" class="label-container" transform="translate(-64.5390625,64.5390625)" style=""></polygon><g class="label" style="" transform="translate(-40.5390625, -9)"><rect></rect><foreignObject width="81.078125" height="18"><div xmlns="http://www.w3.org/1999/xhtml" style="display: inline-block; white-space: nowrap;"><span class="nodeLabel">Retry safe?</span></div></foreignObject></g></g><g class="node default default flowchart-label" id="flowchart-Blocked-369" data-node="true" data-id="Blocked" transform="translate(806.84765625, 798.078125)"><rect class="basic label-container" style="" rx="0" ry="0" x="-36.5234375" y="-16.5" width="73.046875" height="33"></rect><g class="label" style="" transform="translate(-29.0234375, -9)"><rect></rect><foreignObject width="58.046875" height="18"><div xmlns="http://www.w3.org/1999/xhtml" style="display: inline-block; white-space: nowrap;"><span class="nodeLabel">Blocked</span></div></foreignObject></g></g><g class="node default default flowchart-label" id="flowchart-Cancelled-371" data-node="true" data-id="Cancelled" transform="translate(634.70703125, 424.25)"><rect class="basic label-container" style="" rx="0" ry="0" x="-43.484375" y="-16.5" width="86.96875" height="33"></rect><g class="label" style="" transform="translate(-35.984375, -9)"><rect></rect><foreignObject width="71.96875" height="18"><div xmlns="http://www.w3.org/1999/xhtml" style="display: inline-block; white-space: nowrap;"><span class="nodeLabel">Cancelled</span></div></foreignObject></g></g></g></g></g></svg>