<svg id="pdf_mermaid_23" width="100%" xmlns="http://www.w3.org/2000/svg" style="max-width: 1155.671875px;" viewBox="-8 -8 1155.671875 1790.65625" role="graphics-document document" aria-roledescription="flowchart-v2"><style>#pdf_mermaid_23{font-family:Inter,system-ui,sans-serif;font-size:16px;fill:#173f4f;}#pdf_mermaid_23 .error-icon{fill:#fffaf0;}#pdf_mermaid_23 .error-text{fill:#00050f;stroke:#00050f;}#pdf_mermaid_23 .edge-thickness-normal{stroke-width:2px;}#pdf_mermaid_23 .edge-thickness-thick{stroke-width:3.5px;}#pdf_mermaid_23 .edge-pattern-solid{stroke-dasharray:0;}#pdf_mermaid_23 .edge-pattern-dashed{stroke-dasharray:3;}#pdf_mermaid_23 .edge-pattern-dotted{stroke-dasharray:2;}#pdf_mermaid_23 .marker{fill:#527887;stroke:#527887;}#pdf_mermaid_23 .marker.cross{stroke:#527887;}#pdf_mermaid_23 svg{font-family:Inter,system-ui,sans-serif;font-size:16px;}#pdf_mermaid_23 .label{font-family:Inter,system-ui,sans-serif;color:#173f4f;}#pdf_mermaid_23 .cluster-label text{fill:#00050f;}#pdf_mermaid_23 .cluster-label span,#pdf_mermaid_23 p{color:#00050f;}#pdf_mermaid_23 .label text,#pdf_mermaid_23 span,#pdf_mermaid_23 p{fill:#173f4f;color:#173f4f;}#pdf_mermaid_23 .node rect,#pdf_mermaid_23 .node circle,#pdf_mermaid_23 .node ellipse,#pdf_mermaid_23 .node polygon,#pdf_mermaid_23 .node path{fill:#f6efe2;stroke:#c7a76a;stroke-width:1px;}#pdf_mermaid_23 .flowchart-label text{text-anchor:middle;}#pdf_mermaid_23 .node .katex path{fill:#000;stroke:#000;stroke-width:1px;}#pdf_mermaid_23 .node .label{text-align:center;}#pdf_mermaid_23 .node.clickable{cursor:pointer;}#pdf_mermaid_23 .arrowheadPath{fill:#0b0b0b;}#pdf_mermaid_23 .edgePath .path{stroke:#527887;stroke-width:2.0px;}#pdf_mermaid_23 .flowchart-link{stroke:#527887;fill:none;}#pdf_mermaid_23 .edgeLabel{background-color:#e8f0ed;text-align:center;}#pdf_mermaid_23 .edgeLabel rect{opacity:0.5;background-color:#e8f0ed;fill:#e8f0ed;}#pdf_mermaid_23 .labelBkg{background-color:rgba(232, 240, 237, 0.5);}#pdf_mermaid_23 .cluster rect{fill:#fffaf0;stroke:hsl(40, 60%, 87.0588235294%);stroke-width:1px;}#pdf_mermaid_23 .cluster text{fill:#00050f;}#pdf_mermaid_23 .cluster span,#pdf_mermaid_23 p{color:#00050f;}#pdf_mermaid_23 div.mermaidTooltip{position:absolute;text-align:center;max-width:200px;padding:2px;font-family:Inter,system-ui,sans-serif;font-size:12px;background:#fffaf0;border:1px solid hsl(40, 60%, 87.0588235294%);border-radius:2px;pointer-events:none;z-index:100;}#pdf_mermaid_23 .flowchartTitleText{text-anchor:middle;font-size:18px;fill:#173f4f;}#pdf_mermaid_23 :root{--mermaid-font-family:"trebuchet ms",verdana,arial,sans-serif;}</style><g><marker id="pdf_mermaid_23_flowchart-pointEnd" class="marker flowchart" viewBox="0 0 10 10" refX="6" refY="5" markerUnits="userSpaceOnUse" markerWidth="12" markerHeight="12" orient="auto"><path d="M 0 0 L 10 5 L 0 10 z" class="arrowMarkerPath" style="stroke-width: 1; stroke-dasharray: 1, 0;"></path></marker><marker id="pdf_mermaid_23_flowchart-pointStart" class="marker flowchart" viewBox="0 0 10 10" refX="4.5" refY="5" markerUnits="userSpaceOnUse" markerWidth="12" markerHeight="12" orient="auto"><path d="M 0 5 L 10 10 L 10 0 z" class="arrowMarkerPath" style="stroke-width: 1; stroke-dasharray: 1, 0;"></path></marker><marker id="pdf_mermaid_23_flowchart-circleEnd" class="marker flowchart" viewBox="0 0 10 10" refX="11" refY="5" markerUnits="userSpaceOnUse" markerWidth="11" markerHeight="11" orient="auto"><circle cx="5" cy="5" r="5" class="arrowMarkerPath" style="stroke-width: 1; stroke-dasharray: 1, 0;"></circle></marker><marker id="pdf_mermaid_23_flowchart-circleStart" class="marker flowchart" viewBox="0 0 10 10" refX="-1" refY="5" markerUnits="userSpaceOnUse" markerWidth="11" markerHeight="11" orient="auto"><circle cx="5" cy="5" r="5" class="arrowMarkerPath" style="stroke-width: 1; stroke-dasharray: 1, 0;"></circle></marker><marker id="pdf_mermaid_23_flowchart-crossEnd" class="marker cross flowchart" viewBox="0 0 11 11" refX="12" refY="5.2" markerUnits="userSpaceOnUse" markerWidth="11" markerHeight="11" orient="auto"><path d="M 1,1 l 9,9 M 10,1 l -9,9" class="arrowMarkerPath" style="stroke-width: 2; stroke-dasharray: 1, 0;"></path></marker><marker id="pdf_mermaid_23_flowchart-crossStart" class="marker cross flowchart" viewBox="0 0 11 11" refX="-1" refY="5.2" markerUnits="userSpaceOnUse" markerWidth="11" markerHeight="11" orient="auto"><path d="M 1,1 l 9,9 M 10,1 l -9,9" class="arrowMarkerPath" style="stroke-width: 2; stroke-dasharray: 1, 0;"></path></marker><g class="root"><g class="clusters"></g><g class="edgePaths"><path d="M577.914,20.571L507.25,26.809C436.586,33.047,295.258,45.524,224.66,55.129C154.062,64.734,154.194,71.467,154.26,74.834L154.326,78.201" id="L-F-C-0" class="edge-thickness-normal edge-pattern-solid flowchart-link LS-F LE-C" style="fill:none;" marker-end="url(#pdf_mermaid_23_flowchart-pointEnd)"></path><path d="M189.791,223.217L197.542,234.694C205.293,246.171,220.795,269.124,228.546,303.043C236.297,336.961,236.297,381.844,236.297,426.727C236.297,471.609,236.297,516.492,236.297,555.944C236.297,595.396,236.297,629.417,236.297,663.438C236.297,697.458,236.297,731.479,236.297,771.773C236.297,812.068,236.297,858.635,236.297,905.203C236.297,951.771,236.297,998.339,236.297,1046.28C236.297,1094.221,236.297,1143.536,236.297,1192.852C236.297,1242.167,236.297,1291.482,237.684,1320.957C239.072,1350.433,241.847,1360.068,243.234,1364.886L244.621,1369.704" id="L-C-E-0" class="edge-thickness-normal edge-pattern-solid flowchart-link LS-C LE-E" style="fill:none;" marker-end="url(#pdf_mermaid_23_flowchart-pointEnd)"></path><path d="M127.75,231.898L123.233,241.928C118.716,251.958,109.682,272.018,105.236,286.915C100.79,301.812,100.931,311.545,101.001,316.412L101.072,321.279" id="L-C-P-0" class="edge-thickness-normal edge-pattern-solid flowchart-link LS-C LE-P" style="fill:none;" marker-end="url(#pdf_mermaid_23_flowchart-pointEnd)"></path><path d="M101.148,527.875L101.065,533.458C100.982,539.042,100.815,550.208,100.732,569.169C100.648,588.129,100.648,614.883,100.648,628.26L100.648,641.638" id="L-P-S-0" class="edge-thickness-normal edge-pattern-solid flowchart-link LS-P LE-S" style="fill:none;" marker-end="url(#pdf_mermaid_23_flowchart-pointEnd)"></path><path d="M182.505,446.518L263.502,465.661C344.498,484.804,506.491,523.089,587.558,547.099C668.625,571.109,668.767,580.842,668.837,585.709L668.908,590.576" id="L-P-B-0" class="edge-thickness-normal edge-pattern-solid flowchart-link LS-P LE-B" style="fill:none;" marker-end="url(#pdf_mermaid_23_flowchart-pointEnd)"></path><path d="M615.76,678.775L563.528,693.229C511.297,707.683,406.834,736.592,354.602,774.33C302.371,812.068,302.371,858.635,302.371,905.203C302.371,951.771,302.371,998.339,302.371,1046.28C302.371,1094.221,302.371,1143.536,302.371,1192.852C302.371,1242.167,302.371,1291.482,297.22,1321.188C292.068,1350.894,281.765,1360.99,276.614,1366.039L271.462,1371.087" id="L-B-E-0" class="edge-thickness-normal edge-pattern-solid flowchart-link LS-B LE-E" style="fill:none;" marker-end="url(#pdf_mermaid_23_flowchart-pointEnd)"></path><path d="M703.916,697.068L715.946,708.474C727.975,719.879,752.034,742.689,764.135,758.962C776.235,775.234,776.376,784.967,776.446,789.834L776.517,794.701" id="L-B-I-0" class="edge-thickness-normal edge-pattern-solid flowchart-link LS-B LE-I" style="fill:none;" marker-end="url(#pdf_mermaid_23_flowchart-pointEnd)"></path><path d="M706.869,941.681L673.283,958.885C639.696,976.09,572.524,1010.498,539.008,1032.569C505.493,1054.64,505.634,1064.373,505.704,1069.24L505.775,1074.107" id="L-I-K-0" class="edge-thickness-normal edge-pattern-solid flowchart-link LS-I LE-K" style="fill:none;" marker-end="url(#pdf_mermaid_23_flowchart-pointEnd)"></path><path d="M519.816,1293.332L520.849,1301.243C521.883,1309.154,523.949,1324.975,524.982,1337.669C526.016,1350.364,526.016,1359.93,526.016,1364.714L526.016,1369.497" id="L-K-X-0" class="edge-thickness-normal edge-pattern-solid flowchart-link LS-K LE-X" style="fill:none;" marker-end="url(#pdf_mermaid_23_flowchart-pointEnd)"></path><path d="M456.271,1257.716L445.457,1271.563C434.643,1285.41,413.015,1313.103,387.261,1332.318C361.507,1351.533,331.628,1362.269,316.689,1367.637L301.749,1373.005" id="L-K-E-0" class="edge-thickness-normal edge-pattern-solid flowchart-link LS-K LE-E" style="fill:none;" marker-end="url(#pdf_mermaid_23_flowchart-pointEnd)"></path><path d="M830.699,957.301L846.014,971.902C861.328,986.503,891.957,1015.704,907.344,1036.098C922.731,1056.491,922.875,1068.076,922.947,1073.869L923.02,1079.661" id="L-I-R-0" class="edge-thickness-normal edge-pattern-solid flowchart-link LS-I LE-R" style="fill:none;" marker-end="url(#pdf_mermaid_23_flowchart-pointEnd)"></path><path d="M869.408,1248.064L854.079,1263.52C838.751,1278.975,808.094,1309.886,792.766,1330.125C777.438,1350.364,777.438,1359.93,777.438,1364.714L777.438,1369.497" id="L-R-N-0" class="edge-thickness-normal edge-pattern-solid flowchart-link LS-R LE-N" style="fill:none;" marker-end="url(#pdf_mermaid_23_flowchart-pointEnd)"></path><path d="M960.778,1264.05L967.558,1276.841C974.339,1289.632,987.9,1315.215,994.68,1332.789C1001.461,1350.364,1001.461,1359.93,1001.461,1364.714L1001.461,1369.497" id="L-R-T-0" class="edge-thickness-normal edge-pattern-solid flowchart-link LS-R LE-T" style="fill:none;" marker-end="url(#pdf_mermaid_23_flowchart-pointEnd)"></path><path d="M526.016,1407.797L526.016,1411.964C526.016,1416.13,526.016,1424.464,562.479,1433.948C598.943,1443.433,671.871,1454.068,708.335,1459.386L744.798,1464.704" id="L-X-O-0" class="edge-thickness-normal edge-pattern-solid flowchart-link LS-X LE-O" style="fill:none;" marker-end="url(#pdf_mermaid_23_flowchart-pointEnd)"></path><path d="M777.438,1407.797L777.438,1411.964C777.438,1416.13,777.438,1424.464,780.213,1432.107C782.989,1439.75,788.541,1446.702,791.317,1450.179L794.092,1453.655" id="L-N-O-0" class="edge-thickness-normal edge-pattern-solid flowchart-link LS-N LE-O" style="fill:none;" marker-end="url(#pdf_mermaid_23_flowchart-pointEnd)"></path><path d="M1001.461,1407.797L1001.461,1411.964C1001.461,1416.13,1001.461,1424.464,980.598,1433.166C959.735,1441.868,918.01,1450.94,897.147,1455.475L876.284,1460.011" id="L-T-O-0" class="edge-thickness-normal edge-pattern-solid flowchart-link LS-T LE-O" style="fill:none;" marker-end="url(#pdf_mermaid_23_flowchart-pointEnd)"></path><path d="M810.574,1490.797L810.574,1494.964C810.574,1499.13,810.574,1507.464,833.581,1522.926C856.588,1538.388,902.601,1560.979,925.608,1572.274L948.615,1583.57" id="L-O-D-0" class="edge-thickness-normal edge-pattern-solid flowchart-link LS-O LE-D" style="fill:none;" marker-end="url(#pdf_mermaid_23_flowchart-pointEnd)"></path><path d="M997.98,1674.156L997.897,1679.74C997.814,1685.323,997.647,1696.49,997.564,1706.856C997.48,1717.223,997.48,1726.79,997.48,1731.573L997.48,1736.356" id="L-D-G-0" class="edge-thickness-normal edge-pattern-solid flowchart-link LS-D LE-G" style="fill:none;" marker-end="url(#pdf_mermaid_23_flowchart-pointEnd)"></path><path d="M1037.36,1580.677L1052.898,1569.863C1068.436,1559.05,1099.511,1537.423,1115.048,1519.694C1130.586,1501.964,1130.586,1488.13,1130.586,1474.297C1130.586,1460.464,1130.586,1446.63,1130.586,1432.797C1130.586,1418.964,1130.586,1405.13,1130.586,1389.797C1130.586,1374.464,1130.586,1357.63,1130.586,1324.556C1130.586,1291.482,1130.586,1242.167,1130.586,1192.852C1130.586,1143.536,1130.586,1094.221,1130.586,1046.28C1130.586,998.339,1130.586,951.771,1130.586,905.203C1130.586,858.635,1130.586,812.068,1130.586,771.773C1130.586,731.479,1130.586,697.458,1130.586,663.438C1130.586,629.417,1130.586,595.396,1130.586,555.944C1130.586,516.492,1130.586,471.609,1130.586,426.727C1130.586,381.844,1130.586,336.961,1130.586,294.263C1130.586,251.565,1130.586,211.052,1130.586,172.039C1130.586,133.026,1130.586,95.513,1054.724,70.542C978.862,45.57,827.139,33.14,751.277,26.925L675.415,20.71" id="L-D-F-0" class="edge-thickness-normal edge-pattern-solid flowchart-link LS-D LE-F" style="fill:none;" marker-end="url(#pdf_mermaid_23_flowchart-pointEnd)"></path></g><g class="edgeLabels"><g class="edgeLabel"><g class="label" transform="translate(0, 0)"><foreignObject width="0" height="0"><div xmlns="http://www.w3.org/1999/xhtml" style="display: inline-block; white-space: nowrap;"><span class="edgeLabel"></span></div></foreignObject></g></g><g class="edgeLabel" transform="translate(236.296875, 765.5)"><g class="label" transform="translate(-9.0859375, -9)"><foreignObject width="18.171875" height="18"><div xmlns="http://www.w3.org/1999/xhtml" style="display: inline-block; white-space: nowrap;"><span class="edgeLabel">no</span></div></foreignObject></g></g><g class="edgeLabel" transform="translate(100.6484375, 292.078125)"><g class="label" transform="translate(-12.4765625, -9)"><foreignObject width="24.953125" height="18"><div xmlns="http://www.w3.org/1999/xhtml" style="display: inline-block; white-space: nowrap;"><span class="edgeLabel">yes</span></div></foreignObject></g></g><g class="edgeLabel" transform="translate(100.6484375, 561.375)"><g class="label" transform="translate(-12.4765625, -9)"><foreignObject width="24.953125" height="18"><div xmlns="http://www.w3.org/1999/xhtml" style="display: inline-block; white-space: nowrap;"><span class="edgeLabel">yes</span></div></foreignObject></g></g><g class="edgeLabel" transform="translate(668.484375, 561.375)"><g class="label" transform="translate(-9.0859375, -9)"><foreignObject width="18.171875" height="18"><div xmlns="http://www.w3.org/1999/xhtml" style="display: inline-block; white-space: nowrap;"><span class="edgeLabel">no</span></div></foreignObject></g></g><g class="edgeLabel" transform="translate(302.37109375, 1044.90625)"><g class="label" transform="translate(-9.0859375, -9)"><foreignObject width="18.171875" height="18"><div xmlns="http://www.w3.org/1999/xhtml" style="display: inline-block; white-space: nowrap;"><span class="edgeLabel">no</span></div></foreignObject></g></g><g class="edgeLabel" transform="translate(776.09375, 765.5)"><g class="label" transform="translate(-12.4765625, -9)"><foreignObject width="24.953125" height="18"><div xmlns="http://www.w3.org/1999/xhtml" style="display: inline-block; white-space: nowrap;"><span class="edgeLabel">yes</span></div></foreignObject></g></g><g class="edgeLabel" transform="translate(505.3515625, 1044.90625)"><g class="label" transform="translate(-12.4765625, -9)"><foreignObject width="24.953125" height="18"><div xmlns="http://www.w3.org/1999/xhtml" style="display: inline-block; white-space: nowrap;"><span class="edgeLabel">yes</span></div></foreignObject></g></g><g class="edgeLabel" transform="translate(526.015625, 1340.796875)"><g class="label" transform="translate(-12.4765625, -9)"><foreignObject width="24.953125" height="18"><div xmlns="http://www.w3.org/1999/xhtml" style="display: inline-block; white-space: nowrap;"><span class="edgeLabel">yes</span></div></foreignObject></g></g><g class="edgeLabel" transform="translate(391.38671875, 1340.796875)"><g class="label" transform="translate(-9.0859375, -9)"><foreignObject width="18.171875" height="18"><div xmlns="http://www.w3.org/1999/xhtml" style="display: inline-block; white-space: nowrap;"><span class="edgeLabel">no</span></div></foreignObject></g></g><g class="edgeLabel" transform="translate(922.5859375, 1044.90625)"><g class="label" transform="translate(-9.0859375, -9)"><foreignObject width="18.171875" height="18"><div xmlns="http://www.w3.org/1999/xhtml" style="display: inline-block; white-space: nowrap;"><span class="edgeLabel">no</span></div></foreignObject></g></g><g class="edgeLabel" transform="translate(777.4375, 1340.796875)"><g class="label" transform="translate(-12.4765625, -9)"><foreignObject width="24.953125" height="18"><div xmlns="http://www.w3.org/1999/xhtml" style="display: inline-block; white-space: nowrap;"><span class="edgeLabel">yes</span></div></foreignObject></g></g><g class="edgeLabel" transform="translate(1001.4609375, 1340.796875)"><g class="label" transform="translate(-9.0859375, -9)"><foreignObject width="18.171875" height="18"><div xmlns="http://www.w3.org/1999/xhtml" style="display: inline-block; white-space: nowrap;"><span class="edgeLabel">no</span></div></foreignObject></g></g><g class="edgeLabel"><g class="label" transform="translate(0, 0)"><foreignObject width="0" height="0"><div xmlns="http://www.w3.org/1999/xhtml" style="display: inline-block; white-space: nowrap;"><span class="edgeLabel"></span></div></foreignObject></g></g><g class="edgeLabel"><g class="label" transform="translate(0, 0)"><foreignObject width="0" height="0"><div xmlns="http://www.w3.org/1999/xhtml" style="display: inline-block; white-space: nowrap;"><span class="edgeLabel"></span></div></foreignObject></g></g><g class="edgeLabel"><g class="label" transform="translate(0, 0)"><foreignObject width="0" height="0"><div xmlns="http://www.w3.org/1999/xhtml" style="display: inline-block; white-space: nowrap;"><span class="edgeLabel"></span></div></foreignObject></g></g><g class="edgeLabel"><g class="label" transform="translate(0, 0)"><foreignObject width="0" height="0"><div xmlns="http://www.w3.org/1999/xhtml" style="display: inline-block; white-space: nowrap;"><span class="edgeLabel"></span></div></foreignObject></g></g><g class="edgeLabel" transform="translate(997.48046875, 1707.65625)"><g class="label" transform="translate(-12.4765625, -9)"><foreignObject width="24.953125" height="18"><div xmlns="http://www.w3.org/1999/xhtml" style="display: inline-block; white-space: nowrap;"><span class="edgeLabel">yes</span></div></foreignObject></g></g><g class="edgeLabel" transform="translate(1130.5859375, 905.203125)"><g class="label" transform="translate(-9.0859375, -9)"><foreignObject width="18.171875" height="18"><div xmlns="http://www.w3.org/1999/xhtml" style="display: inline-block; white-space: nowrap;"><span class="edgeLabel">no</span></div></foreignObject></g></g></g><g class="nodes"><g class="node default default flowchart-label" id="flowchart-F-402" data-node="true" data-id="F" transform="translate(624.0234375, 16.5)"><rect class="basic label-container" style="" rx="0" ry="0" x="-46.109375" y="-16.5" width="92.21875" height="33"></rect><g class="label" style="" transform="translate(-38.609375, -9)"><rect></rect><foreignObject width="77.21875" height="18"><div xmlns="http://www.w3.org/1999/xhtml" style="display: inline-block; white-space: nowrap;"><span class="nodeLabel">Step failed</span></div></foreignObject></g></g><g class="node default default flowchart-label" id="flowchart-C-403" data-node="true" data-id="C" transform="translate(153.9296875, 170.5390625)"><polygon points="87.5390625,0 175.078125,-87.5390625 87.5390625,-175.078125 0,-87.5390625" class="label-container" transform="translate(-87.5390625,87.5390625)" style=""></polygon><g class="label" style="" transform="translate(-63.5390625, -9)"><rect></rect><foreignObject width="127.078125" height="18"><div xmlns="http://www.w3.org/1999/xhtml" style="display: inline-block; white-space: nowrap;"><span class="nodeLabel">Classified failure?</span></div></foreignObject></g></g><g class="node default default flowchart-label" id="flowchart-E-405" data-node="true" data-id="E" transform="translate(250.83984375, 1391.296875)"><rect class="basic label-container" style="" rx="0" ry="0" x="-105.921875" y="-16.5" width="211.84375" height="33"></rect><g class="label" style="" transform="translate(-98.421875, -9)"><rect></rect><foreignObject width="196.84375" height="18"><div xmlns="http://www.w3.org/1999/xhtml" style="display: inline-block; white-space: nowrap;"><span class="nodeLabel">Escalate with replay packet</span></div></foreignObject></g></g><g class="node default default flowchart-label" id="flowchart-P-407" data-node="true" data-id="P" transform="translate(100.6484375, 426.7265625)"><polygon points="100.6484375,0 201.296875,-100.6484375 100.6484375,-201.296875 0,-100.6484375" class="label-container" transform="translate(-100.6484375,100.6484375)" style=""></polygon><g class="label" style="" transform="translate(-76.6484375, -9)"><rect></rect><foreignObject width="153.296875" height="18"><div xmlns="http://www.w3.org/1999/xhtml" style="display: inline-block; white-space: nowrap;"><span class="nodeLabel">Policy denial or fatal?</span></div></foreignObject></g></g><g class="node default default flowchart-label" id="flowchart-S-409" data-node="true" data-id="S" transform="translate(100.6484375, 663.4375)"><rect class="basic label-container" style="" rx="0" ry="0" x="-67.625" y="-16.5" width="135.25" height="33"></rect><g class="label" style="" transform="translate(-60.125, -9)"><rect></rect><foreignObject width="120.25" height="18"><div xmlns="http://www.w3.org/1999/xhtml" style="display: inline-block; white-space: nowrap;"><span class="nodeLabel">Stop and explain</span></div></foreignObject></g></g><g class="node default default flowchart-label" id="flowchart-B-411" data-node="true" data-id="B" transform="translate(668.484375, 663.4375)"><polygon points="68.0625,0 136.125,-68.0625 68.0625,-136.125 0,-68.0625" class="label-container" transform="translate(-68.0625,68.0625)" style=""></polygon><g class="label" style="" transform="translate(-44.0625, -9)"><rect></rect><foreignObject width="88.125" height="18"><div xmlns="http://www.w3.org/1999/xhtml" style="display: inline-block; white-space: nowrap;"><span class="nodeLabel">Budget left?</span></div></foreignObject></g></g><g class="node default default flowchart-label" id="flowchart-I-415" data-node="true" data-id="I" transform="translate(776.09375, 905.203125)"><polygon points="105.703125,0 211.40625,-105.703125 105.703125,-211.40625 0,-105.703125" class="label-container" transform="translate(-105.703125,105.703125)" style=""></polygon><g class="label" style="" transform="translate(-81.703125, -9)"><rect></rect><foreignObject width="163.40625" height="18"><div xmlns="http://www.w3.org/1999/xhtml" style="display: inline-block; white-space: nowrap;"><span class="nodeLabel">Side effect happened?</span></div></foreignObject></g></g><g class="node default default flowchart-label" id="flowchart-K-417" data-node="true" data-id="K" transform="translate(505.3515625, 1192.8515625)"><polygon points="113.9453125,0 227.890625,-113.9453125 113.9453125,-227.890625 0,-113.9453125" class="label-container" transform="translate(-113.9453125,113.9453125)" style=""></polygon><g class="label" style="" transform="translate(-89.9453125, -9)"><rect></rect><foreignObject width="179.890625" height="18"><div xmlns="http://www.w3.org/1999/xhtml" style="display: inline-block; white-space: nowrap;"><span class="nodeLabel">Compensation available?</span></div></foreignObject></g></g><g class="node default default flowchart-label" id="flowchart-X-419" data-node="true" data-id="X" transform="translate(526.015625, 1391.296875)"><rect class="basic label-container" style="" rx="0" ry="0" x="-100.859375" y="-16.5" width="201.71875" height="33"></rect><g class="label" style="" transform="translate(-93.359375, -9)"><rect></rect><foreignObject width="186.71875" height="18"><div xmlns="http://www.w3.org/1999/xhtml" style="display: inline-block; white-space: nowrap;"><span class="nodeLabel">Compensate then resume</span></div></foreignObject></g></g><g class="node default default flowchart-label" id="flowchart-R-423" data-node="true" data-id="R" transform="translate(922.5859375, 1192.8515625)"><polygon points="108.390625,0 216.78125,-108.390625 108.390625,-216.78125 0,-108.390625" class="label-container" transform="translate(-108.390625,108.390625)" style=""></polygon><g class="label" style="" transform="translate(-84.390625, -9)"><rect></rect><foreignObject width="168.78125" height="18"><div xmlns="http://www.w3.org/1999/xhtml" style="display: inline-block; white-space: nowrap;"><span class="nodeLabel">New evidence needed?</span></div></foreignObject></g></g><g class="node default default flowchart-label" id="flowchart-N-425" data-node="true" data-id="N" transform="translate(777.4375, 1391.296875)"><rect class="basic label-container" style="" rx="0" ry="0" x="-100.5625" y="-16.5" width="201.125" height="33"></rect><g class="label" style="" transform="translate(-93.0625, -9)"><rect></rect><foreignObject width="186.125" height="18"><div xmlns="http://www.w3.org/1999/xhtml" style="display: inline-block; white-space: nowrap;"><span class="nodeLabel">Fetch evidence or re-plan</span></div></foreignObject></g></g><g class="node default default flowchart-label" id="flowchart-T-427" data-node="true" data-id="T" transform="translate(1001.4609375, 1391.296875)"><rect class="basic label-container" style="" rx="0" ry="0" x="-73.4609375" y="-16.5" width="146.921875" height="33"></rect><g class="label" style="" transform="translate(-65.9609375, -9)"><rect></rect><foreignObject width="131.921875" height="18"><div xmlns="http://www.w3.org/1999/xhtml" style="display: inline-block; white-space: nowrap;"><span class="nodeLabel">Retry with backoff</span></div></foreignObject></g></g><g class="node default default flowchart-label" id="flowchart-O-429" data-node="true" data-id="O" transform="translate(810.57421875, 1474.296875)"><rect class="basic label-container" style="" rx="0" ry="0" x="-60.53125" y="-16.5" width="121.0625" height="33"></rect><g class="label" style="" transform="translate(-53.03125, -9)"><rect></rect><foreignObject width="106.0625" height="18"><div xmlns="http://www.w3.org/1999/xhtml" style="display: inline-block; white-space: nowrap;"><span class="nodeLabel">Observe result</span></div></foreignObject></g></g><g class="node default default flowchart-label" id="flowchart-D-435" data-node="true" data-id="D" transform="translate(997.48046875, 1607.2265625)"><polygon points="66.4296875,0 132.859375,-66.4296875 66.4296875,-132.859375 0,-66.4296875" class="label-container" transform="translate(-66.4296875,66.4296875)" style=""></polygon><g class="label" style="" transform="translate(-42.4296875, -9)"><rect></rect><foreignObject width="84.859375" height="18"><div xmlns="http://www.w3.org/1999/xhtml" style="display: inline-block; white-space: nowrap;"><span class="nodeLabel">Recovered?</span></div></foreignObject></g></g><g class="node default default flowchart-label" id="flowchart-G-437" data-node="true" data-id="G" transform="translate(997.48046875, 1758.15625)"><rect class="basic label-container" style="" rx="0" ry="0" x="-74.84375" y="-16.5" width="149.6875" height="33"></rect><g class="label" style="" transform="translate(-67.34375, -9)"><rect></rect><foreignObject width="134.6875" height="18"><div xmlns="http://www.w3.org/1999/xhtml" style="display: inline-block; white-space: nowrap;"><span class="nodeLabel">Continue workflow</span></div></foreignObject></g></g></g></g></g></svg>