<svg id="pdf_mermaid_hands_on_labs_lab_09_minimal_agent_loop_1" width="100%" xmlns="http://www.w3.org/2000/svg" style="max-width: 1380.796875px;" viewBox="-8 -8 1380.796875 1137.90625" role="graphics-document document" aria-roledescription="flowchart-v2"><style>#pdf_mermaid_hands_on_labs_lab_09_minimal_agent_loop_1{font-family:Inter,system-ui,sans-serif;font-size:16px;fill:#173f4f;}#pdf_mermaid_hands_on_labs_lab_09_minimal_agent_loop_1 .error-icon{fill:#fffaf0;}#pdf_mermaid_hands_on_labs_lab_09_minimal_agent_loop_1 .error-text{fill:#00050f;stroke:#00050f;}#pdf_mermaid_hands_on_labs_lab_09_minimal_agent_loop_1 .edge-thickness-normal{stroke-width:2px;}#pdf_mermaid_hands_on_labs_lab_09_minimal_agent_loop_1 .edge-thickness-thick{stroke-width:3.5px;}#pdf_mermaid_hands_on_labs_lab_09_minimal_agent_loop_1 .edge-pattern-solid{stroke-dasharray:0;}#pdf_mermaid_hands_on_labs_lab_09_minimal_agent_loop_1 .edge-pattern-dashed{stroke-dasharray:3;}#pdf_mermaid_hands_on_labs_lab_09_minimal_agent_loop_1 .edge-pattern-dotted{stroke-dasharray:2;}#pdf_mermaid_hands_on_labs_lab_09_minimal_agent_loop_1 .marker{fill:#527887;stroke:#527887;}#pdf_mermaid_hands_on_labs_lab_09_minimal_agent_loop_1 .marker.cross{stroke:#527887;}#pdf_mermaid_hands_on_labs_lab_09_minimal_agent_loop_1 svg{font-family:Inter,system-ui,sans-serif;font-size:16px;}#pdf_mermaid_hands_on_labs_lab_09_minimal_agent_loop_1 .label{font-family:Inter,system-ui,sans-serif;color:#173f4f;}#pdf_mermaid_hands_on_labs_lab_09_minimal_agent_loop_1 .cluster-label text{fill:#00050f;}#pdf_mermaid_hands_on_labs_lab_09_minimal_agent_loop_1 .cluster-label span,#pdf_mermaid_hands_on_labs_lab_09_minimal_agent_loop_1 p{color:#00050f;}#pdf_mermaid_hands_on_labs_lab_09_minimal_agent_loop_1 .label text,#pdf_mermaid_hands_on_labs_lab_09_minimal_agent_loop_1 span,#pdf_mermaid_hands_on_labs_lab_09_minimal_agent_loop_1 p{fill:#173f4f;color:#173f4f;}#pdf_mermaid_hands_on_labs_lab_09_minimal_agent_loop_1 .node rect,#pdf_mermaid_hands_on_labs_lab_09_minimal_agent_loop_1 .node circle,#pdf_mermaid_hands_on_labs_lab_09_minimal_agent_loop_1 .node ellipse,#pdf_mermaid_hands_on_labs_lab_09_minimal_agent_loop_1 .node polygon,#pdf_mermaid_hands_on_labs_lab_09_minimal_agent_loop_1 .node path{fill:#f6efe2;stroke:#c7a76a;stroke-width:1px;}#pdf_mermaid_hands_on_labs_lab_09_minimal_agent_loop_1 .flowchart-label text{text-anchor:middle;}#pdf_mermaid_hands_on_labs_lab_09_minimal_agent_loop_1 .node .katex path{fill:#000;stroke:#000;stroke-width:1px;}#pdf_mermaid_hands_on_labs_lab_09_minimal_agent_loop_1 .node .label{text-align:center;}#pdf_mermaid_hands_on_labs_lab_09_minimal_agent_loop_1 .node.clickable{cursor:pointer;}#pdf_mermaid_hands_on_labs_lab_09_minimal_agent_loop_1 .arrowheadPath{fill:#0b0b0b;}#pdf_mermaid_hands_on_labs_lab_09_minimal_agent_loop_1 .edgePath .path{stroke:#527887;stroke-width:2.0px;}#pdf_mermaid_hands_on_labs_lab_09_minimal_agent_loop_1 .flowchart-link{stroke:#527887;fill:none;}#pdf_mermaid_hands_on_labs_lab_09_minimal_agent_loop_1 .edgeLabel{background-color:#e8f0ed;text-align:center;}#pdf_mermaid_hands_on_labs_lab_09_minimal_agent_loop_1 .edgeLabel rect{opacity:0.5;background-color:#e8f0ed;fill:#e8f0ed;}#pdf_mermaid_hands_on_labs_lab_09_minimal_agent_loop_1 .labelBkg{background-color:rgba(232, 240, 237, 0.5);}#pdf_mermaid_hands_on_labs_lab_09_minimal_agent_loop_1 .cluster rect{fill:#fffaf0;stroke:hsl(40, 60%, 87.0588235294%);stroke-width:1px;}#pdf_mermaid_hands_on_labs_lab_09_minimal_agent_loop_1 .cluster text{fill:#00050f;}#pdf_mermaid_hands_on_labs_lab_09_minimal_agent_loop_1 .cluster span,#pdf_mermaid_hands_on_labs_lab_09_minimal_agent_loop_1 p{color:#00050f;}#pdf_mermaid_hands_on_labs_lab_09_minimal_agent_loop_1 div.mermaidTooltip{position:absolute;text-align:center;max-width:200px;padding:2px;font-family:Inter,system-ui,sans-serif;font-size:12px;background:#fffaf0;border:1px solid hsl(40, 60%, 87.0588235294%);border-radius:2px;pointer-events:none;z-index:100;}#pdf_mermaid_hands_on_labs_lab_09_minimal_agent_loop_1 .flowchartTitleText{text-anchor:middle;font-size:18px;fill:#173f4f;}#pdf_mermaid_hands_on_labs_lab_09_minimal_agent_loop_1 :root{--mermaid-font-family:"trebuchet ms",verdana,arial,sans-serif;}</style><g><marker id="pdf_mermaid_hands_on_labs_lab_09_minimal_agent_loop_1_flowchart-pointEnd" class="marker flowchart" viewBox="0 0 10 10" refX="6" refY="5" markerUnits="userSpaceOnUse" markerWidth="12" markerHeight="12" orient="auto"><path d="M 0 0 L 10 5 L 0 10 z" class="arrowMarkerPath" style="stroke-width: 1; stroke-dasharray: 1, 0;"></path></marker><marker id="pdf_mermaid_hands_on_labs_lab_09_minimal_agent_loop_1_flowchart-pointStart" class="marker flowchart" viewBox="0 0 10 10" refX="4.5" refY="5" markerUnits="userSpaceOnUse" markerWidth="12" markerHeight="12" orient="auto"><path d="M 0 5 L 10 10 L 10 0 z" class="arrowMarkerPath" style="stroke-width: 1; stroke-dasharray: 1, 0;"></path></marker><marker id="pdf_mermaid_hands_on_labs_lab_09_minimal_agent_loop_1_flowchart-circleEnd" class="marker flowchart" viewBox="0 0 10 10" refX="11" refY="5" markerUnits="userSpaceOnUse" markerWidth="11" markerHeight="11" orient="auto"><circle cx="5" cy="5" r="5" class="arrowMarkerPath" style="stroke-width: 1; stroke-dasharray: 1, 0;"></circle></marker><marker id="pdf_mermaid_hands_on_labs_lab_09_minimal_agent_loop_1_flowchart-circleStart" class="marker flowchart" viewBox="0 0 10 10" refX="-1" refY="5" markerUnits="userSpaceOnUse" markerWidth="11" markerHeight="11" orient="auto"><circle cx="5" cy="5" r="5" class="arrowMarkerPath" style="stroke-width: 1; stroke-dasharray: 1, 0;"></circle></marker><marker id="pdf_mermaid_hands_on_labs_lab_09_minimal_agent_loop_1_flowchart-crossEnd" class="marker cross flowchart" viewBox="0 0 11 11" refX="12" refY="5.2" markerUnits="userSpaceOnUse" markerWidth="11" markerHeight="11" orient="auto"><path d="M 1,1 l 9,9 M 10,1 l -9,9" class="arrowMarkerPath" style="stroke-width: 2; stroke-dasharray: 1, 0;"></path></marker><marker id="pdf_mermaid_hands_on_labs_lab_09_minimal_agent_loop_1_flowchart-crossStart" class="marker cross flowchart" viewBox="0 0 11 11" refX="-1" refY="5.2" markerUnits="userSpaceOnUse" markerWidth="11" markerHeight="11" orient="auto"><path d="M 1,1 l 9,9 M 10,1 l -9,9" class="arrowMarkerPath" style="stroke-width: 2; stroke-dasharray: 1, 0;"></path></marker><g class="root"><g class="clusters"></g><g class="edgePaths"><path d="M793.965,33L793.965,37.167C793.965,41.333,793.965,49.667,793.965,57.117C793.965,64.567,793.965,71.133,793.965,74.417L793.965,77.7" id="L-A-B-0" class="edge-thickness-normal edge-pattern-solid flowchart-link LS-A LE-B" style="fill:none;" marker-end="url(#pdf_mermaid_hands_on_labs_lab_09_minimal_agent_loop_1_flowchart-pointEnd)"></path><path d="M712.613,109.513L669.977,114.761C627.34,120.009,542.066,130.504,499.43,139.035C456.793,147.567,456.793,154.133,456.793,157.417L456.793,160.7" id="L-B-C-0" class="edge-thickness-normal edge-pattern-solid flowchart-link LS-B LE-C" style="fill:none;" marker-end="url(#pdf_mermaid_hands_on_labs_lab_09_minimal_agent_loop_1_flowchart-pointEnd)"></path><path d="M456.793,199L456.793,203.167C456.793,207.333,456.793,215.667,456.793,223.117C456.793,230.567,456.793,237.133,456.793,240.417L456.793,243.7" id="L-C-D-0" class="edge-thickness-normal edge-pattern-solid flowchart-link LS-C LE-D" style="fill:none;" marker-end="url(#pdf_mermaid_hands_on_labs_lab_09_minimal_agent_loop_1_flowchart-pointEnd)"></path><path d="M456.793,282L456.793,286.167C456.793,290.333,456.793,298.667,456.859,306.2C456.925,313.734,457.057,320.467,457.123,323.834L457.189,327.201" id="L-D-E-0" class="edge-thickness-normal edge-pattern-solid flowchart-link LS-D LE-E" style="fill:none;" marker-end="url(#pdf_mermaid_hands_on_labs_lab_09_minimal_agent_loop_1_flowchart-pointEnd)"></path><path d="M400.542,420.781L346.012,435.822C291.481,450.864,182.42,480.948,127.89,504.406C73.359,527.865,73.359,544.698,73.359,561.531C73.359,578.365,73.359,595.198,73.359,612.031C73.359,628.865,73.359,645.698,73.359,662.531C73.359,679.365,73.359,696.198,73.359,726.188C73.359,756.177,73.359,799.323,73.359,842.469C73.359,885.615,73.359,928.76,73.359,955.117C73.359,981.473,73.359,991.04,73.359,995.823L73.359,1000.606" id="L-E-F-0" class="edge-thickness-normal edge-pattern-solid flowchart-link LS-E LE-F" style="fill:none;" marker-end="url(#pdf_mermaid_hands_on_labs_lab_09_minimal_agent_loop_1_flowchart-pointEnd)"></path><path d="M413.892,434.13L394.578,446.947C375.264,459.764,336.636,485.397,317.322,506.631C298.008,527.865,298.008,544.698,298.008,561.531C298.008,578.365,298.008,595.198,298.008,612.031C298.008,628.865,298.008,645.698,298.008,662.531C298.008,679.365,298.008,696.198,298.008,726.188C298.008,756.177,298.008,799.323,298.008,842.469C298.008,885.615,298.008,928.76,298.008,955.117C298.008,981.473,298.008,991.04,298.008,995.823L298.008,1000.606" id="L-E-G-0" class="edge-thickness-normal edge-pattern-solid flowchart-link LS-E LE-G" style="fill:none;" marker-end="url(#pdf_mermaid_hands_on_labs_lab_09_minimal_agent_loop_1_flowchart-pointEnd)"></path><path d="M500.694,434.13L519.842,446.947C538.989,459.764,577.284,485.397,596.431,506.631C615.578,527.865,615.578,544.698,615.578,561.531C615.578,578.365,615.578,595.198,615.578,612.031C615.578,628.865,615.578,645.698,615.578,662.531C615.578,679.365,615.578,696.198,615.578,726.188C615.578,756.177,615.578,799.323,615.578,842.469C615.578,885.615,615.578,928.76,615.578,955.117C615.578,981.473,615.578,991.04,615.578,995.823L615.578,1000.606" id="L-E-H-0" class="edge-thickness-normal edge-pattern-solid flowchart-link LS-E LE-H" style="fill:none;" marker-end="url(#pdf_mermaid_hands_on_labs_lab_09_minimal_agent_loop_1_flowchart-pointEnd)"></path><path d="M518.448,416.376L603.738,432.152C689.028,447.928,859.608,479.48,944.898,500.039C1030.188,520.598,1030.188,530.165,1030.188,534.948L1030.188,539.731" id="L-E-I-0" class="edge-thickness-normal edge-pattern-solid flowchart-link LS-E LE-I" style="fill:none;" marker-end="url(#pdf_mermaid_hands_on_labs_lab_09_minimal_agent_loop_1_flowchart-pointEnd)"></path><path d="M1074.817,578.031L1090.144,583.698C1105.472,589.365,1136.127,600.698,1151.454,611.148C1166.781,621.598,1166.781,631.165,1166.781,635.948L1166.781,640.731" id="L-I-J-0" class="edge-thickness-normal edge-pattern-solid flowchart-link LS-I LE-J" style="fill:none;" marker-end="url(#pdf_mermaid_hands_on_labs_lab_09_minimal_agent_loop_1_flowchart-pointEnd)"></path><path d="M1001.9,578.031L992.185,583.698C982.47,589.365,963.039,600.698,953.324,614.781C943.609,628.865,943.609,645.698,943.609,662.531C943.609,679.365,943.609,696.198,943.609,726.188C943.609,756.177,943.609,799.323,943.609,842.469C943.609,885.615,943.609,928.76,943.609,955.117C943.609,981.473,943.609,991.04,943.609,995.823L943.609,1000.606" id="L-I-K-0" class="edge-thickness-normal edge-pattern-solid flowchart-link LS-I LE-K" style="fill:none;" marker-end="url(#pdf_mermaid_hands_on_labs_lab_09_minimal_agent_loop_1_flowchart-pointEnd)"></path><path d="M1166.781,679.031L1166.781,684.698C1166.781,690.365,1166.781,701.698,1174.427,718.756C1182.072,735.815,1197.364,758.598,1205.009,769.99L1212.655,781.381" id="L-J-L-0" class="edge-thickness-normal edge-pattern-solid flowchart-link LS-J LE-L" style="fill:none;" marker-end="url(#pdf_mermaid_hands_on_labs_lab_09_minimal_agent_loop_1_flowchart-pointEnd)"></path><path d="M1292.11,785.782L1300.082,773.657C1308.053,761.532,1323.995,737.282,1331.966,716.74C1339.938,696.198,1339.938,679.365,1339.938,662.531C1339.938,645.698,1339.938,628.865,1339.938,612.031C1339.938,595.198,1339.938,578.365,1339.938,561.531C1339.938,544.698,1339.938,527.865,1339.938,501.695C1339.938,475.526,1339.938,440.021,1339.938,406.016C1339.938,372.01,1339.938,339.505,1339.938,316.336C1339.938,293.167,1339.938,279.333,1339.938,265.5C1339.938,251.667,1339.938,237.833,1339.938,224C1339.938,210.167,1339.938,196.333,1339.938,182.5C1339.938,168.667,1339.938,154.833,1263.381,142.098C1186.825,129.362,1033.713,117.724,957.157,111.904L880.601,106.085" id="L-L-B-0" class="edge-thickness-normal edge-pattern-solid flowchart-link LS-L LE-B" style="fill:none;" marker-end="url(#pdf_mermaid_hands_on_labs_lab_09_minimal_agent_loop_1_flowchart-pointEnd)"></path><path d="M1253.859,938.406L1253.776,943.99C1253.693,949.573,1253.526,960.74,1253.443,971.106C1253.359,981.473,1253.359,991.04,1253.359,995.823L1253.359,1000.606" id="L-L-M-0" class="edge-thickness-normal edge-pattern-solid flowchart-link LS-L LE-M" style="fill:none;" marker-end="url(#pdf_mermaid_hands_on_labs_lab_09_minimal_agent_loop_1_flowchart-pointEnd)"></path><path d="M73.359,1038.906L73.359,1043.073C73.359,1047.24,73.359,1055.573,150.32,1065.63C227.28,1075.687,381.201,1087.468,458.161,1093.358L535.122,1099.248" id="L-F-N-0" class="edge-thickness-normal edge-pattern-solid flowchart-link LS-F LE-N" style="fill:none;" marker-end="url(#pdf_mermaid_hands_on_labs_lab_09_minimal_agent_loop_1_flowchart-pointEnd)"></path><path d="M298.008,1038.906L298.008,1043.073C298.008,1047.24,298.008,1055.573,337.532,1064.905C377.056,1074.236,456.103,1084.566,495.627,1089.731L535.151,1094.896" id="L-G-N-0" class="edge-thickness-normal edge-pattern-solid flowchart-link LS-G LE-N" style="fill:none;" marker-end="url(#pdf_mermaid_hands_on_labs_lab_09_minimal_agent_loop_1_flowchart-pointEnd)"></path><path d="M615.578,1038.906L615.578,1043.073C615.578,1047.24,615.578,1055.573,615.578,1063.023C615.578,1070.473,615.578,1077.04,615.578,1080.323L615.578,1083.606" id="L-H-N-0" class="edge-thickness-normal edge-pattern-solid flowchart-link LS-H LE-N" style="fill:none;" marker-end="url(#pdf_mermaid_hands_on_labs_lab_09_minimal_agent_loop_1_flowchart-pointEnd)"></path><path d="M943.609,1038.906L943.609,1043.073C943.609,1047.24,943.609,1055.573,902.342,1064.96C861.076,1074.348,778.542,1084.789,737.275,1090.01L696.008,1095.231" id="L-K-N-0" class="edge-thickness-normal edge-pattern-solid flowchart-link LS-K LE-N" style="fill:none;" marker-end="url(#pdf_mermaid_hands_on_labs_lab_09_minimal_agent_loop_1_flowchart-pointEnd)"></path><path d="M1253.359,1038.906L1253.359,1043.073C1253.359,1047.24,1253.359,1055.573,1160.473,1065.784C1067.586,1075.994,881.812,1088.083,788.926,1094.127L696.039,1100.171" id="L-M-N-0" class="edge-thickness-normal edge-pattern-solid flowchart-link LS-M LE-N" style="fill:none;" marker-end="url(#pdf_mermaid_hands_on_labs_lab_09_minimal_agent_loop_1_flowchart-pointEnd)"></path></g><g class="edgeLabels"><g class="edgeLabel"><g class="label" transform="translate(0, 0)"><foreignObject width="0" height="0"><div xmlns="http://www.w3.org/1999/xhtml" style="display: inline-block; white-space: nowrap;"><span class="edgeLabel"></span></div></foreignObject></g></g><g class="edgeLabel"><g class="label" transform="translate(0, 0)"><foreignObject width="0" height="0"><div xmlns="http://www.w3.org/1999/xhtml" style="display: inline-block; white-space: nowrap;"><span class="edgeLabel"></span></div></foreignObject></g></g><g class="edgeLabel"><g class="label" transform="translate(0, 0)"><foreignObject width="0" height="0"><div xmlns="http://www.w3.org/1999/xhtml" style="display: inline-block; white-space: nowrap;"><span class="edgeLabel"></span></div></foreignObject></g></g><g class="edgeLabel"><g class="label" transform="translate(0, 0)"><foreignObject width="0" height="0"><div xmlns="http://www.w3.org/1999/xhtml" style="display: inline-block; white-space: nowrap;"><span class="edgeLabel"></span></div></foreignObject></g></g><g class="edgeLabel" transform="translate(73.359375, 662.53125)"><g class="label" transform="translate(-25.875, -9)"><foreignObject width="51.75" height="18"><div xmlns="http://www.w3.org/1999/xhtml" style="display: inline-block; white-space: nowrap;"><span class="edgeLabel">answer</span></div></foreignObject></g></g><g class="edgeLabel" transform="translate(298.0078125, 662.53125)"><g class="label" transform="translate(-15.984375, -9)"><foreignObject width="31.96875" height="18"><div xmlns="http://www.w3.org/1999/xhtml" style="display: inline-block; white-space: nowrap;"><span class="edgeLabel">stop</span></div></foreignObject></g></g><g class="edgeLabel" transform="translate(615.578125, 662.53125)"><g class="label" transform="translate(-41.625, -9)"><foreignObject width="83.25" height="18"><div xmlns="http://www.w3.org/1999/xhtml" style="display: inline-block; white-space: nowrap;"><span class="edgeLabel">ask_human</span></div></foreignObject></g></g><g class="edgeLabel" transform="translate(1030.1875, 511.03125)"><g class="label" transform="translate(-13.703125, -9)"><foreignObject width="27.40625" height="18"><div xmlns="http://www.w3.org/1999/xhtml" style="display: inline-block; white-space: nowrap;"><span class="edgeLabel">tool</span></div></foreignObject></g></g><g class="edgeLabel" transform="translate(1166.78125, 612.03125)"><g class="label" transform="translate(-27.4609375, -9)"><foreignObject width="54.921875" height="18"><div xmlns="http://www.w3.org/1999/xhtml" style="display: inline-block; white-space: nowrap;"><span class="edgeLabel">allowed</span></div></foreignObject></g></g><g class="edgeLabel" transform="translate(943.609375, 713.03125)"><g class="label" transform="translate(-24.6796875, -9)"><foreignObject width="49.359375" height="18"><div xmlns="http://www.w3.org/1999/xhtml" style="display: inline-block; white-space: nowrap;"><span class="edgeLabel">denied</span></div></foreignObject></g></g><g class="edgeLabel"><g class="label" transform="translate(0, 0)"><foreignObject width="0" height="0"><div xmlns="http://www.w3.org/1999/xhtml" style="display: inline-block; white-space: nowrap;"><span class="edgeLabel"></span></div></foreignObject></g></g><g class="edgeLabel" transform="translate(1339.9375, 404.515625)"><g class="label" transform="translate(-9.0859375, -9)"><foreignObject width="18.171875" height="18"><div xmlns="http://www.w3.org/1999/xhtml" style="display: inline-block; white-space: nowrap;"><span class="edgeLabel">no</span></div></foreignObject></g></g><g class="edgeLabel" transform="translate(1253.359375, 971.90625)"><g class="label" transform="translate(-12.4765625, -9)"><foreignObject width="24.953125" height="18"><div xmlns="http://www.w3.org/1999/xhtml" style="display: inline-block; white-space: nowrap;"><span class="edgeLabel">yes</span></div></foreignObject></g></g><g class="edgeLabel"><g class="label" transform="translate(0, 0)"><foreignObject width="0" height="0"><div xmlns="http://www.w3.org/1999/xhtml" style="display: inline-block; white-space: nowrap;"><span class="edgeLabel"></span></div></foreignObject></g></g><g class="edgeLabel"><g class="label" transform="translate(0, 0)"><foreignObject width="0" height="0"><div xmlns="http://www.w3.org/1999/xhtml" style="display: inline-block; white-space: nowrap;"><span class="edgeLabel"></span></div></foreignObject></g></g><g class="edgeLabel"><g class="label" transform="translate(0, 0)"><foreignObject width="0" height="0"><div xmlns="http://www.w3.org/1999/xhtml" style="display: inline-block; white-space: nowrap;"><span class="edgeLabel"></span></div></foreignObject></g></g><g class="edgeLabel"><g class="label" transform="translate(0, 0)"><foreignObject width="0" height="0"><div xmlns="http://www.w3.org/1999/xhtml" style="display: inline-block; white-space: nowrap;"><span class="edgeLabel"></span></div></foreignObject></g></g><g class="edgeLabel"><g class="label" transform="translate(0, 0)"><foreignObject width="0" height="0"><div xmlns="http://www.w3.org/1999/xhtml" style="display: inline-block; white-space: nowrap;"><span class="edgeLabel"></span></div></foreignObject></g></g></g><g class="nodes"><g class="node default default flowchart-label" id="flowchart-A-1021" data-node="true" data-id="A" transform="translate(793.96484375, 16.5)"><rect class="basic label-container" style="" rx="0" ry="0" x="-95.75" y="-16.5" width="191.5" height="33"></rect><g class="label" style="" transform="translate(-88.25, -9)"><rect></rect><foreignObject width="176.5" height="18"><div xmlns="http://www.w3.org/1999/xhtml" style="display: inline-block; white-space: nowrap;"><span class="nodeLabel">Start with goal and state</span></div></foreignObject></g></g><g class="node default default flowchart-label" id="flowchart-B-1022" data-node="true" data-id="B" transform="translate(793.96484375, 99.5)"><rect class="basic label-container" style="" rx="0" ry="0" x="-81.3515625" y="-16.5" width="162.703125" height="33"></rect><g class="label" style="" transform="translate(-73.8515625, -9)"><rect></rect><foreignObject width="147.703125" height="18"><div xmlns="http://www.w3.org/1999/xhtml" style="display: inline-block; white-space: nowrap;"><span class="nodeLabel">Build context packet</span></div></foreignObject></g></g><g class="node default default flowchart-label" id="flowchart-C-1024" data-node="true" data-id="C" transform="translate(456.79296875, 182.5)"><rect class="basic label-container" style="" rx="0" ry="0" x="-114.84375" y="-16.5" width="229.6875" height="33"></rect><g class="label" style="" transform="translate(-107.34375, -9)"><rect></rect><foreignObject width="214.6875" height="18"><div xmlns="http://www.w3.org/1999/xhtml" style="display: inline-block; white-space: nowrap;"><span class="nodeLabel">Ask decide for typed decision</span></div></foreignObject></g></g><g class="node default default flowchart-label" id="flowchart-D-1026" data-node="true" data-id="D" transform="translate(456.79296875, 265.5)"><rect class="basic label-container" style="" rx="0" ry="0" x="-110.359375" y="-16.5" width="220.71875" height="33"></rect><g class="label" style="" transform="translate(-102.859375, -9)"><rect></rect><foreignObject width="205.71875" height="18"><div xmlns="http://www.w3.org/1999/xhtml" style="display: inline-block; white-space: nowrap;"><span class="nodeLabel">Record decision observation</span></div></foreignObject></g></g><g class="node default default flowchart-label" id="flowchart-E-1028" data-node="true" data-id="E" transform="translate(456.79296875, 404.515625)"><polygon points="72.515625,0 145.03125,-72.515625 72.515625,-145.03125 0,-72.515625" class="label-container" transform="translate(-72.515625,72.515625)" style=""></polygon><g class="label" style="" transform="translate(-48.515625, -9)"><rect></rect><foreignObject width="97.03125" height="18"><div xmlns="http://www.w3.org/1999/xhtml" style="display: inline-block; white-space: nowrap;"><span class="nodeLabel">Decision kind</span></div></foreignObject></g></g><g class="node default default flowchart-label" id="flowchart-F-1030" data-node="true" data-id="F" transform="translate(73.359375, 1022.40625)"><rect class="basic label-container" style="" rx="0" ry="0" x="-73.359375" y="-16.5" width="146.71875" height="33"></rect><g class="label" style="" transform="translate(-65.859375, -9)"><rect></rect><foreignObject width="131.71875" height="18"><div xmlns="http://www.w3.org/1999/xhtml" style="display: inline-block; white-space: nowrap;"><span class="nodeLabel">Stop with success</span></div></foreignObject></g></g><g class="node default default flowchart-label" id="flowchart-G-1032" data-node="true" data-id="G" transform="translate(298.0078125, 1022.40625)"><rect class="basic label-container" style="" rx="0" ry="0" x="-101.2890625" y="-16.5" width="202.578125" height="33"></rect><g class="label" style="" transform="translate(-93.7890625, -9)"><rect></rect><foreignObject width="187.578125" height="18"><div xmlns="http://www.w3.org/1999/xhtml" style="display: inline-block; white-space: nowrap;"><span class="nodeLabel">Stop with supplied reason</span></div></foreignObject></g></g><g class="node default default flowchart-label" id="flowchart-H-1034" data-node="true" data-id="H" transform="translate(615.578125, 1022.40625)"><rect class="basic label-container" style="" rx="0" ry="0" x="-166.28125" y="-16.5" width="332.5625" height="33"></rect><g class="label" style="" transform="translate(-158.78125, -9)"><rect></rect><foreignObject width="317.5625" height="18"><div xmlns="http://www.w3.org/1999/xhtml" style="display: inline-block; white-space: nowrap;"><span class="nodeLabel">Stop with blocked or human-needed reason</span></div></foreignObject></g></g><g class="node default default flowchart-label" id="flowchart-I-1036" data-node="true" data-id="I" transform="translate(1030.1875, 561.53125)"><rect class="basic label-container" style="" rx="0" ry="0" x="-130.703125" y="-16.5" width="261.40625" height="33"></rect><g class="label" style="" transform="translate(-123.203125, -9)"><rect></rect><foreignObject width="246.40625" height="18"><div xmlns="http://www.w3.org/1999/xhtml" style="display: inline-block; white-space: nowrap;"><span class="nodeLabel">Check registry, policy, and budget</span></div></foreignObject></g></g><g class="node default default flowchart-label" id="flowchart-J-1038" data-node="true" data-id="J" transform="translate(1166.78125, 662.53125)"><rect class="basic label-container" style="" rx="0" ry="0" x="-138.15625" y="-16.5" width="276.3125" height="33"></rect><g class="label" style="" transform="translate(-130.65625, -9)"><rect></rect><foreignObject width="261.3125" height="18"><div xmlns="http://www.w3.org/1999/xhtml" style="display: inline-block; white-space: nowrap;"><span class="nodeLabel">Execute tool and record observation</span></div></foreignObject></g></g><g class="node default default flowchart-label" id="flowchart-K-1040" data-node="true" data-id="K" transform="translate(943.609375, 1022.40625)"><rect class="basic label-container" style="" rx="0" ry="0" x="-111.75" y="-16.5" width="223.5" height="33"></rect><g class="label" style="" transform="translate(-104.25, -9)"><rect></rect><foreignObject width="208.5" height="18"><div xmlns="http://www.w3.org/1999/xhtml" style="display: inline-block; white-space: nowrap;"><span class="nodeLabel">Stop with refused or blocked</span></div></foreignObject></g></g><g class="node default default flowchart-label" id="flowchart-L-1042" data-node="true" data-id="L" transform="translate(1253.359375, 842.46875)"><polygon points="95.4375,0 190.875,-95.4375 95.4375,-190.875 0,-95.4375" class="label-container" transform="translate(-95.4375,95.4375)" style=""></polygon><g class="label" style="" transform="translate(-71.4375, -9)"><rect></rect><foreignObject width="142.875" height="18"><div xmlns="http://www.w3.org/1999/xhtml" style="display: inline-block; white-space: nowrap;"><span class="nodeLabel">maxSteps reached?</span></div></foreignObject></g></g><g class="node default default flowchart-label" id="flowchart-M-1046" data-node="true" data-id="M" transform="translate(1253.359375, 1022.40625)"><rect class="basic label-container" style="" rx="0" ry="0" x="-111.4375" y="-16.5" width="222.875" height="33"></rect><g class="label" style="" transform="translate(-103.9375, -9)"><rect></rect><foreignObject width="207.875" height="18"><div xmlns="http://www.w3.org/1999/xhtml" style="display: inline-block; white-space: nowrap;"><span class="nodeLabel">Stop with budget_exhausted</span></div></foreignObject></g></g><g class="node default default flowchart-label" id="flowchart-N-1048" data-node="true" data-id="N" transform="translate(615.578125, 1105.40625)"><rect class="basic label-container" style="" rx="0" ry="0" x="-75.171875" y="-16.5" width="150.34375" height="33"></rect><g class="label" style="" transform="translate(-67.671875, -9)"><rect></rect><foreignObject width="135.34375" height="18"><div xmlns="http://www.w3.org/1999/xhtml" style="display: inline-block; white-space: nowrap;"><span class="nodeLabel">Run trajectory eval</span></div></foreignObject></g></g></g></g></g></svg>