<svg id="pdf_mermaid_5" width="100%" xmlns="http://www.w3.org/2000/svg" style="max-width: 1444.296875px;" viewBox="-8 -8 1444.296875 424.5" role="graphics-document document" aria-roledescription="flowchart-v2"><style>#pdf_mermaid_5{font-family:Inter,system-ui,sans-serif;font-size:16px;fill:#173f4f;}#pdf_mermaid_5 .error-icon{fill:#fffaf0;}#pdf_mermaid_5 .error-text{fill:#00050f;stroke:#00050f;}#pdf_mermaid_5 .edge-thickness-normal{stroke-width:2px;}#pdf_mermaid_5 .edge-thickness-thick{stroke-width:3.5px;}#pdf_mermaid_5 .edge-pattern-solid{stroke-dasharray:0;}#pdf_mermaid_5 .edge-pattern-dashed{stroke-dasharray:3;}#pdf_mermaid_5 .edge-pattern-dotted{stroke-dasharray:2;}#pdf_mermaid_5 .marker{fill:#527887;stroke:#527887;}#pdf_mermaid_5 .marker.cross{stroke:#527887;}#pdf_mermaid_5 svg{font-family:Inter,system-ui,sans-serif;font-size:16px;}#pdf_mermaid_5 .label{font-family:Inter,system-ui,sans-serif;color:#173f4f;}#pdf_mermaid_5 .cluster-label text{fill:#00050f;}#pdf_mermaid_5 .cluster-label span,#pdf_mermaid_5 p{color:#00050f;}#pdf_mermaid_5 .label text,#pdf_mermaid_5 span,#pdf_mermaid_5 p{fill:#173f4f;color:#173f4f;}#pdf_mermaid_5 .node rect,#pdf_mermaid_5 .node circle,#pdf_mermaid_5 .node ellipse,#pdf_mermaid_5 .node polygon,#pdf_mermaid_5 .node path{fill:#f6efe2;stroke:#c7a76a;stroke-width:1px;}#pdf_mermaid_5 .flowchart-label text{text-anchor:middle;}#pdf_mermaid_5 .node .katex path{fill:#000;stroke:#000;stroke-width:1px;}#pdf_mermaid_5 .node .label{text-align:center;}#pdf_mermaid_5 .node.clickable{cursor:pointer;}#pdf_mermaid_5 .arrowheadPath{fill:#0b0b0b;}#pdf_mermaid_5 .edgePath .path{stroke:#527887;stroke-width:2.0px;}#pdf_mermaid_5 .flowchart-link{stroke:#527887;fill:none;}#pdf_mermaid_5 .edgeLabel{background-color:#e8f0ed;text-align:center;}#pdf_mermaid_5 .edgeLabel rect{opacity:0.5;background-color:#e8f0ed;fill:#e8f0ed;}#pdf_mermaid_5 .labelBkg{background-color:rgba(232, 240, 237, 0.5);}#pdf_mermaid_5 .cluster rect{fill:#fffaf0;stroke:hsl(40, 60%, 87.0588235294%);stroke-width:1px;}#pdf_mermaid_5 .cluster text{fill:#00050f;}#pdf_mermaid_5 .cluster span,#pdf_mermaid_5 p{color:#00050f;}#pdf_mermaid_5 div.mermaidTooltip{position:absolute;text-align:center;max-width:200px;padding:2px;font-family:Inter,system-ui,sans-serif;font-size:12px;background:#fffaf0;border:1px solid hsl(40, 60%, 87.0588235294%);border-radius:2px;pointer-events:none;z-index:100;}#pdf_mermaid_5 .flowchartTitleText{text-anchor:middle;font-size:18px;fill:#173f4f;}#pdf_mermaid_5 :root{--mermaid-font-family:"trebuchet ms",verdana,arial,sans-serif;}</style><g><marker id="pdf_mermaid_5_flowchart-pointEnd" class="marker flowchart" viewBox="0 0 10 10" refX="6" refY="5" markerUnits="userSpaceOnUse" markerWidth="12" markerHeight="12" orient="auto"><path d="M 0 0 L 10 5 L 0 10 z" class="arrowMarkerPath" style="stroke-width: 1; stroke-dasharray: 1, 0;"></path></marker><marker id="pdf_mermaid_5_flowchart-pointStart" class="marker flowchart" viewBox="0 0 10 10" refX="4.5" refY="5" markerUnits="userSpaceOnUse" markerWidth="12" markerHeight="12" orient="auto"><path d="M 0 5 L 10 10 L 10 0 z" class="arrowMarkerPath" style="stroke-width: 1; stroke-dasharray: 1, 0;"></path></marker><marker id="pdf_mermaid_5_flowchart-circleEnd" class="marker flowchart" viewBox="0 0 10 10" refX="11" refY="5" markerUnits="userSpaceOnUse" markerWidth="11" markerHeight="11" orient="auto"><circle cx="5" cy="5" r="5" class="arrowMarkerPath" style="stroke-width: 1; stroke-dasharray: 1, 0;"></circle></marker><marker id="pdf_mermaid_5_flowchart-circleStart" class="marker flowchart" viewBox="0 0 10 10" refX="-1" refY="5" markerUnits="userSpaceOnUse" markerWidth="11" markerHeight="11" orient="auto"><circle cx="5" cy="5" r="5" class="arrowMarkerPath" style="stroke-width: 1; stroke-dasharray: 1, 0;"></circle></marker><marker id="pdf_mermaid_5_flowchart-crossEnd" class="marker cross flowchart" viewBox="0 0 11 11" refX="12" refY="5.2" markerUnits="userSpaceOnUse" markerWidth="11" markerHeight="11" orient="auto"><path d="M 1,1 l 9,9 M 10,1 l -9,9" class="arrowMarkerPath" style="stroke-width: 2; stroke-dasharray: 1, 0;"></path></marker><marker id="pdf_mermaid_5_flowchart-crossStart" class="marker cross flowchart" viewBox="0 0 11 11" refX="-1" refY="5.2" markerUnits="userSpaceOnUse" markerWidth="11" markerHeight="11" orient="auto"><path d="M 1,1 l 9,9 M 10,1 l -9,9" class="arrowMarkerPath" style="stroke-width: 2; stroke-dasharray: 1, 0;"></path></marker><g class="root"><g class="clusters"></g><g class="edgePaths"><path d="M112.531,136.777L116.698,136.777C120.865,136.777,129.198,136.777,136.648,136.777C144.098,136.777,150.665,136.777,153.948,136.777L157.231,136.777" id="L-U-C-0" class="edge-thickness-normal edge-pattern-solid flowchart-link LS-U LE-C" style="fill:none;" marker-end="url(#pdf_mermaid_5_flowchart-pointEnd)"></path><path d="M229.625,120.277L241.271,102.981C252.917,85.685,276.208,51.092,294.626,33.796C313.043,16.5,326.586,16.5,333.358,16.5L340.13,16.5" id="L-C-M-0" class="edge-thickness-normal edge-pattern-solid flowchart-link LS-C LE-M" style="fill:none;" marker-end="url(#pdf_mermaid_5_flowchart-pointEnd)"></path><path d="M478.086,16.5L485.741,16.5C493.396,16.5,508.706,16.5,520.773,16.5C532.84,16.5,541.665,16.5,546.077,16.5L550.489,16.5" id="L-M-P-0" class="edge-thickness-normal edge-pattern-solid flowchart-link LS-M LE-P" style="fill:none;" marker-end="url(#pdf_mermaid_5_flowchart-pointEnd)"></path><path d="M590.92,33L579.769,38.833C568.619,44.667,546.317,56.333,516.457,62.167C486.596,68,449.177,68,411.758,68C374.339,68,336.919,68,308.624,76.141C280.328,84.282,261.156,100.564,251.57,108.705L241.984,116.847" id="L-P-C-0" class="edge-thickness-normal edge-pattern-solid flowchart-link LS-P LE-C" style="fill:none;" marker-end="url(#pdf_mermaid_5_flowchart-pointEnd)"></path><path d="M224.583,153.277L237.069,187.231C249.556,221.185,274.528,289.092,296.991,323.046C319.455,357,339.409,357,349.387,357L359.364,357" id="L-C-S-0" class="edge-thickness-normal edge-pattern-solid flowchart-link LS-C LE-S" style="fill:none;" marker-end="url(#pdf_mermaid_5_flowchart-pointEnd)"></path><path d="M228.253,153.277L240.128,173.398C252.002,193.518,275.751,233.759,290.909,253.88C306.067,274,312.633,274,315.917,274L319.2,274" id="L-C-B-0" class="edge-thickness-normal edge-pattern-solid flowchart-link LS-C LE-B" style="fill:none;" marker-end="url(#pdf_mermaid_5_flowchart-pointEnd)"></path><path d="M243.159,153.277L252.549,159.564C261.939,165.852,280.72,178.426,297.775,184.713C314.83,191,330.159,191,337.824,191L345.489,191" id="L-C-R-0" class="edge-thickness-normal edge-pattern-solid flowchart-link LS-C LE-R" style="fill:none;" marker-end="url(#pdf_mermaid_5_flowchart-pointEnd)"></path><path d="M274.5,138.66L278.667,138.8C282.833,138.94,291.167,139.22,314.043,139.36C336.919,139.5,374.339,139.5,411.758,139.5C449.177,139.5,486.596,139.5,521.714,139.5C556.831,139.5,589.646,139.5,624.605,139.5C659.565,139.5,696.669,139.5,720.649,139.5C744.629,139.5,755.485,139.5,760.913,139.5L766.341,139.5" id="L-C-T-0" class="edge-thickness-normal edge-pattern-solid flowchart-link LS-C LE-T" style="fill:none;" marker-end="url(#pdf_mermaid_5_flowchart-pointEnd)"></path><path d="M245.91,120.277L254.842,114.898C263.774,109.518,281.637,98.759,309.278,93.38C336.919,88,374.339,88,411.758,88C449.177,88,486.596,88,521.714,88C556.831,88,589.646,88,624.605,88C659.565,88,696.669,88,734.561,88C772.453,88,811.133,88,847.668,88C884.203,88,918.594,88,960.52,88C1002.445,88,1051.906,88,1101.367,88C1150.828,88,1200.289,88,1239.05,104.371C1277.811,120.742,1305.872,153.484,1319.903,169.855L1333.933,186.226" id="L-C-O-0" class="edge-thickness-normal edge-pattern-solid flowchart-link LS-C LE-O" style="fill:none;" marker-end="url(#pdf_mermaid_5_flowchart-pointEnd)"></path><path d="M472.727,191L481.275,191C489.823,191,506.919,191,524.642,198.747C542.365,206.495,560.714,221.989,569.888,229.737L579.063,237.484" id="L-R-A-0" class="edge-thickness-normal edge-pattern-solid flowchart-link LS-R LE-A" style="fill:none;" marker-end="url(#pdf_mermaid_5_flowchart-pointEnd)"></path><path d="M499.016,274L503.182,274C507.349,274,515.682,274,523.216,274.066C530.749,274.132,537.483,274.264,540.85,274.33L544.217,274.396" id="L-B-A-0" class="edge-thickness-normal edge-pattern-solid flowchart-link LS-B LE-A" style="fill:none;" marker-end="url(#pdf_mermaid_5_flowchart-pointEnd)"></path><path d="M458.852,357L469.712,357C480.573,357,502.294,357,522.324,349.413C542.353,341.825,560.691,326.65,569.86,319.063L579.029,311.476" id="L-S-A-0" class="edge-thickness-normal edge-pattern-solid flowchart-link LS-S LE-A" style="fill:none;" marker-end="url(#pdf_mermaid_5_flowchart-pointEnd)"></path><path d="M672.258,298.648L682.51,303.628C692.763,308.608,713.268,318.568,742.861,323.548C772.453,328.527,811.133,328.527,847.668,328.527C884.203,328.527,918.594,328.527,939.072,328.527C959.551,328.527,966.118,328.527,969.401,328.527L972.684,328.527" id="L-A-D-0" class="edge-thickness-normal edge-pattern-solid flowchart-link LS-A LE-D" style="fill:none;" marker-end="url(#pdf_mermaid_5_flowchart-pointEnd)"></path><path d="M669.454,247.548L680.174,241.202C690.894,234.856,712.334,222.164,737.077,207.363C761.819,192.561,789.865,175.649,803.888,167.193L817.911,158.737" id="L-A-T-0" class="edge-thickness-normal edge-pattern-solid flowchart-link LS-A LE-T" style="fill:none;" marker-end="url(#pdf_mermaid_5_flowchart-pointEnd)"></path><path d="M927.984,139.5L932.151,139.5C936.318,139.5,944.651,139.5,953.518,139.5C962.384,139.5,971.784,139.5,976.484,139.5L981.184,139.5" id="L-T-E-0" class="edge-thickness-normal edge-pattern-solid flowchart-link LS-T LE-E" style="fill:none;" marker-end="url(#pdf_mermaid_5_flowchart-pointEnd)"></path><path d="M1216.25,139.5L1221.833,139.5C1227.417,139.5,1238.583,139.5,1256.23,147.471C1273.877,155.443,1298.004,171.385,1310.068,179.357L1322.131,187.328" id="L-E-O-0" class="edge-thickness-normal edge-pattern-solid flowchart-link LS-E LE-O" style="fill:none;" marker-end="url(#pdf_mermaid_5_flowchart-pointEnd)"></path><path d="M1224.75,328.527L1228.917,328.527C1233.083,328.527,1241.417,328.527,1259.681,311.659C1277.945,294.79,1306.14,261.054,1320.238,244.185L1334.335,227.317" id="L-D-O-0" class="edge-thickness-normal edge-pattern-solid flowchart-link LS-D LE-O" style="fill:none;" marker-end="url(#pdf_mermaid_5_flowchart-pointEnd)"></path><path d="M1343.2,223.25L1327.625,254.125C1312.05,285,1280.9,346.75,1240.595,377.625C1200.289,408.5,1150.828,408.5,1101.367,408.5C1051.906,408.5,1002.445,408.5,960.52,408.5C918.594,408.5,884.203,408.5,847.668,408.5C811.133,408.5,772.453,408.5,734.561,408.5C696.669,408.5,659.565,408.5,624.605,408.5C589.646,408.5,556.831,408.5,521.714,408.5C486.596,408.5,449.177,408.5,411.758,408.5C374.339,408.5,336.919,408.5,305.784,366.809C274.649,325.119,249.798,241.738,237.373,200.047L224.947,158.357" id="L-O-C-0" class="edge-thickness-normal edge-pattern-solid flowchart-link LS-O LE-C" style="fill:none;" marker-end="url(#pdf_mermaid_5_flowchart-pointEnd)"></path></g><g class="edgeLabels"><g class="edgeLabel"><g class="label" transform="translate(0, 0)"><foreignObject width="0" height="0"><div xmlns="http://www.w3.org/1999/xhtml" style="display: inline-block; white-space: nowrap;"><span class="edgeLabel"></span></div></foreignObject></g></g><g class="edgeLabel"><g class="label" transform="translate(0, 0)"><foreignObject width="0" height="0"><div xmlns="http://www.w3.org/1999/xhtml" style="display: inline-block; white-space: nowrap;"><span class="edgeLabel"></span></div></foreignObject></g></g><g class="edgeLabel"><g class="label" transform="translate(0, 0)"><foreignObject width="0" height="0"><div xmlns="http://www.w3.org/1999/xhtml" style="display: inline-block; white-space: nowrap;"><span class="edgeLabel"></span></div></foreignObject></g></g><g class="edgeLabel"><g class="label" transform="translate(0, 0)"><foreignObject width="0" height="0"><div xmlns="http://www.w3.org/1999/xhtml" style="display: inline-block; white-space: nowrap;"><span class="edgeLabel"></span></div></foreignObject></g></g><g class="edgeLabel"><g class="label" transform="translate(0, 0)"><foreignObject width="0" height="0"><div xmlns="http://www.w3.org/1999/xhtml" style="display: inline-block; white-space: nowrap;"><span class="edgeLabel"></span></div></foreignObject></g></g><g class="edgeLabel"><g class="label" transform="translate(0, 0)"><foreignObject width="0" height="0"><div xmlns="http://www.w3.org/1999/xhtml" style="display: inline-block; white-space: nowrap;"><span class="edgeLabel"></span></div></foreignObject></g></g><g class="edgeLabel"><g class="label" transform="translate(0, 0)"><foreignObject width="0" height="0"><div xmlns="http://www.w3.org/1999/xhtml" style="display: inline-block; white-space: nowrap;"><span class="edgeLabel"></span></div></foreignObject></g></g><g class="edgeLabel"><g class="label" transform="translate(0, 0)"><foreignObject width="0" height="0"><div xmlns="http://www.w3.org/1999/xhtml" style="display: inline-block; white-space: nowrap;"><span class="edgeLabel"></span></div></foreignObject></g></g><g class="edgeLabel"><g class="label" transform="translate(0, 0)"><foreignObject width="0" height="0"><div xmlns="http://www.w3.org/1999/xhtml" style="display: inline-block; white-space: nowrap;"><span class="edgeLabel"></span></div></foreignObject></g></g><g class="edgeLabel"><g class="label" transform="translate(0, 0)"><foreignObject width="0" height="0"><div xmlns="http://www.w3.org/1999/xhtml" style="display: inline-block; white-space: nowrap;"><span class="edgeLabel"></span></div></foreignObject></g></g><g class="edgeLabel"><g class="label" transform="translate(0, 0)"><foreignObject width="0" height="0"><div xmlns="http://www.w3.org/1999/xhtml" style="display: inline-block; white-space: nowrap;"><span class="edgeLabel"></span></div></foreignObject></g></g><g class="edgeLabel"><g class="label" transform="translate(0, 0)"><foreignObject width="0" height="0"><div xmlns="http://www.w3.org/1999/xhtml" style="display: inline-block; white-space: nowrap;"><span class="edgeLabel"></span></div></foreignObject></g></g><g class="edgeLabel" transform="translate(849.8125, 328.52734375)"><g class="label" transform="translate(-10.3515625, -9)"><foreignObject width="20.703125" height="18"><div xmlns="http://www.w3.org/1999/xhtml" style="display: inline-block; white-space: nowrap;"><span class="edgeLabel">No</span></div></foreignObject></g></g><g class="edgeLabel" transform="translate(733.7734375, 209.47265625)"><g class="label" transform="translate(-12.8671875, -9)"><foreignObject width="25.734375" height="18"><div xmlns="http://www.w3.org/1999/xhtml" style="display: inline-block; white-space: nowrap;"><span class="edgeLabel">Yes</span></div></foreignObject></g></g><g class="edgeLabel"><g class="label" transform="translate(0, 0)"><foreignObject width="0" height="0"><div xmlns="http://www.w3.org/1999/xhtml" style="display: inline-block; white-space: nowrap;"><span class="edgeLabel"></span></div></foreignObject></g></g><g class="edgeLabel"><g class="label" transform="translate(0, 0)"><foreignObject width="0" height="0"><div xmlns="http://www.w3.org/1999/xhtml" style="display: inline-block; white-space: nowrap;"><span class="edgeLabel"></span></div></foreignObject></g></g><g class="edgeLabel"><g class="label" transform="translate(0, 0)"><foreignObject width="0" height="0"><div xmlns="http://www.w3.org/1999/xhtml" style="display: inline-block; white-space: nowrap;"><span class="edgeLabel"></span></div></foreignObject></g></g><g class="edgeLabel"><g class="label" transform="translate(0, 0)"><foreignObject width="0" height="0"><div xmlns="http://www.w3.org/1999/xhtml" style="display: inline-block; white-space: nowrap;"><span class="edgeLabel"></span></div></foreignObject></g></g></g><g class="nodes"><g class="node default default flowchart-label" id="flowchart-U-66" data-node="true" data-id="U" transform="translate(56.265625, 136.77734375)"><rect class="basic label-container" style="" rx="0" ry="0" x="-56.265625" y="-16.5" width="112.53125" height="33"></rect><g class="label" style="" transform="translate(-48.765625, -9)"><rect></rect><foreignObject width="97.53125" height="18"><div xmlns="http://www.w3.org/1999/xhtml" style="display: inline-block; white-space: nowrap;"><span class="nodeLabel">User or event</span></div></foreignObject></g></g><g class="node default default flowchart-label" id="flowchart-C-67" data-node="true" data-id="C" transform="translate(218.515625, 136.77734375)"><rect class="basic label-container" style="" rx="0" ry="0" x="-55.984375" y="-16.5" width="111.96875" height="33"></rect><g class="label" style="" transform="translate(-48.484375, -9)"><rect></rect><foreignObject width="96.96875" height="18"><div xmlns="http://www.w3.org/1999/xhtml" style="display: inline-block; white-space: nowrap;"><span class="nodeLabel">Control plane</span></div></foreignObject></g></g><g class="node default default flowchart-label" id="flowchart-M-69" data-node="true" data-id="M" transform="translate(411.7578125, 16.5)"><rect class="basic label-container" style="" rx="0" ry="0" x="-66.328125" y="-16.5" width="132.65625" height="33"></rect><g class="label" style="" transform="translate(-58.828125, -9)"><rect></rect><foreignObject width="117.65625" height="18"><div xmlns="http://www.w3.org/1999/xhtml" style="display: inline-block; white-space: nowrap;"><span class="nodeLabel">Model judgment</span></div></foreignObject></g></g><g class="node default default flowchart-label" id="flowchart-P-71" data-node="true" data-id="P" transform="translate(622.4609375, 16.5)"><rect class="basic label-container" style="" rx="0" ry="0" x="-66.671875" y="-16.5" width="133.34375" height="33"></rect><g class="label" style="" transform="translate(-59.171875, -9)"><rect></rect><foreignObject width="118.34375" height="18"><div xmlns="http://www.w3.org/1999/xhtml" style="display: inline-block; white-space: nowrap;"><span class="nodeLabel">Proposed action</span></div></foreignObject></g></g><g class="node default default flowchart-label" id="flowchart-S-75" data-node="true" data-id="S" transform="translate(411.7578125, 357)"><rect class="basic label-container" style="" rx="0" ry="0" x="-47.09375" y="-16.5" width="94.1875" height="33"></rect><g class="label" style="" transform="translate(-39.59375, -9)"><rect></rect><foreignObject width="79.1875" height="18"><div xmlns="http://www.w3.org/1999/xhtml" style="display: inline-block; white-space: nowrap;"><span class="nodeLabel">State store</span></div></foreignObject></g></g><g class="node default default flowchart-label" id="flowchart-B-77" data-node="true" data-id="B" transform="translate(411.7578125, 274)"><rect class="basic label-container" style="" rx="0" ry="0" x="-87.2578125" y="-16.5" width="174.515625" height="33"></rect><g class="label" style="" transform="translate(-79.7578125, -9)"><rect></rect><foreignObject width="159.515625" height="18"><div xmlns="http://www.w3.org/1999/xhtml" style="display: inline-block; white-space: nowrap;"><span class="nodeLabel">Budget and stop rules</span></div></foreignObject></g></g><g class="node default default flowchart-label" id="flowchart-R-79" data-node="true" data-id="R" transform="translate(411.7578125, 191)"><rect class="basic label-container" style="" rx="0" ry="0" x="-60.96875" y="-16.5" width="121.9375" height="33"></rect><g class="label" style="" transform="translate(-53.46875, -9)"><rect></rect><foreignObject width="106.9375" height="18"><div xmlns="http://www.w3.org/1999/xhtml" style="display: inline-block; white-space: nowrap;"><span class="nodeLabel">Runtime policy</span></div></foreignObject></g></g><g class="node default default flowchart-label" id="flowchart-T-81" data-node="true" data-id="T" transform="translate(849.8125, 139.5)"><rect class="basic label-container" style="" rx="0" ry="0" x="-78.171875" y="-16.5" width="156.34375" height="33"></rect><g class="label" style="" transform="translate(-70.671875, -9)"><rect></rect><foreignObject width="141.34375" height="18"><div xmlns="http://www.w3.org/1999/xhtml" style="display: inline-block; white-space: nowrap;"><span class="nodeLabel">Typed tool gateway</span></div></foreignObject></g></g><g class="node default default flowchart-label" id="flowchart-O-83" data-node="true" data-id="O" transform="translate(1351.5234375, 206.75)"><rect class="basic label-container" style="" rx="0" ry="0" x="-76.7734375" y="-16.5" width="153.546875" height="33"></rect><g class="label" style="" transform="translate(-69.2734375, -9)"><rect></rect><foreignObject width="138.546875" height="18"><div xmlns="http://www.w3.org/1999/xhtml" style="display: inline-block; white-space: nowrap;"><span class="nodeLabel">Trace and audit log</span></div></foreignObject></g></g><g class="node default default flowchart-label" id="flowchart-A-85" data-node="true" data-id="A" transform="translate(622.4609375, 274)"><polygon points="73.4453125,0 146.890625,-73.4453125 73.4453125,-146.890625 0,-73.4453125" class="label-container" transform="translate(-73.4453125,73.4453125)" style=""></polygon><g class="label" style="" transform="translate(-49.4453125, -9)"><rect></rect><foreignObject width="98.890625" height="18"><div xmlns="http://www.w3.org/1999/xhtml" style="display: inline-block; white-space: nowrap;"><span class="nodeLabel">Allowed now?</span></div></foreignObject></g></g><g class="node default default flowchart-label" id="flowchart-D-91" data-node="true" data-id="D" transform="translate(1101.3671875, 328.52734375)"><rect class="basic label-container" style="" rx="0" ry="0" x="-123.3828125" y="-16.5" width="246.765625" height="33"></rect><g class="label" style="" transform="translate(-115.8828125, -9)"><rect></rect><foreignObject width="231.765625" height="18"><div xmlns="http://www.w3.org/1999/xhtml" style="display: inline-block; white-space: nowrap;"><span class="nodeLabel">Deny, pause, or ask for approval</span></div></foreignObject></g></g><g class="node default default flowchart-label" id="flowchart-E-95" data-node="true" data-id="E" transform="translate(1101.3671875, 139.5)"><rect class="basic label-container" style="" rx="0" ry="0" x="-114.8828125" y="-16.5" width="229.765625" height="33"></rect><g class="label" style="" transform="translate(-107.3828125, -9)"><rect></rect><foreignObject width="214.765625" height="18"><div xmlns="http://www.w3.org/1999/xhtml" style="display: inline-block; white-space: nowrap;"><span class="nodeLabel">External system or side effect</span></div></foreignObject></g></g></g></g></g></svg>