<svg id="pdf_mermaid_6" width="100%" xmlns="http://www.w3.org/2000/svg" style="max-width: 2260.328125px;" viewBox="-8 -8 2260.328125 351.65625" role="graphics-document document" aria-roledescription="flowchart-v2"><style>#pdf_mermaid_6{font-family:Inter,system-ui,sans-serif;font-size:16px;fill:#173f4f;}#pdf_mermaid_6 .error-icon{fill:#fffaf0;}#pdf_mermaid_6 .error-text{fill:#00050f;stroke:#00050f;}#pdf_mermaid_6 .edge-thickness-normal{stroke-width:2px;}#pdf_mermaid_6 .edge-thickness-thick{stroke-width:3.5px;}#pdf_mermaid_6 .edge-pattern-solid{stroke-dasharray:0;}#pdf_mermaid_6 .edge-pattern-dashed{stroke-dasharray:3;}#pdf_mermaid_6 .edge-pattern-dotted{stroke-dasharray:2;}#pdf_mermaid_6 .marker{fill:#527887;stroke:#527887;}#pdf_mermaid_6 .marker.cross{stroke:#527887;}#pdf_mermaid_6 svg{font-family:Inter,system-ui,sans-serif;font-size:16px;}#pdf_mermaid_6 .label{font-family:Inter,system-ui,sans-serif;color:#173f4f;}#pdf_mermaid_6 .cluster-label text{fill:#00050f;}#pdf_mermaid_6 .cluster-label span,#pdf_mermaid_6 p{color:#00050f;}#pdf_mermaid_6 .label text,#pdf_mermaid_6 span,#pdf_mermaid_6 p{fill:#173f4f;color:#173f4f;}#pdf_mermaid_6 .node rect,#pdf_mermaid_6 .node circle,#pdf_mermaid_6 .node ellipse,#pdf_mermaid_6 .node polygon,#pdf_mermaid_6 .node path{fill:#f6efe2;stroke:#c7a76a;stroke-width:1px;}#pdf_mermaid_6 .flowchart-label text{text-anchor:middle;}#pdf_mermaid_6 .node .katex path{fill:#000;stroke:#000;stroke-width:1px;}#pdf_mermaid_6 .node .label{text-align:center;}#pdf_mermaid_6 .node.clickable{cursor:pointer;}#pdf_mermaid_6 .arrowheadPath{fill:#0b0b0b;}#pdf_mermaid_6 .edgePath .path{stroke:#527887;stroke-width:2.0px;}#pdf_mermaid_6 .flowchart-link{stroke:#527887;fill:none;}#pdf_mermaid_6 .edgeLabel{background-color:#e8f0ed;text-align:center;}#pdf_mermaid_6 .edgeLabel rect{opacity:0.5;background-color:#e8f0ed;fill:#e8f0ed;}#pdf_mermaid_6 .labelBkg{background-color:rgba(232, 240, 237, 0.5);}#pdf_mermaid_6 .cluster rect{fill:#fffaf0;stroke:hsl(40, 60%, 87.0588235294%);stroke-width:1px;}#pdf_mermaid_6 .cluster text{fill:#00050f;}#pdf_mermaid_6 .cluster span,#pdf_mermaid_6 p{color:#00050f;}#pdf_mermaid_6 div.mermaidTooltip{position:absolute;text-align:center;max-width:200px;padding:2px;font-family:Inter,system-ui,sans-serif;font-size:12px;background:#fffaf0;border:1px solid hsl(40, 60%, 87.0588235294%);border-radius:2px;pointer-events:none;z-index:100;}#pdf_mermaid_6 .flowchartTitleText{text-anchor:middle;font-size:18px;fill:#173f4f;}#pdf_mermaid_6 :root{--mermaid-font-family:"trebuchet ms",verdana,arial,sans-serif;}</style><g><marker id="pdf_mermaid_6_flowchart-pointEnd" class="marker flowchart" viewBox="0 0 10 10" refX="6" refY="5" markerUnits="userSpaceOnUse" markerWidth="12" markerHeight="12" orient="auto"><path d="M 0 0 L 10 5 L 0 10 z" class="arrowMarkerPath" style="stroke-width: 1; stroke-dasharray: 1, 0;"></path></marker><marker id="pdf_mermaid_6_flowchart-pointStart" class="marker flowchart" viewBox="0 0 10 10" refX="4.5" refY="5" markerUnits="userSpaceOnUse" markerWidth="12" markerHeight="12" orient="auto"><path d="M 0 5 L 10 10 L 10 0 z" class="arrowMarkerPath" style="stroke-width: 1; stroke-dasharray: 1, 0;"></path></marker><marker id="pdf_mermaid_6_flowchart-circleEnd" class="marker flowchart" viewBox="0 0 10 10" refX="11" refY="5" markerUnits="userSpaceOnUse" markerWidth="11" markerHeight="11" orient="auto"><circle cx="5" cy="5" r="5" class="arrowMarkerPath" style="stroke-width: 1; stroke-dasharray: 1, 0;"></circle></marker><marker id="pdf_mermaid_6_flowchart-circleStart" class="marker flowchart" viewBox="0 0 10 10" refX="-1" refY="5" markerUnits="userSpaceOnUse" markerWidth="11" markerHeight="11" orient="auto"><circle cx="5" cy="5" r="5" class="arrowMarkerPath" style="stroke-width: 1; stroke-dasharray: 1, 0;"></circle></marker><marker id="pdf_mermaid_6_flowchart-crossEnd" class="marker cross flowchart" viewBox="0 0 11 11" refX="12" refY="5.2" markerUnits="userSpaceOnUse" markerWidth="11" markerHeight="11" orient="auto"><path d="M 1,1 l 9,9 M 10,1 l -9,9" class="arrowMarkerPath" style="stroke-width: 2; stroke-dasharray: 1, 0;"></path></marker><marker id="pdf_mermaid_6_flowchart-crossStart" class="marker cross flowchart" viewBox="0 0 11 11" refX="-1" refY="5.2" markerUnits="userSpaceOnUse" markerWidth="11" markerHeight="11" orient="auto"><path d="M 1,1 l 9,9 M 10,1 l -9,9" class="arrowMarkerPath" style="stroke-width: 2; stroke-dasharray: 1, 0;"></path></marker><g class="root"><g class="clusters"></g><g class="edgePaths"><path d="M95.965,230.328L109.687,218.607C123.409,206.885,150.853,183.443,167.942,171.787C185.031,160.132,191.764,160.264,195.131,160.33L198.498,160.396" id="L-W-S-0" class="edge-thickness-normal edge-pattern-solid flowchart-link LS-W LE-S" style="fill:none;" marker-end="url(#pdf_mermaid_6_flowchart-pointEnd)"></path><path d="M456.548,135.939L466.87,133.616C477.191,131.293,497.834,126.646,527.735,124.323C557.637,122,596.797,122,616.378,122L635.958,122" id="L-S-P-0" class="edge-thickness-normal edge-pattern-solid flowchart-link LS-S LE-P" style="fill:none;" marker-end="url(#pdf_mermaid_6_flowchart-pointEnd)"></path><path d="M460.495,181.115L470.158,182.734C479.822,184.353,499.149,187.59,535.174,207.347C571.199,227.103,623.922,263.377,650.283,281.515L676.644,299.652" id="L-S-R-0" class="edge-thickness-normal edge-pattern-solid flowchart-link LS-S LE-R" style="fill:none;" marker-end="url(#pdf_mermaid_6_flowchart-pointEnd)"></path><path d="M556.344,330.712L550.033,331.203C543.721,331.694,531.099,332.675,495.367,333.166C459.635,333.656,400.794,333.656,344.098,333.656C287.401,333.656,232.849,333.656,192.523,322.509C152.196,311.361,126.095,289.066,113.045,277.918L99.995,266.77" id="L-R-W-0" class="edge-thickness-normal edge-pattern-solid flowchart-link LS-R LE-W" style="fill:none;" marker-end="url(#pdf_mermaid_6_flowchart-pointEnd)"></path><path d="M732.15,105.5L756.565,90.667C780.981,75.833,829.811,46.167,857.89,31.333C885.97,16.5,893.3,16.5,896.965,16.5L900.63,16.5" id="L-P-A-0" class="edge-thickness-normal edge-pattern-solid flowchart-link LS-P LE-A" style="fill:none;" marker-end="url(#pdf_mermaid_6_flowchart-pointEnd)"></path><path d="M768.727,113.742L787.046,111.368C805.365,108.995,842.003,104.247,863.605,101.874C885.207,99.5,891.774,99.5,895.057,99.5L898.341,99.5" id="L-P-C-0" class="edge-thickness-normal edge-pattern-solid flowchart-link LS-P LE-C" style="fill:none;" marker-end="url(#pdf_mermaid_6_flowchart-pointEnd)"></path><path d="M752.351,138.5L773.399,145.833C794.447,153.167,836.544,167.833,865.61,175.167C894.676,182.5,910.711,182.5,918.729,182.5L926.747,182.5" id="L-P-E-0" class="edge-thickness-normal edge-pattern-solid flowchart-link LS-P LE-E" style="fill:none;" marker-end="url(#pdf_mermaid_6_flowchart-pointEnd)"></path><path d="M1099.57,16.5L1104.118,16.5C1108.667,16.5,1117.763,16.5,1129.188,16.5C1140.614,16.5,1154.368,16.5,1161.245,16.5L1168.122,16.5" id="L-A-B-0" class="edge-thickness-normal edge-pattern-solid flowchart-link LS-A LE-B" style="fill:none;" marker-end="url(#pdf_mermaid_6_flowchart-pointEnd)"></path><path d="M1101.859,99.5L1106.026,99.5C1110.193,99.5,1118.526,99.5,1125.976,99.5C1133.426,99.5,1139.993,99.5,1143.276,99.5L1146.559,99.5" id="L-C-G-0" class="edge-thickness-normal edge-pattern-solid flowchart-link LS-C LE-G" style="fill:none;" marker-end="url(#pdf_mermaid_6_flowchart-pointEnd)"></path><path d="M1073.453,182.5L1082.354,182.5C1091.255,182.5,1109.057,182.5,1131.436,182.5C1153.814,182.5,1180.769,182.5,1194.246,182.5L1207.723,182.5" id="L-E-V-0" class="edge-thickness-normal edge-pattern-solid flowchart-link LS-E LE-V" style="fill:none;" marker-end="url(#pdf_mermaid_6_flowchart-pointEnd)"></path><path d="M1532.328,16.5L1540.089,16.5C1547.849,16.5,1563.37,16.5,1580.777,23.783C1598.184,31.065,1617.478,45.631,1627.125,52.913L1636.771,60.196" id="L-B-Q-0" class="edge-thickness-normal edge-pattern-solid flowchart-link LS-B LE-Q" style="fill:none;" marker-end="url(#pdf_mermaid_6_flowchart-pointEnd)"></path><path d="M1553.891,99.5L1558.057,99.5C1562.224,99.5,1570.557,99.5,1578.091,99.566C1585.624,99.632,1592.358,99.764,1595.725,99.83L1599.092,99.896" id="L-G-Q-0" class="edge-thickness-normal edge-pattern-solid flowchart-link LS-G LE-Q" style="fill:none;" marker-end="url(#pdf_mermaid_6_flowchart-pointEnd)"></path><path d="M1492.727,182.5L1507.087,182.5C1521.448,182.5,1550.169,182.5,1574.171,175.377C1598.173,168.253,1617.456,154.007,1627.097,146.883L1636.739,139.76" id="L-V-Q-0" class="edge-thickness-normal edge-pattern-solid flowchart-link LS-V LE-Q" style="fill:none;" marker-end="url(#pdf_mermaid_6_flowchart-pointEnd)"></path><path d="M1763.463,88.604L1771.59,87.253C1779.717,85.902,1795.972,83.201,1829.14,81.851C1862.309,80.5,1912.391,80.5,1937.432,80.5L1962.473,80.5" id="L-Q-D-0" class="edge-thickness-normal edge-pattern-solid flowchart-link LS-Q LE-D" style="fill:none;" marker-end="url(#pdf_mermaid_6_flowchart-pointEnd)"></path><path d="M1737.899,136.96L1750.287,146.425C1762.675,155.89,1787.451,174.82,1827.398,191.336C1867.345,207.851,1922.463,221.952,1950.022,229.003L1977.582,236.054" id="L-Q-H-0" class="edge-thickness-normal edge-pattern-solid flowchart-link LS-Q LE-H" style="fill:none;" marker-end="url(#pdf_mermaid_6_flowchart-pointEnd)"></path><path d="M1850.094,266.031L1843.783,266.42C1837.471,266.809,1824.849,267.588,1798.021,267.978C1771.193,268.367,1730.159,268.367,1691.27,268.367C1652.38,268.367,1615.635,268.367,1559.594,268.367C1503.552,268.367,1428.214,268.367,1352.875,268.367C1277.536,268.367,1202.198,268.367,1143.844,268.367C1085.49,268.367,1044.12,268.367,1002.75,268.367C961.38,268.367,920.01,268.367,874.322,247.292C828.634,226.217,778.627,184.066,753.623,162.991L728.62,141.916" id="L-H-P-0" class="edge-thickness-normal edge-pattern-solid flowchart-link LS-H LE-P" style="fill:none;" marker-end="url(#pdf_mermaid_6_flowchart-pointEnd)"></path></g><g class="edgeLabels"><g class="edgeLabel"><g class="label" transform="translate(0, 0)"><foreignObject width="0" height="0"><div xmlns="http://www.w3.org/1999/xhtml" style="display: inline-block; white-space: nowrap;"><span class="edgeLabel"></span></div></foreignObject></g></g><g class="edgeLabel" transform="translate(518.4765625, 122)"><g class="label" transform="translate(-12.8671875, -9)"><foreignObject width="25.734375" height="18"><div xmlns="http://www.w3.org/1999/xhtml" style="display: inline-block; white-space: nowrap;"><span class="edgeLabel">Yes</span></div></foreignObject></g></g><g class="edgeLabel" transform="translate(518.4765625, 190.828125)"><g class="label" transform="translate(-10.3515625, -9)"><foreignObject width="20.703125" height="18"><div xmlns="http://www.w3.org/1999/xhtml" style="display: inline-block; white-space: nowrap;"><span class="edgeLabel">No</span></div></foreignObject></g></g><g class="edgeLabel"><g class="label" transform="translate(0, 0)"><foreignObject width="0" height="0"><div xmlns="http://www.w3.org/1999/xhtml" style="display: inline-block; white-space: nowrap;"><span class="edgeLabel"></span></div></foreignObject></g></g><g class="edgeLabel"><g class="label" transform="translate(0, 0)"><foreignObject width="0" height="0"><div xmlns="http://www.w3.org/1999/xhtml" style="display: inline-block; white-space: nowrap;"><span class="edgeLabel"></span></div></foreignObject></g></g><g class="edgeLabel"><g class="label" transform="translate(0, 0)"><foreignObject width="0" height="0"><div xmlns="http://www.w3.org/1999/xhtml" style="display: inline-block; white-space: nowrap;"><span class="edgeLabel"></span></div></foreignObject></g></g><g class="edgeLabel"><g class="label" transform="translate(0, 0)"><foreignObject width="0" height="0"><div xmlns="http://www.w3.org/1999/xhtml" style="display: inline-block; white-space: nowrap;"><span class="edgeLabel"></span></div></foreignObject></g></g><g class="edgeLabel"><g class="label" transform="translate(0, 0)"><foreignObject width="0" height="0"><div xmlns="http://www.w3.org/1999/xhtml" style="display: inline-block; white-space: nowrap;"><span class="edgeLabel"></span></div></foreignObject></g></g><g class="edgeLabel"><g class="label" transform="translate(0, 0)"><foreignObject width="0" height="0"><div xmlns="http://www.w3.org/1999/xhtml" style="display: inline-block; white-space: nowrap;"><span class="edgeLabel"></span></div></foreignObject></g></g><g class="edgeLabel"><g class="label" transform="translate(0, 0)"><foreignObject width="0" height="0"><div xmlns="http://www.w3.org/1999/xhtml" style="display: inline-block; white-space: nowrap;"><span class="edgeLabel"></span></div></foreignObject></g></g><g class="edgeLabel"><g class="label" transform="translate(0, 0)"><foreignObject width="0" height="0"><div xmlns="http://www.w3.org/1999/xhtml" style="display: inline-block; white-space: nowrap;"><span class="edgeLabel"></span></div></foreignObject></g></g><g class="edgeLabel"><g class="label" transform="translate(0, 0)"><foreignObject width="0" height="0"><div xmlns="http://www.w3.org/1999/xhtml" style="display: inline-block; white-space: nowrap;"><span class="edgeLabel"></span></div></foreignObject></g></g><g class="edgeLabel"><g class="label" transform="translate(0, 0)"><foreignObject width="0" height="0"><div xmlns="http://www.w3.org/1999/xhtml" style="display: inline-block; white-space: nowrap;"><span class="edgeLabel"></span></div></foreignObject></g></g><g class="edgeLabel" transform="translate(1812.2265625, 80.5)"><g class="label" transform="translate(-12.8671875, -9)"><foreignObject width="25.734375" height="18"><div xmlns="http://www.w3.org/1999/xhtml" style="display: inline-block; white-space: nowrap;"><span class="edgeLabel">Yes</span></div></foreignObject></g></g><g class="edgeLabel" transform="translate(1812.2265625, 193.75)"><g class="label" transform="translate(-10.3515625, -9)"><foreignObject width="20.703125" height="18"><div xmlns="http://www.w3.org/1999/xhtml" style="display: inline-block; white-space: nowrap;"><span class="edgeLabel">No</span></div></foreignObject></g></g><g class="edgeLabel"><g class="label" transform="translate(0, 0)"><foreignObject width="0" height="0"><div xmlns="http://www.w3.org/1999/xhtml" style="display: inline-block; white-space: nowrap;"><span class="edgeLabel"></span></div></foreignObject></g></g></g><g class="nodes"><g class="node default default flowchart-label" id="flowchart-W-102" data-node="true" data-id="W" transform="translate(76.6484375, 246.828125)"><rect class="basic label-container" style="" rx="0" ry="0" x="-76.6484375" y="-16.5" width="153.296875" height="33"></rect><g class="label" style="" transform="translate(-69.1484375, -9)"><rect></rect><foreignObject width="138.296875" height="18"><div xmlns="http://www.w3.org/1999/xhtml" style="display: inline-block; white-space: nowrap;"><span class="nodeLabel">Workload evidence</span></div></foreignObject></g></g><g class="node default default flowchart-label" id="flowchart-S-103" data-node="true" data-id="S" transform="translate(341.953125, 160)"><polygon points="138.65625,0 277.3125,-138.65625 138.65625,-277.3125 0,-138.65625" class="label-container" transform="translate(-138.65625,138.65625)" style=""></polygon><g class="label" style="" transform="translate(-114.65625, -9)"><rect></rect><foreignObject width="229.3125" height="18"><div xmlns="http://www.w3.org/1999/xhtml" style="display: inline-block; white-space: nowrap;"><span class="nodeLabel">Least agentic sufficient design?</span></div></foreignObject></g></g><g class="node default default flowchart-label" id="flowchart-P-105" data-node="true" data-id="P" transform="translate(704.9921875, 122)"><rect class="basic label-container" style="" rx="0" ry="0" x="-63.734375" y="-16.5" width="127.46875" height="33"></rect><g class="label" style="" transform="translate(-56.234375, -9)"><rect></rect><foreignObject width="112.46875" height="18"><div xmlns="http://www.w3.org/1999/xhtml" style="display: inline-block; white-space: nowrap;"><span class="nodeLabel">Primary pattern</span></div></foreignObject></g></g><g class="node default default flowchart-label" id="flowchart-R-107" data-node="true" data-id="R" transform="translate(704.9921875, 319.15625)"><rect class="basic label-container" style="" rx="0" ry="0" x="-148.6484375" y="-16.5" width="297.296875" height="33"></rect><g class="label" style="" transform="translate(-141.1484375, -9)"><rect></rect><foreignObject width="282.296875" height="18"><div xmlns="http://www.w3.org/1999/xhtml" style="display: inline-block; white-space: nowrap;"><span class="nodeLabel">Reduce autonomy or split the workload</span></div></foreignObject></g></g><g class="node default default flowchart-label" id="flowchart-A-111" data-node="true" data-id="A" transform="translate(1002.75, 16.5)"><rect class="basic label-container" style="" rx="0" ry="0" x="-96.8203125" y="-16.5" width="193.640625" height="33"></rect><g class="label" style="" transform="translate(-89.3203125, -9)"><rect></rect><foreignObject width="178.640625" height="18"><div xmlns="http://www.w3.org/1999/xhtml" style="display: inline-block; white-space: nowrap;"><span class="nodeLabel">Allowed model decisions</span></div></foreignObject></g></g><g class="node default default flowchart-label" id="flowchart-C-113" data-node="true" data-id="C" transform="translate(1002.75, 99.5)"><rect class="basic label-container" style="" rx="0" ry="0" x="-99.109375" y="-16.5" width="198.21875" height="33"></rect><g class="label" style="" transform="translate(-91.609375, -9)"><rect></rect><foreignObject width="183.21875" height="18"><div xmlns="http://www.w3.org/1999/xhtml" style="display: inline-block; white-space: nowrap;"><span class="nodeLabel">Software-owned controls</span></div></foreignObject></g></g><g class="node default default flowchart-label" id="flowchart-E-115" data-node="true" data-id="E" transform="translate(1002.75, 182.5)"><rect class="basic label-container" style="" rx="0" ry="0" x="-70.703125" y="-16.5" width="141.40625" height="33"></rect><g class="label" style="" transform="translate(-63.203125, -9)"><rect></rect><foreignObject width="126.40625" height="18"><div xmlns="http://www.w3.org/1999/xhtml" style="display: inline-block; white-space: nowrap;"><span class="nodeLabel">Release evidence</span></div></foreignObject></g></g><g class="node default default flowchart-label" id="flowchart-B-117" data-node="true" data-id="B" transform="translate(1352.875, 16.5)"><rect class="basic label-container" style="" rx="0" ry="0" x="-179.453125" y="-16.5" width="358.90625" height="33"></rect><g class="label" style="" transform="translate(-171.953125, -9)"><rect></rect><foreignObject width="343.90625" height="18"><div xmlns="http://www.w3.org/1999/xhtml" style="display: inline-block; white-space: nowrap;"><span class="nodeLabel">Tool choice, investigation, generation, or review</span></div></foreignObject></g></g><g class="node default default flowchart-label" id="flowchart-G-119" data-node="true" data-id="G" transform="translate(1352.875, 99.5)"><rect class="basic label-container" style="" rx="0" ry="0" x="-201.015625" y="-16.5" width="402.03125" height="33"></rect><g class="label" style="" transform="translate(-193.515625, -9)"><rect></rect><foreignObject width="387.03125" height="18"><div xmlns="http://www.w3.org/1999/xhtml" style="display: inline-block; white-space: nowrap;"><span class="nodeLabel">State, policy, approvals, budgets, and stop conditions</span></div></foreignObject></g></g><g class="node default default flowchart-label" id="flowchart-V-121" data-node="true" data-id="V" transform="translate(1352.875, 182.5)"><rect class="basic label-container" style="" rx="0" ry="0" x="-139.8515625" y="-16.5" width="279.703125" height="33"></rect><g class="label" style="" transform="translate(-132.3515625, -9)"><rect></rect><foreignObject width="264.703125" height="18"><div xmlns="http://www.w3.org/1999/xhtml" style="display: inline-block; white-space: nowrap;"><span class="nodeLabel">Evals, traces, rollback, and visual QA</span></div></foreignObject></g></g><g class="node default default flowchart-label" id="flowchart-Q-123" data-node="true" data-id="Q" transform="translate(1689.125, 99.5)"><polygon points="85.234375,0 170.46875,-85.234375 85.234375,-170.46875 0,-85.234375" class="label-container" transform="translate(-85.234375,85.234375)" style=""></polygon><g class="label" style="" transform="translate(-61.234375, -9)"><rect></rect><foreignObject width="122.46875" height="18"><div xmlns="http://www.w3.org/1999/xhtml" style="display: inline-block; white-space: nowrap;"><span class="nodeLabel">Risk acceptable?</span></div></foreignObject></g></g><g class="node default default flowchart-label" id="flowchart-D-129" data-node="true" data-id="D" transform="translate(2047.2109375, 80.5)"><rect class="basic label-container" style="" rx="0" ry="0" x="-79.4375" y="-16.5" width="158.875" height="33"></rect><g class="label" style="" transform="translate(-71.9375, -9)"><rect></rect><foreignObject width="143.875" height="18"><div xmlns="http://www.w3.org/1999/xhtml" style="display: inline-block; white-space: nowrap;"><span class="nodeLabel">Record the decision</span></div></foreignObject></g></g><g class="node default default flowchart-label" id="flowchart-H-131" data-node="true" data-id="H" transform="translate(2047.2109375, 253.8671875)"><rect class="basic label-container" style="" rx="0" ry="0" x="-197.1171875" y="-16.5" width="394.234375" height="33"></rect><g class="label" style="" transform="translate(-189.6171875, -9)"><rect></rect><foreignObject width="379.234375" height="18"><div xmlns="http://www.w3.org/1999/xhtml" style="display: inline-block; white-space: nowrap;"><span class="nodeLabel">Add gates, narrow tools, or lower the autonomy level</span></div></foreignObject></g></g></g></g></g></svg>