<svg id="pdf_mermaid_39" width="100%" xmlns="http://www.w3.org/2000/svg" style="max-width: 2466.53125px;" viewBox="-8 -8 2466.53125 584.58984375" role="graphics-document document" aria-roledescription="flowchart-v2"><style>#pdf_mermaid_39{font-family:Inter,system-ui,sans-serif;font-size:16px;fill:#173f4f;}#pdf_mermaid_39 .error-icon{fill:#fffaf0;}#pdf_mermaid_39 .error-text{fill:#00050f;stroke:#00050f;}#pdf_mermaid_39 .edge-thickness-normal{stroke-width:2px;}#pdf_mermaid_39 .edge-thickness-thick{stroke-width:3.5px;}#pdf_mermaid_39 .edge-pattern-solid{stroke-dasharray:0;}#pdf_mermaid_39 .edge-pattern-dashed{stroke-dasharray:3;}#pdf_mermaid_39 .edge-pattern-dotted{stroke-dasharray:2;}#pdf_mermaid_39 .marker{fill:#527887;stroke:#527887;}#pdf_mermaid_39 .marker.cross{stroke:#527887;}#pdf_mermaid_39 svg{font-family:Inter,system-ui,sans-serif;font-size:16px;}#pdf_mermaid_39 .label{font-family:Inter,system-ui,sans-serif;color:#173f4f;}#pdf_mermaid_39 .cluster-label text{fill:#00050f;}#pdf_mermaid_39 .cluster-label span,#pdf_mermaid_39 p{color:#00050f;}#pdf_mermaid_39 .label text,#pdf_mermaid_39 span,#pdf_mermaid_39 p{fill:#173f4f;color:#173f4f;}#pdf_mermaid_39 .node rect,#pdf_mermaid_39 .node circle,#pdf_mermaid_39 .node ellipse,#pdf_mermaid_39 .node polygon,#pdf_mermaid_39 .node path{fill:#f6efe2;stroke:#c7a76a;stroke-width:1px;}#pdf_mermaid_39 .flowchart-label text{text-anchor:middle;}#pdf_mermaid_39 .node .katex path{fill:#000;stroke:#000;stroke-width:1px;}#pdf_mermaid_39 .node .label{text-align:center;}#pdf_mermaid_39 .node.clickable{cursor:pointer;}#pdf_mermaid_39 .arrowheadPath{fill:#0b0b0b;}#pdf_mermaid_39 .edgePath .path{stroke:#527887;stroke-width:2.0px;}#pdf_mermaid_39 .flowchart-link{stroke:#527887;fill:none;}#pdf_mermaid_39 .edgeLabel{background-color:#e8f0ed;text-align:center;}#pdf_mermaid_39 .edgeLabel rect{opacity:0.5;background-color:#e8f0ed;fill:#e8f0ed;}#pdf_mermaid_39 .labelBkg{background-color:rgba(232, 240, 237, 0.5);}#pdf_mermaid_39 .cluster rect{fill:#fffaf0;stroke:hsl(40, 60%, 87.0588235294%);stroke-width:1px;}#pdf_mermaid_39 .cluster text{fill:#00050f;}#pdf_mermaid_39 .cluster span,#pdf_mermaid_39 p{color:#00050f;}#pdf_mermaid_39 div.mermaidTooltip{position:absolute;text-align:center;max-width:200px;padding:2px;font-family:Inter,system-ui,sans-serif;font-size:12px;background:#fffaf0;border:1px solid hsl(40, 60%, 87.0588235294%);border-radius:2px;pointer-events:none;z-index:100;}#pdf_mermaid_39 .flowchartTitleText{text-anchor:middle;font-size:18px;fill:#173f4f;}#pdf_mermaid_39 :root{--mermaid-font-family:"trebuchet ms",verdana,arial,sans-serif;}</style><g><marker id="pdf_mermaid_39_flowchart-pointEnd" class="marker flowchart" viewBox="0 0 10 10" refX="6" refY="5" markerUnits="userSpaceOnUse" markerWidth="12" markerHeight="12" orient="auto"><path d="M 0 0 L 10 5 L 0 10 z" class="arrowMarkerPath" style="stroke-width: 1; stroke-dasharray: 1, 0;"></path></marker><marker id="pdf_mermaid_39_flowchart-pointStart" class="marker flowchart" viewBox="0 0 10 10" refX="4.5" refY="5" markerUnits="userSpaceOnUse" markerWidth="12" markerHeight="12" orient="auto"><path d="M 0 5 L 10 10 L 10 0 z" class="arrowMarkerPath" style="stroke-width: 1; stroke-dasharray: 1, 0;"></path></marker><marker id="pdf_mermaid_39_flowchart-circleEnd" class="marker flowchart" viewBox="0 0 10 10" refX="11" refY="5" markerUnits="userSpaceOnUse" markerWidth="11" markerHeight="11" orient="auto"><circle cx="5" cy="5" r="5" class="arrowMarkerPath" style="stroke-width: 1; stroke-dasharray: 1, 0;"></circle></marker><marker id="pdf_mermaid_39_flowchart-circleStart" class="marker flowchart" viewBox="0 0 10 10" refX="-1" refY="5" markerUnits="userSpaceOnUse" markerWidth="11" markerHeight="11" orient="auto"><circle cx="5" cy="5" r="5" class="arrowMarkerPath" style="stroke-width: 1; stroke-dasharray: 1, 0;"></circle></marker><marker id="pdf_mermaid_39_flowchart-crossEnd" class="marker cross flowchart" viewBox="0 0 11 11" refX="12" refY="5.2" markerUnits="userSpaceOnUse" markerWidth="11" markerHeight="11" orient="auto"><path d="M 1,1 l 9,9 M 10,1 l -9,9" class="arrowMarkerPath" style="stroke-width: 2; stroke-dasharray: 1, 0;"></path></marker><marker id="pdf_mermaid_39_flowchart-crossStart" class="marker cross flowchart" viewBox="0 0 11 11" refX="-1" refY="5.2" markerUnits="userSpaceOnUse" markerWidth="11" markerHeight="11" orient="auto"><path d="M 1,1 l 9,9 M 10,1 l -9,9" class="arrowMarkerPath" style="stroke-width: 2; stroke-dasharray: 1, 0;"></path></marker><g class="root"><g class="clusters"></g><g class="edgePaths"><path d="M140.781,212.555L144.948,212.555C149.115,212.555,157.448,212.555,164.981,212.621C172.515,212.687,179.249,212.819,182.615,212.885L185.982,212.951" id="L-A-B-0" class="edge-thickness-normal edge-pattern-solid flowchart-link LS-A LE-B" style="fill:none;" marker-end="url(#pdf_mermaid_39_flowchart-pointEnd)"></path><path d="M537.962,134.626L556.842,123.454C575.722,112.282,613.482,89.938,662.305,78.766C711.128,67.594,771.013,67.594,831.318,67.594C891.622,67.594,952.346,67.594,1016.173,67.594C1080,67.594,1146.93,67.594,1213.859,67.594C1280.789,67.594,1347.719,67.594,1401.747,67.594C1455.775,67.594,1496.902,67.594,1517.465,67.594L1538.028,67.594" id="L-B-C-0" class="edge-thickness-normal edge-pattern-solid flowchart-link LS-B LE-C" style="fill:none;" marker-end="url(#pdf_mermaid_39_flowchart-pointEnd)"></path><path d="M559.938,269.507L575.155,274.957C590.373,280.407,620.808,291.307,641.117,296.828C661.426,302.349,671.61,302.491,676.702,302.562L681.794,302.633" id="L-B-D-0" class="edge-thickness-normal edge-pattern-solid flowchart-link LS-B LE-D" style="fill:none;" marker-end="url(#pdf_mermaid_39_flowchart-pointEnd)"></path><path d="M923.434,250.437L938.373,241.822C953.312,233.207,983.191,215.977,1031.596,207.361C1080,198.746,1146.93,198.746,1213.859,198.746C1280.789,198.746,1347.719,198.746,1386.611,198.746C1425.504,198.746,1436.36,198.746,1441.788,198.746L1447.216,198.746" id="L-D-E-0" class="edge-thickness-normal edge-pattern-solid flowchart-link LS-D LE-E" style="fill:none;" marker-end="url(#pdf_mermaid_39_flowchart-pointEnd)"></path><path d="M923.434,354.977L938.373,363.425C953.312,371.874,983.191,388.771,1003.642,397.291C1024.093,405.812,1035.115,405.955,1040.627,406.027L1046.138,406.099" id="L-D-F-0" class="edge-thickness-normal edge-pattern-solid flowchart-link LS-D LE-F" style="fill:none;" marker-end="url(#pdf_mermaid_39_flowchart-pointEnd)"></path><path d="M1349.376,434.074L1360.254,436.256C1371.133,438.438,1392.891,442.803,1424.269,444.986C1455.647,447.168,1496.646,447.168,1517.146,447.168L1537.645,447.168" id="L-F-G-0" class="edge-thickness-normal edge-pattern-solid flowchart-link LS-F LE-G" style="fill:none;" marker-end="url(#pdf_mermaid_39_flowchart-pointEnd)"></path><path d="M1338.861,367.748L1351.493,363.741C1364.124,359.734,1389.386,351.721,1420.875,347.714C1452.364,343.707,1490.079,343.707,1508.936,343.707L1527.794,343.707" id="L-F-H-0" class="edge-thickness-normal edge-pattern-solid flowchart-link LS-F LE-H" style="fill:none;" marker-end="url(#pdf_mermaid_39_flowchart-pointEnd)"></path><path d="M1705.422,67.594L1724.724,67.594C1744.026,67.594,1782.63,67.594,1826.801,85.086C1870.972,102.577,1920.71,137.561,1945.579,155.053L1970.448,172.545" id="L-C-I-0" class="edge-thickness-normal edge-pattern-solid flowchart-link LS-C LE-I" style="fill:none;" marker-end="url(#pdf_mermaid_39_flowchart-pointEnd)"></path><path d="M1796.234,198.746L1800.401,198.746C1804.568,198.746,1812.901,198.746,1820.352,198.623C1827.802,198.499,1834.37,198.252,1837.654,198.129L1840.938,198.006" id="L-E-I-0" class="edge-thickness-normal edge-pattern-solid flowchart-link LS-E LE-I" style="fill:none;" marker-end="url(#pdf_mermaid_39_flowchart-pointEnd)"></path><path d="M1715.656,343.707L1733.253,343.707C1750.849,343.707,1786.042,343.707,1829.258,321.763C1872.474,299.819,1923.714,255.93,1949.333,233.986L1974.953,212.042" id="L-H-I-0" class="edge-thickness-normal edge-pattern-solid flowchart-link LS-H LE-I" style="fill:none;" marker-end="url(#pdf_mermaid_39_flowchart-pointEnd)"></path><path d="M1705.805,447.168L1725.043,447.168C1744.281,447.168,1782.758,447.168,1815.777,447.168C1848.796,447.168,1876.357,447.168,1890.138,447.168L1903.919,447.168" id="L-G-J-0" class="edge-thickness-normal edge-pattern-solid flowchart-link LS-G LE-J" style="fill:none;" marker-end="url(#pdf_mermaid_39_flowchart-pointEnd)"></path><path d="M2150.25,192.094L2154.417,192.094C2158.583,192.094,2166.917,192.094,2174.367,192.094C2181.817,192.094,2188.383,192.094,2191.667,192.094L2194.95,192.094" id="L-I-K-0" class="edge-thickness-normal edge-pattern-solid flowchart-link LS-I LE-K" style="fill:none;" marker-end="url(#pdf_mermaid_39_flowchart-pointEnd)"></path></g><g class="edgeLabels"><g class="edgeLabel"><g class="label" transform="translate(0, 0)"><foreignObject width="0" height="0"><div xmlns="http://www.w3.org/1999/xhtml" style="display: inline-block; white-space: nowrap;"><span class="edgeLabel"></span></div></foreignObject></g></g><g class="edgeLabel" transform="translate(1013.0703125, 67.59375)"><g class="label" transform="translate(-12.8671875, -9)"><foreignObject width="25.734375" height="18"><div xmlns="http://www.w3.org/1999/xhtml" style="display: inline-block; white-space: nowrap;"><span class="edgeLabel">Yes</span></div></foreignObject></g></g><g class="edgeLabel" transform="translate(651.2421875, 302.20703125)"><g class="label" transform="translate(-10.3515625, -9)"><foreignObject width="20.703125" height="18"><div xmlns="http://www.w3.org/1999/xhtml" style="display: inline-block; white-space: nowrap;"><span class="edgeLabel">No</span></div></foreignObject></g></g><g class="edgeLabel" transform="translate(1213.859375, 198.74609375)"><g class="label" transform="translate(-12.8671875, -9)"><foreignObject width="25.734375" height="18"><div xmlns="http://www.w3.org/1999/xhtml" style="display: inline-block; white-space: nowrap;"><span class="edgeLabel">Yes</span></div></foreignObject></g></g><g class="edgeLabel" transform="translate(1013.0703125, 405.66796875)"><g class="label" transform="translate(-10.3515625, -9)"><foreignObject width="20.703125" height="18"><div xmlns="http://www.w3.org/1999/xhtml" style="display: inline-block; white-space: nowrap;"><span class="edgeLabel">No</span></div></foreignObject></g></g><g class="edgeLabel" transform="translate(1414.6484375, 447.16796875)"><g class="label" transform="translate(-12.8671875, -9)"><foreignObject width="25.734375" height="18"><div xmlns="http://www.w3.org/1999/xhtml" style="display: inline-block; white-space: nowrap;"><span class="edgeLabel">Yes</span></div></foreignObject></g></g><g class="edgeLabel" transform="translate(1414.6484375, 343.70703125)"><g class="label" transform="translate(-10.3515625, -9)"><foreignObject width="20.703125" height="18"><div xmlns="http://www.w3.org/1999/xhtml" style="display: inline-block; white-space: nowrap;"><span class="edgeLabel">No</span></div></foreignObject></g></g><g class="edgeLabel"><g class="label" transform="translate(0, 0)"><foreignObject width="0" height="0"><div xmlns="http://www.w3.org/1999/xhtml" style="display: inline-block; white-space: nowrap;"><span class="edgeLabel"></span></div></foreignObject></g></g><g class="edgeLabel"><g class="label" transform="translate(0, 0)"><foreignObject width="0" height="0"><div xmlns="http://www.w3.org/1999/xhtml" style="display: inline-block; white-space: nowrap;"><span class="edgeLabel"></span></div></foreignObject></g></g><g class="edgeLabel"><g class="label" transform="translate(0, 0)"><foreignObject width="0" height="0"><div xmlns="http://www.w3.org/1999/xhtml" style="display: inline-block; white-space: nowrap;"><span class="edgeLabel"></span></div></foreignObject></g></g><g class="edgeLabel"><g class="label" transform="translate(0, 0)"><foreignObject width="0" height="0"><div xmlns="http://www.w3.org/1999/xhtml" style="display: inline-block; white-space: nowrap;"><span class="edgeLabel"></span></div></foreignObject></g></g><g class="edgeLabel"><g class="label" transform="translate(0, 0)"><foreignObject width="0" height="0"><div xmlns="http://www.w3.org/1999/xhtml" style="display: inline-block; white-space: nowrap;"><span class="edgeLabel"></span></div></foreignObject></g></g></g><g class="nodes"><g class="node default default flowchart-label" id="flowchart-A-845" data-node="true" data-id="A" transform="translate(70.390625, 212.5546875)"><rect class="basic label-container" style="" rx="0" ry="0" x="-70.390625" y="-16.5" width="140.78125" height="33"></rect><g class="label" style="" transform="translate(-62.890625, -9)"><rect></rect><foreignObject width="125.78125" height="18"><div xmlns="http://www.w3.org/1999/xhtml" style="display: inline-block; white-space: nowrap;"><span class="nodeLabel">Production signal</span></div></foreignObject></g></g><g class="node default default flowchart-label" id="flowchart-B-846" data-node="true" data-id="B" transform="translate(403.3359375, 212.5546875)"><polygon points="212.5546875,0 425.109375,-212.5546875 212.5546875,-425.109375 0,-212.5546875" class="label-container" transform="translate(-212.5546875,212.5546875)" style=""></polygon><g class="label" style="" transform="translate(-188.5546875, -9)"><rect></rect><foreignObject width="377.109375" height="18"><div xmlns="http://www.w3.org/1999/xhtml" style="display: inline-block; white-space: nowrap;"><span class="nodeLabel">Safety, privacy, money, authorization, or side effect?</span></div></foreignObject></g></g><g class="node default default flowchart-label" id="flowchart-C-848" data-node="true" data-id="C" transform="translate(1624.375, 67.59375)"><rect class="basic label-container" style="" rx="0" ry="0" x="-81.046875" y="-16.5" width="162.09375" height="33"></rect><g class="label" style="" transform="translate(-73.546875, -9)"><rect></rect><foreignObject width="147.09375" height="18"><div xmlns="http://www.w3.org/1999/xhtml" style="display: inline-block; white-space: nowrap;"><span class="nodeLabel">Create blocking eval</span></div></foreignObject></g></g><g class="node default default flowchart-label" id="flowchart-D-850" data-node="true" data-id="D" transform="translate(830.8984375, 302.20703125)"><polygon points="144.3046875,0 288.609375,-144.3046875 144.3046875,-288.609375 0,-144.3046875" class="label-container" transform="translate(-144.3046875,144.3046875)" style=""></polygon><g class="label" style="" transform="translate(-120.3046875, -9)"><rect></rect><foreignObject width="240.609375" height="18"><div xmlns="http://www.w3.org/1999/xhtml" style="display: inline-block; white-space: nowrap;"><span class="nodeLabel">Recurring, costly, or user-visible?</span></div></foreignObject></g></g><g class="node default default flowchart-label" id="flowchart-E-852" data-node="true" data-id="E" transform="translate(1624.375, 198.74609375)"><rect class="basic label-container" style="" rx="0" ry="0" x="-171.859375" y="-16.5" width="343.71875" height="33"></rect><g class="label" style="" transform="translate(-164.359375, -9)"><rect></rect><foreignObject width="328.71875" height="18"><div xmlns="http://www.w3.org/1999/xhtml" style="display: inline-block; white-space: nowrap;"><span class="nodeLabel">Create warning eval or product-quality fixture</span></div></foreignObject></g></g><g class="node default default flowchart-label" id="flowchart-F-854" data-node="true" data-id="F" transform="translate(1213.859375, 405.66796875)"><polygon points="162.921875,0 325.84375,-162.921875 162.921875,-325.84375 0,-162.921875" class="label-container" transform="translate(-162.921875,162.921875)" style=""></polygon><g class="label" style="" transform="translate(-138.921875, -9)"><rect></rect><foreignObject width="277.84375" height="18"><div xmlns="http://www.w3.org/1999/xhtml" style="display: inline-block; white-space: nowrap;"><span class="nodeLabel">Recovered correctly with useful trace?</span></div></foreignObject></g></g><g class="node default default flowchart-label" id="flowchart-G-856" data-node="true" data-id="G" transform="translate(1624.375, 447.16796875)"><rect class="basic label-container" style="" rx="0" ry="0" x="-81.4296875" y="-16.5" width="162.859375" height="33"></rect><g class="label" style="" transform="translate(-73.9296875, -9)"><rect></rect><foreignObject width="147.859375" height="18"><div xmlns="http://www.w3.org/1999/xhtml" style="display: inline-block; white-space: nowrap;"><span class="nodeLabel">Keep trace evidence</span></div></foreignObject></g></g><g class="node default default flowchart-label" id="flowchart-H-858" data-node="true" data-id="H" transform="translate(1624.375, 343.70703125)"><rect class="basic label-container" style="" rx="0" ry="0" x="-91.28125" y="-16.5" width="182.5625" height="33"></rect><g class="label" style="" transform="translate(-83.78125, -9)"><rect></rect><foreignObject width="167.5625" height="18"><div xmlns="http://www.w3.org/1999/xhtml" style="display: inline-block; white-space: nowrap;"><span class="nodeLabel">Create exploratory eval</span></div></foreignObject></g></g><g class="node default default flowchart-label" id="flowchart-I-860" data-node="true" data-id="I" transform="translate(1998.2421875, 192.09375)"><rect class="basic label-container" style="" rx="0" ry="0" x="-152.0078125" y="-16.5" width="304.015625" height="33"></rect><g class="label" style="" transform="translate(-144.5078125, -9)"><rect></rect><foreignObject width="289.015625" height="18"><div xmlns="http://www.w3.org/1999/xhtml" style="display: inline-block; white-space: nowrap;"><span class="nodeLabel">Assign owner, severity, and release gate</span></div></foreignObject></g></g><g class="node default default flowchart-label" id="flowchart-J-866" data-node="true" data-id="J" transform="translate(1998.2421875, 447.16796875)"><rect class="basic label-container" style="" rx="0" ry="0" x="-89.0234375" y="-16.5" width="178.046875" height="33"></rect><g class="label" style="" transform="translate(-81.5234375, -9)"><rect></rect><foreignObject width="163.046875" height="18"><div xmlns="http://www.w3.org/1999/xhtml" style="display: inline-block; white-space: nowrap;"><span class="nodeLabel">Monitor for recurrence</span></div></foreignObject></g></g><g class="node default default flowchart-label" id="flowchart-K-868" data-node="true" data-id="K" transform="translate(2325.390625, 192.09375)"><rect class="basic label-container" style="" rx="0" ry="0" x="-125.140625" y="-16.5" width="250.28125" height="33"></rect><g class="label" style="" transform="translate(-117.640625, -9)"><rect></rect><foreignObject width="235.28125" height="18"><div xmlns="http://www.w3.org/1999/xhtml" style="display: inline-block; white-space: nowrap;"><span class="nodeLabel">Run in next relevant release gate</span></div></foreignObject></g></g></g></g></g></svg>