<svg id="pdf_mermaid_37" width="100%" xmlns="http://www.w3.org/2000/svg" class="statediagram" style="max-width: 907.671875px;" viewBox="0 0 907.671875 682" role="graphics-document document" aria-roledescription="stateDiagram"><style>#pdf_mermaid_37{font-family:Inter,system-ui,sans-serif;font-size:16px;fill:#173f4f;}#pdf_mermaid_37 .error-icon{fill:#fffaf0;}#pdf_mermaid_37 .error-text{fill:#00050f;stroke:#00050f;}#pdf_mermaid_37 .edge-thickness-normal{stroke-width:2px;}#pdf_mermaid_37 .edge-thickness-thick{stroke-width:3.5px;}#pdf_mermaid_37 .edge-pattern-solid{stroke-dasharray:0;}#pdf_mermaid_37 .edge-pattern-dashed{stroke-dasharray:3;}#pdf_mermaid_37 .edge-pattern-dotted{stroke-dasharray:2;}#pdf_mermaid_37 .marker{fill:#527887;stroke:#527887;}#pdf_mermaid_37 .marker.cross{stroke:#527887;}#pdf_mermaid_37 svg{font-family:Inter,system-ui,sans-serif;font-size:16px;}#pdf_mermaid_37 defs #statediagram-barbEnd{fill:#527887;stroke:#527887;}#pdf_mermaid_37 g.stateGroup text{fill:#c7a76a;stroke:none;font-size:10px;}#pdf_mermaid_37 g.stateGroup text{fill:#173f4f;stroke:none;font-size:10px;}#pdf_mermaid_37 g.stateGroup .state-title{font-weight:bolder;fill:#173f4f;}#pdf_mermaid_37 g.stateGroup rect{fill:#f6efe2;stroke:#c7a76a;}#pdf_mermaid_37 g.stateGroup line{stroke:#527887;stroke-width:1;}#pdf_mermaid_37 .transition{stroke:#527887;stroke-width:1;fill:none;}#pdf_mermaid_37 .stateGroup .composit{fill:#f4f4f4;border-bottom:1px;}#pdf_mermaid_37 .stateGroup .alt-composit{fill:#e0e0e0;border-bottom:1px;}#pdf_mermaid_37 .state-note{stroke:hsl(52.6829268293, 60%, 73.9215686275%);fill:#fff5ad;}#pdf_mermaid_37 .state-note text{fill:#333;stroke:none;font-size:10px;}#pdf_mermaid_37 .stateLabel .box{stroke:none;stroke-width:0;fill:#f6efe2;opacity:0.5;}#pdf_mermaid_37 .edgeLabel .label rect{fill:#f6efe2;opacity:0.5;}#pdf_mermaid_37 .edgeLabel .label text{fill:#173f4f;}#pdf_mermaid_37 .label div .edgeLabel{color:#173f4f;}#pdf_mermaid_37 .stateLabel text{fill:#173f4f;font-size:10px;font-weight:bold;}#pdf_mermaid_37 .node circle.state-start{fill:#527887;stroke:#527887;}#pdf_mermaid_37 .node .fork-join{fill:#527887;stroke:#527887;}#pdf_mermaid_37 .node circle.state-end{fill:#c7a76a;stroke:#f4f4f4;stroke-width:1.5;}#pdf_mermaid_37 .end-state-inner{fill:#f4f4f4;stroke-width:1.5;}#pdf_mermaid_37 .node rect{fill:#f6efe2;stroke:#c7a76a;stroke-width:1px;}#pdf_mermaid_37 .node polygon{fill:#f6efe2;stroke:#c7a76a;stroke-width:1px;}#pdf_mermaid_37 #statediagram-barbEnd{fill:#527887;}#pdf_mermaid_37 .statediagram-cluster rect{fill:#f6efe2;stroke:#c7a76a;stroke-width:1px;}#pdf_mermaid_37 .cluster-label,#pdf_mermaid_37 .nodeLabel{color:#173f4f;}#pdf_mermaid_37 .statediagram-cluster rect.outer{rx:5px;ry:5px;}#pdf_mermaid_37 .statediagram-state .divider{stroke:#c7a76a;}#pdf_mermaid_37 .statediagram-state .title-state{rx:5px;ry:5px;}#pdf_mermaid_37 .statediagram-cluster.statediagram-cluster .inner{fill:#f4f4f4;}#pdf_mermaid_37 .statediagram-cluster.statediagram-cluster-alt .inner{fill:#fffaf0;}#pdf_mermaid_37 .statediagram-cluster .inner{rx:0;ry:0;}#pdf_mermaid_37 .statediagram-state rect.basic{rx:5px;ry:5px;}#pdf_mermaid_37 .statediagram-state rect.divider{stroke-dasharray:10,10;fill:#fffaf0;}#pdf_mermaid_37 .note-edge{stroke-dasharray:5;}#pdf_mermaid_37 .statediagram-note rect{fill:#fff5ad;stroke:hsl(52.6829268293, 60%, 73.9215686275%);stroke-width:1px;rx:0;ry:0;}#pdf_mermaid_37 .statediagram-note rect{fill:#fff5ad;stroke:hsl(52.6829268293, 60%, 73.9215686275%);stroke-width:1px;rx:0;ry:0;}#pdf_mermaid_37 .statediagram-note text{fill:#333;}#pdf_mermaid_37 .statediagram-note .nodeLabel{color:#333;}#pdf_mermaid_37 .statediagram .edgeLabel{color:red;}#pdf_mermaid_37 #dependencyStart,#pdf_mermaid_37 #dependencyEnd{fill:#527887;stroke:#527887;stroke-width:1;}#pdf_mermaid_37 .statediagramTitleText{text-anchor:middle;font-size:18px;fill:#173f4f;}#pdf_mermaid_37 :root{--mermaid-font-family:"trebuchet ms",verdana,arial,sans-serif;}</style><g><defs><marker id="pdf_mermaid_37_statediagram-barbEnd" refX="19" refY="7" markerWidth="20" markerHeight="14" markerUnits="strokeWidth" orient="auto"><path d="M 19,7 L9,13 L14,7 L9,1 Z"></path></marker></defs><g class="root"><g class="clusters"></g><g class="edgePaths"><path d="M424.117,22L424.117,26.167C424.117,30.333,424.117,38.667,424.117,47C424.117,55.333,424.117,63.667,424.117,67.833L424.117,72" id="edge0" class="edge-thickness-normal transition" style="fill:none" marker-end="url(#pdf_mermaid_37_statediagram-barbEnd)"></path><path d="M424.117,105L424.117,110.667C424.117,116.333,424.117,127.667,424.117,139C424.117,150.333,424.117,161.667,424.117,167.333L424.117,173" id="edge1" class="edge-thickness-normal transition" style="fill:none" marker-end="url(#pdf_mermaid_37_statediagram-barbEnd)"></path><path d="M386.961,194.959L335.868,202.466C284.775,209.973,182.589,224.986,144.614,238.16C106.64,251.333,132.877,262.667,145.996,268.333L159.114,274" id="edge2" class="edge-thickness-normal transition" style="fill:none" marker-end="url(#pdf_mermaid_37_statediagram-barbEnd)"></path><path d="M227.734,274L238.182,268.333C248.63,262.667,269.526,251.333,296.064,239.589C322.602,227.845,354.781,215.69,370.871,209.612L386.961,203.535" id="edge3" class="edge-thickness-normal transition" style="fill:none" marker-end="url(#pdf_mermaid_37_statediagram-barbEnd)"></path><path d="M255.352,297.733L313.215,304.944C371.078,312.155,486.805,326.578,553.915,339.456C621.025,352.333,639.519,363.667,648.766,369.333L658.013,375" id="edge4" class="edge-thickness-normal transition" style="fill:none" marker-end="url(#pdf_mermaid_37_statediagram-barbEnd)"></path><path d="M210.026,307L214.392,312.667C218.758,318.333,227.49,329.667,243.45,341C259.41,352.333,282.597,363.667,294.191,369.333L305.785,375" id="edge5" class="edge-thickness-normal transition" style="fill:none" marker-end="url(#pdf_mermaid_37_statediagram-barbEnd)"></path><path d="M255.352,300.118L296.467,306.932C337.583,313.745,419.815,327.373,460.931,342.603C502.047,357.833,502.047,374.667,502.047,391.5C502.047,408.333,502.047,425.167,506.714,439.25C511.381,453.333,520.716,464.667,525.383,470.333L530.051,476" id="edge6" class="edge-thickness-normal transition" style="fill:none" marker-end="url(#pdf_mermaid_37_statediagram-barbEnd)"></path><path d="M151.256,307L135.439,312.667C119.621,318.333,87.986,329.667,72.169,343.75C56.352,357.833,56.352,374.667,56.352,391.5C56.352,408.333,56.352,425.167,56.352,442C56.352,458.833,56.352,475.667,56.352,492.5C56.352,509.333,56.352,526.167,56.352,540.25C56.352,554.333,56.352,565.667,56.352,571.333L56.352,577" id="edge7" class="edge-thickness-normal transition" style="fill:none" marker-end="url(#pdf_mermaid_37_statediagram-barbEnd)"></path><path d="M180.427,307L174.628,312.667C168.829,318.333,157.231,329.667,151.432,343.75C145.633,357.833,145.633,374.667,145.633,391.5C145.633,408.333,145.633,425.167,145.633,442C145.633,458.833,145.633,475.667,145.633,492.5C145.633,509.333,145.633,526.167,170.004,541.616C194.375,557.066,243.117,571.132,267.488,578.166L291.859,585.199" id="edge8" class="edge-thickness-normal transition" style="fill:none" marker-end="url(#pdf_mermaid_37_statediagram-barbEnd)"></path><path d="M690.844,375L692.873,369.333C694.901,363.667,698.958,352.333,700.987,338.25C703.016,324.167,703.016,307.333,703.016,290.5C703.016,273.667,703.016,256.833,662.725,241.121C622.435,225.409,541.854,210.819,501.564,203.523L461.273,196.228" id="edge9" class="edge-thickness-normal transition" style="fill:none" marker-end="url(#pdf_mermaid_37_statediagram-barbEnd)"></path><path d="M657.978,408L648.719,413.667C639.461,419.333,620.943,430.667,605.088,442C589.233,453.333,576.04,464.667,569.444,470.333L562.848,476" id="edge10" class="edge-thickness-normal transition" style="fill:none" marker-end="url(#pdf_mermaid_37_statediagram-barbEnd)"></path><path d="M699.6,408L704.635,413.667C709.671,419.333,719.742,430.667,733.501,442C747.261,453.333,764.71,464.667,773.435,470.333L782.159,476" id="edge11" class="edge-thickness-normal transition" style="fill:none" marker-end="url(#pdf_mermaid_37_statediagram-barbEnd)"></path><path d="M359.47,375L366.313,369.333C373.157,363.667,386.844,352.333,393.688,338.25C400.531,324.167,400.531,307.333,400.531,290.5C400.531,273.667,400.531,256.833,403.178,242.75C405.824,228.667,411.118,217.333,413.764,211.667L416.411,206" id="edge12" class="edge-thickness-normal transition" style="fill:none" marker-end="url(#pdf_mermaid_37_statediagram-barbEnd)"></path><path d="M339.543,408L339.543,413.667C339.543,419.333,339.543,430.667,339.543,444.75C339.543,458.833,339.543,475.667,339.543,492.5C339.543,509.333,339.543,526.167,337.42,540.25C335.297,554.333,331.052,565.667,328.929,571.333L326.806,577" id="edge13" class="edge-thickness-normal transition" style="fill:none" marker-end="url(#pdf_mermaid_37_statediagram-barbEnd)"></path><path d="M543.641,509L543.641,514.667C543.641,520.333,543.641,531.667,511.266,544.664C478.891,557.662,414.141,572.324,381.766,579.655L349.391,586.986" id="edge14" class="edge-thickness-normal transition" style="fill:none" marker-end="url(#pdf_mermaid_37_statediagram-barbEnd)"></path><path d="M461.273,194.346L519.618,201.955C577.964,209.564,694.654,224.782,752.999,240.808C811.344,256.833,811.344,273.667,811.344,290.5C811.344,307.333,811.344,324.167,811.344,341C811.344,357.833,811.344,374.667,811.344,391.5C811.344,408.333,811.344,425.167,810.919,439.25C810.495,453.333,809.647,464.667,809.222,470.333L808.798,476" id="edge15" class="edge-thickness-normal transition" style="fill:none" marker-end="url(#pdf_mermaid_37_statediagram-barbEnd)"></path><path d="M56.352,610L56.352,614.167C56.352,618.333,56.352,626.667,99.239,636.026C142.126,645.386,227.901,655.772,270.788,660.965L313.676,666.159" id="edge16" class="edge-thickness-normal transition" style="fill:none" marker-end="url(#pdf_mermaid_37_statediagram-barbEnd)"></path><path d="M320.625,610L320.625,614.167C320.625,618.333,320.625,626.667,320.625,635C320.625,643.333,320.625,651.667,320.625,655.833L320.625,660" id="edge17" class="edge-thickness-normal transition" style="fill:none" marker-end="url(#pdf_mermaid_37_statediagram-barbEnd)"></path><path d="M807.563,509L807.563,514.667C807.563,520.333,807.563,531.667,807.563,545.75C807.563,559.833,807.563,576.667,807.563,592C807.563,607.333,807.563,621.167,727.57,633.34C647.578,645.514,487.594,656.027,407.602,661.284L327.61,666.541" id="edge18" class="edge-thickness-normal transition" style="fill:none" marker-end="url(#pdf_mermaid_37_statediagram-barbEnd)"></path></g><g class="edgeLabels"><g class="edgeLabel"><g class="label" transform="translate(0, 0)"><rect rx="0" ry="0" width="0" height="0"></rect><foreignObject width="0" height="0"><div xmlns="http://www.w3.org/1999/xhtml" style="display: inline-block; white-space: nowrap;"><span class="edgeLabel"></span></div></foreignObject></g></g><g class="edgeLabel" transform="translate(424.1171875, 139)"><g class="label" transform="translate(-74.859375, -9)"><rect rx="0" ry="0" width="149.71875" height="18"></rect><foreignObject width="149.71875" height="18"><div xmlns="http://www.w3.org/1999/xhtml" style="display: inline-block; white-space: nowrap;"><span class="edgeLabel">load state and policy</span></div></foreignObject></g></g><g class="edgeLabel" transform="translate(80.40234375, 240)"><g class="label" transform="translate(-66.3203125, -9)"><rect rx="0" ry="0" width="132.640625" height="18"></rect><foreignObject width="132.640625" height="18"><div xmlns="http://www.w3.org/1999/xhtml" style="display: inline-block; white-space: nowrap;"><span class="edgeLabel">step returns result</span></div></foreignObject></g></g><g class="edgeLabel" transform="translate(290.421875, 240)"><g class="label" transform="translate(-31.4140625, -9)"><rect rx="0" ry="0" width="62.828125" height="18"></rect><foreignObject width="62.828125" height="18"><div xmlns="http://www.w3.org/1999/xhtml" style="display: inline-block; white-space: nowrap;"><span class="edgeLabel">continue</span></div></foreignObject></g></g><g class="edgeLabel" transform="translate(602.53125, 341)"><g class="label" transform="translate(-63.328125, -9)"><rect rx="0" ry="0" width="126.65625" height="18"></rect><foreignObject width="126.65625" height="18"><div xmlns="http://www.w3.org/1999/xhtml" style="display: inline-block; white-space: nowrap;"><span class="edgeLabel">approval required</span></div></foreignObject></g></g><g class="edgeLabel" transform="translate(236.22265625, 341)"><g class="label" transform="translate(-56.5546875, -9)"><rect rx="0" ry="0" width="113.109375" height="18"></rect><foreignObject width="113.109375" height="18"><div xmlns="http://www.w3.org/1999/xhtml" style="display: inline-block; white-space: nowrap;"><span class="edgeLabel">retryable failure</span></div></foreignObject></g></g><g class="edgeLabel" transform="translate(502.046875, 391.5)"><g class="label" transform="translate(-63.140625, -9)"><rect rx="0" ry="0" width="126.28125" height="18"></rect><foreignObject width="126.28125" height="18"><div xmlns="http://www.w3.org/1999/xhtml" style="display: inline-block; white-space: nowrap;"><span class="edgeLabel">partial side effect</span></div></foreignObject></g></g><g class="edgeLabel" transform="translate(56.3515625, 442)"><g class="label" transform="translate(-33.8125, -9)"><rect rx="0" ry="0" width="67.625" height="18"></rect><foreignObject width="67.625" height="18"><div xmlns="http://www.w3.org/1999/xhtml" style="display: inline-block; white-space: nowrap;"><span class="edgeLabel">complete</span></div></foreignObject></g></g><g class="edgeLabel" transform="translate(145.6328125, 442)"><g class="label" transform="translate(-35.46875, -9)"><rect rx="0" ry="0" width="70.9375" height="18"></rect><foreignObject width="70.9375" height="18"><div xmlns="http://www.w3.org/1999/xhtml" style="display: inline-block; white-space: nowrap;"><span class="edgeLabel">fatal error</span></div></foreignObject></g></g><g class="edgeLabel" transform="translate(703.015625, 290.5)"><g class="label" transform="translate(-34.09375, -9)"><rect rx="0" ry="0" width="68.1875" height="18"></rect><foreignObject width="68.1875" height="18"><div xmlns="http://www.w3.org/1999/xhtml" style="display: inline-block; white-space: nowrap;"><span class="edgeLabel">approved</span></div></foreignObject></g></g><g class="edgeLabel" transform="translate(602.42578125, 442)"><g class="label" transform="translate(-63.1171875, -9)"><rect rx="0" ry="0" width="126.234375" height="18"></rect><foreignObject width="126.234375" height="18"><div xmlns="http://www.w3.org/1999/xhtml" style="display: inline-block; white-space: nowrap;"><span class="edgeLabel">denied or expired</span></div></foreignObject></g></g><g class="edgeLabel" transform="translate(729.8125, 442)"><g class="label" transform="translate(-34.734375, -9)"><rect rx="0" ry="0" width="69.46875" height="18"></rect><foreignObject width="69.46875" height="18"><div xmlns="http://www.w3.org/1999/xhtml" style="display: inline-block; white-space: nowrap;"><span class="edgeLabel">cancelled</span></div></foreignObject></g></g><g class="edgeLabel" transform="translate(400.53125, 290.5)"><g class="label" transform="translate(-75.765625, -9)"><rect rx="0" ry="0" width="151.53125" height="18"></rect><foreignObject width="151.53125" height="18"><div xmlns="http://www.w3.org/1999/xhtml" style="display: inline-block; white-space: nowrap;"><span class="edgeLabel">retry budget remains</span></div></foreignObject></g></g><g class="edgeLabel" transform="translate(339.54296875, 492.5)"><g class="label" transform="translate(-84.625, -9)"><rect rx="0" ry="0" width="169.25" height="18"></rect><foreignObject width="169.25" height="18"><div xmlns="http://www.w3.org/1999/xhtml" style="display: inline-block; white-space: nowrap;"><span class="edgeLabel">retry budget exhausted</span></div></foreignObject></g></g><g class="edgeLabel" transform="translate(543.640625, 543)"><g class="label" transform="translate(-87.1953125, -9)"><rect rx="0" ry="0" width="174.390625" height="18"></rect><foreignObject width="174.390625" height="18"><div xmlns="http://www.w3.org/1999/xhtml" style="display: inline-block; white-space: nowrap;"><span class="edgeLabel">compensation complete</span></div></foreignObject></g></g><g class="edgeLabel" transform="translate(811.34375, 341)"><g class="label" transform="translate(-88.328125, -9)"><rect rx="0" ry="0" width="176.65625" height="18"></rect><foreignObject width="176.65625" height="18"><div xmlns="http://www.w3.org/1999/xhtml" style="display: inline-block; white-space: nowrap;"><span class="edgeLabel">operator or user cancels</span></div></foreignObject></g></g><g class="edgeLabel"><g class="label" transform="translate(0, 0)"><rect rx="0" ry="0" width="0" height="0"></rect><foreignObject width="0" height="0"><div xmlns="http://www.w3.org/1999/xhtml" style="display: inline-block; white-space: nowrap;"><span class="edgeLabel"></span></div></foreignObject></g></g><g class="edgeLabel"><g class="label" transform="translate(0, 0)"><rect rx="0" ry="0" width="0" height="0"></rect><foreignObject width="0" height="0"><div xmlns="http://www.w3.org/1999/xhtml" style="display: inline-block; white-space: nowrap;"><span class="edgeLabel"></span></div></foreignObject></g></g><g class="edgeLabel"><g class="label" transform="translate(0, 0)"><rect rx="0" ry="0" width="0" height="0"></rect><foreignObject width="0" height="0"><div xmlns="http://www.w3.org/1999/xhtml" style="display: inline-block; white-space: nowrap;"><span class="edgeLabel"></span></div></foreignObject></g></g></g><g class="nodes"><g class="node default" id="state-root_start-0" data-node="true" data-id="root_start" transform="translate(424.1171875, 15)"><circle class="state-start" r="7" width="14" height="14"></circle></g><g class="node  statediagram-state undefined" id="state-Accepted-1" data-node="true" data-id="Accepted" transform="translate(424.1171875, 88.5)"><rect class="basic label-container" style="" x="-42.1484375" y="-16.5" width="84.296875" height="33"></rect><g class="label" style="" transform="translate(-34.6484375, -9)"><rect></rect><foreignObject width="69.296875" height="18"><div xmlns="http://www.w3.org/1999/xhtml" style="display: inline-block; white-space: nowrap;"><span class="nodeLabel">Accepted</span></div></foreignObject></g></g><g class="node  statediagram-state undefined" id="state-Running-15" data-node="true" data-id="Running" transform="translate(424.1171875, 189.5)"><rect class="basic label-container" style="" x="-37.15625" y="-16.5" width="74.3125" height="33"></rect><g class="label" style="" transform="translate(-29.65625, -9)"><rect></rect><foreignObject width="59.3125" height="18"><div xmlns="http://www.w3.org/1999/xhtml" style="display: inline-block; white-space: nowrap;"><span class="nodeLabel">Running</span></div></foreignObject></g></g><g class="node  statediagram-state undefined" id="state-Checkpointed-8" data-node="true" data-id="Checkpointed" transform="translate(197.3125, 290.5)"><rect class="basic label-container" style="" x="-58.0390625" y="-16.5" width="116.078125" height="33"></rect><g class="label" style="" transform="translate(-50.5390625, -9)"><rect></rect><foreignObject width="101.078125" height="18"><div xmlns="http://www.w3.org/1999/xhtml" style="display: inline-block; white-space: nowrap;"><span class="nodeLabel">Checkpointed</span></div></foreignObject></g></g><g class="node  statediagram-state undefined" id="state-WaitingApproval-11" data-node="true" data-id="WaitingApproval" transform="translate(684.9375, 391.5)"><rect class="basic label-container" style="" x="-66.6015625" y="-16.5" width="133.203125" height="33"></rect><g class="label" style="" transform="translate(-59.1015625, -9)"><rect></rect><foreignObject width="118.203125" height="18"><div xmlns="http://www.w3.org/1999/xhtml" style="display: inline-block; white-space: nowrap;"><span class="nodeLabel">WaitingApproval</span></div></foreignObject></g></g><g class="node  statediagram-state undefined" id="state-Retrying-13" data-node="true" data-id="Retrying" transform="translate(339.54296875, 391.5)"><rect class="basic label-container" style="" x="-37.7890625" y="-16.5" width="75.578125" height="33"></rect><g class="label" style="" transform="translate(-30.2890625, -9)"><rect></rect><foreignObject width="60.578125" height="18"><div xmlns="http://www.w3.org/1999/xhtml" style="display: inline-block; white-space: nowrap;"><span class="nodeLabel">Retrying</span></div></foreignObject></g></g><g class="node  statediagram-state undefined" id="state-Compensating-14" data-node="true" data-id="Compensating" transform="translate(543.640625, 492.5)"><rect class="basic label-container" style="" x="-60.1875" y="-16.5" width="120.375" height="33"></rect><g class="label" style="" transform="translate(-52.6875, -9)"><rect></rect><foreignObject width="105.375" height="18"><div xmlns="http://www.w3.org/1999/xhtml" style="display: inline-block; white-space: nowrap;"><span class="nodeLabel">Compensating</span></div></foreignObject></g></g><g class="node  statediagram-state undefined" id="state-Succeeded-16" data-node="true" data-id="Succeeded" transform="translate(56.3515625, 593.5)"><rect class="basic label-container" style="" x="-48.3515625" y="-16.5" width="96.703125" height="33"></rect><g class="label" style="" transform="translate(-40.8515625, -9)"><rect></rect><foreignObject width="81.703125" height="18"><div xmlns="http://www.w3.org/1999/xhtml" style="display: inline-block; white-space: nowrap;"><span class="nodeLabel">Succeeded</span></div></foreignObject></g></g><g class="node  statediagram-state undefined" id="state-Failed-17" data-node="true" data-id="Failed" transform="translate(320.625, 593.5)"><rect class="basic label-container" style="" x="-28.765625" y="-16.5" width="57.53125" height="33"></rect><g class="label" style="" transform="translate(-21.265625, -9)"><rect></rect><foreignObject width="42.53125" height="18"><div xmlns="http://www.w3.org/1999/xhtml" style="display: inline-block; white-space: nowrap;"><span class="nodeLabel">Failed</span></div></foreignObject></g></g><g class="node  statediagram-state undefined" id="state-Cancelled-18" data-node="true" data-id="Cancelled" transform="translate(807.5625, 492.5)"><rect class="basic label-container" style="" x="-43.484375" y="-16.5" width="86.96875" height="33"></rect><g class="label" style="" transform="translate(-35.984375, -9)"><rect></rect><foreignObject width="71.96875" height="18"><div xmlns="http://www.w3.org/1999/xhtml" style="display: inline-block; white-space: nowrap;"><span class="nodeLabel">Cancelled</span></div></foreignObject></g></g><g class="node default" id="state-root_end-18" data-node="true" data-id="root_end" transform="translate(320.625, 667)"><circle class="state-start" r="7" width="14" height="14"></circle><circle class="state-end" r="5" width="10" height="10"></circle></g></g></g></g></svg>