<svg id="pdf_mermaid_37" width="100%" xmlns="http://www.w3.org/2000/svg" style="max-width: 1811.65625px;" viewBox="-8 -8 1811.65625 472.62890625" role="graphics-document document" aria-roledescription="flowchart-v2"><style>#pdf_mermaid_37{font-family:Inter,system-ui,sans-serif;font-size:16px;fill:#173f4f;}#pdf_mermaid_37 .error-icon{fill:#fffaf0;}#pdf_mermaid_37 .error-text{fill:#00050f;stroke:#00050f;}#pdf_mermaid_37 .edge-thickness-normal{stroke-width:2px;}#pdf_mermaid_37 .edge-thickness-thick{stroke-width:3.5px;}#pdf_mermaid_37 .edge-pattern-solid{stroke-dasharray:0;}#pdf_mermaid_37 .edge-pattern-dashed{stroke-dasharray:3;}#pdf_mermaid_37 .edge-pattern-dotted{stroke-dasharray:2;}#pdf_mermaid_37 .marker{fill:#527887;stroke:#527887;}#pdf_mermaid_37 .marker.cross{stroke:#527887;}#pdf_mermaid_37 svg{font-family:Inter,system-ui,sans-serif;font-size:16px;}#pdf_mermaid_37 .label{font-family:Inter,system-ui,sans-serif;color:#173f4f;}#pdf_mermaid_37 .cluster-label text{fill:#00050f;}#pdf_mermaid_37 .cluster-label span,#pdf_mermaid_37 p{color:#00050f;}#pdf_mermaid_37 .label text,#pdf_mermaid_37 span,#pdf_mermaid_37 p{fill:#173f4f;color:#173f4f;}#pdf_mermaid_37 .node rect,#pdf_mermaid_37 .node circle,#pdf_mermaid_37 .node ellipse,#pdf_mermaid_37 .node polygon,#pdf_mermaid_37 .node path{fill:#f6efe2;stroke:#c7a76a;stroke-width:1px;}#pdf_mermaid_37 .flowchart-label text{text-anchor:middle;}#pdf_mermaid_37 .node .katex path{fill:#000;stroke:#000;stroke-width:1px;}#pdf_mermaid_37 .node .label{text-align:center;}#pdf_mermaid_37 .node.clickable{cursor:pointer;}#pdf_mermaid_37 .arrowheadPath{fill:#0b0b0b;}#pdf_mermaid_37 .edgePath .path{stroke:#527887;stroke-width:2.0px;}#pdf_mermaid_37 .flowchart-link{stroke:#527887;fill:none;}#pdf_mermaid_37 .edgeLabel{background-color:#e8f0ed;text-align:center;}#pdf_mermaid_37 .edgeLabel rect{opacity:0.5;background-color:#e8f0ed;fill:#e8f0ed;}#pdf_mermaid_37 .labelBkg{background-color:rgba(232, 240, 237, 0.5);}#pdf_mermaid_37 .cluster rect{fill:#fffaf0;stroke:hsl(40, 60%, 87.0588235294%);stroke-width:1px;}#pdf_mermaid_37 .cluster text{fill:#00050f;}#pdf_mermaid_37 .cluster span,#pdf_mermaid_37 p{color:#00050f;}#pdf_mermaid_37 div.mermaidTooltip{position:absolute;text-align:center;max-width:200px;padding:2px;font-family:Inter,system-ui,sans-serif;font-size:12px;background:#fffaf0;border:1px solid hsl(40, 60%, 87.0588235294%);border-radius:2px;pointer-events:none;z-index:100;}#pdf_mermaid_37 .flowchartTitleText{text-anchor:middle;font-size:18px;fill:#173f4f;}#pdf_mermaid_37 :root{--mermaid-font-family:"trebuchet ms",verdana,arial,sans-serif;}</style><g><marker id="pdf_mermaid_37_flowchart-pointEnd" class="marker flowchart" viewBox="0 0 10 10" refX="6" refY="5" markerUnits="userSpaceOnUse" markerWidth="12" markerHeight="12" orient="auto"><path d="M 0 0 L 10 5 L 0 10 z" class="arrowMarkerPath" style="stroke-width: 1; stroke-dasharray: 1, 0;"></path></marker><marker id="pdf_mermaid_37_flowchart-pointStart" class="marker flowchart" viewBox="0 0 10 10" refX="4.5" refY="5" markerUnits="userSpaceOnUse" markerWidth="12" markerHeight="12" orient="auto"><path d="M 0 5 L 10 10 L 10 0 z" class="arrowMarkerPath" style="stroke-width: 1; stroke-dasharray: 1, 0;"></path></marker><marker id="pdf_mermaid_37_flowchart-circleEnd" class="marker flowchart" viewBox="0 0 10 10" refX="11" refY="5" markerUnits="userSpaceOnUse" markerWidth="11" markerHeight="11" orient="auto"><circle cx="5" cy="5" r="5" class="arrowMarkerPath" style="stroke-width: 1; stroke-dasharray: 1, 0;"></circle></marker><marker id="pdf_mermaid_37_flowchart-circleStart" class="marker flowchart" viewBox="0 0 10 10" refX="-1" refY="5" markerUnits="userSpaceOnUse" markerWidth="11" markerHeight="11" orient="auto"><circle cx="5" cy="5" r="5" class="arrowMarkerPath" style="stroke-width: 1; stroke-dasharray: 1, 0;"></circle></marker><marker id="pdf_mermaid_37_flowchart-crossEnd" class="marker cross flowchart" viewBox="0 0 11 11" refX="12" refY="5.2" markerUnits="userSpaceOnUse" markerWidth="11" markerHeight="11" orient="auto"><path d="M 1,1 l 9,9 M 10,1 l -9,9" class="arrowMarkerPath" style="stroke-width: 2; stroke-dasharray: 1, 0;"></path></marker><marker id="pdf_mermaid_37_flowchart-crossStart" class="marker cross flowchart" viewBox="0 0 11 11" refX="-1" refY="5.2" markerUnits="userSpaceOnUse" markerWidth="11" markerHeight="11" orient="auto"><path d="M 1,1 l 9,9 M 10,1 l -9,9" class="arrowMarkerPath" style="stroke-width: 2; stroke-dasharray: 1, 0;"></path></marker><g class="root"><g class="clusters"></g><g class="edgePaths"><path d="M77.723,257.813L91.543,234.786C105.362,211.76,133.001,165.708,150.104,142.682C167.207,119.656,173.774,119.656,177.057,119.656L180.341,119.656" id="L-A-B-0" class="edge-thickness-normal edge-pattern-solid flowchart-link LS-A LE-B" style="fill:none;" marker-end="url(#pdf_mermaid_37_flowchart-pointEnd)"></path><path d="M316.875,119.656L321.042,119.656C325.208,119.656,333.542,119.656,341.075,119.722C348.609,119.788,355.342,119.92,358.709,119.986L362.076,120.052" id="L-B-C-0" class="edge-thickness-normal edge-pattern-solid flowchart-link LS-B LE-C" style="fill:none;" marker-end="url(#pdf_mermaid_37_flowchart-pointEnd)"></path><path d="M606.688,120.156L612.915,120.073C619.143,119.99,631.599,119.823,651.682,129.373C671.765,138.924,699.474,158.191,713.329,167.825L727.184,177.459" id="L-C-D-0" class="edge-thickness-normal edge-pattern-solid flowchart-link LS-C LE-D" style="fill:none;" marker-end="url(#pdf_mermaid_37_flowchart-pointEnd)"></path><path d="M538.225,188.618L555.864,212.234C573.502,235.85,608.778,283.081,631.844,306.697C654.91,330.313,665.766,330.313,671.194,330.313L676.622,330.313" id="L-C-E-0" class="edge-thickness-normal edge-pattern-solid flowchart-link LS-C LE-E" style="fill:none;" marker-end="url(#pdf_mermaid_37_flowchart-pointEnd)"></path><path d="M785.418,313.813L796.783,307.593C808.148,301.374,830.879,288.935,845.527,282.715C860.176,276.496,866.743,276.496,870.026,276.496L873.309,276.496" id="L-E-F-0" class="edge-thickness-normal edge-pattern-solid flowchart-link LS-E LE-F" style="fill:none;" marker-end="url(#pdf_mermaid_37_flowchart-pointEnd)"></path><path d="M1075.328,276.496L1079.495,276.496C1083.661,276.496,1091.995,276.496,1099.445,276.496C1106.895,276.496,1113.461,276.496,1116.745,276.496L1120.028,276.496" id="L-F-G-0" class="edge-thickness-normal edge-pattern-solid flowchart-link LS-F LE-G" style="fill:none;" marker-end="url(#pdf_mermaid_37_flowchart-pointEnd)"></path><path d="M1327.141,276.496L1331.307,276.496C1335.474,276.496,1343.807,276.496,1351.341,276.562C1358.874,276.628,1365.608,276.76,1368.975,276.826L1372.342,276.892" id="L-G-H-0" class="edge-thickness-normal edge-pattern-solid flowchart-link LS-G LE-H" style="fill:none;" marker-end="url(#pdf_mermaid_37_flowchart-pointEnd)"></path><path d="M1522.906,276.996L1529.134,276.913C1535.362,276.829,1547.818,276.663,1569.013,282.475C1590.208,288.287,1620.143,300.079,1635.111,305.974L1650.078,311.87" id="L-H-I-0" class="edge-thickness-normal edge-pattern-solid flowchart-link LS-H LE-I" style="fill:none;" marker-end="url(#pdf_mermaid_37_flowchart-pointEnd)"></path><path d="M1482.75,317.153L1495.67,333.149C1508.591,349.145,1534.432,381.137,1555.342,398.712C1576.251,416.286,1592.228,419.444,1600.217,421.023L1608.206,422.601" id="L-H-J-0" class="edge-thickness-normal edge-pattern-solid flowchart-link LS-H LE-J" style="fill:none;" marker-end="url(#pdf_mermaid_37_flowchart-pointEnd)"></path><path d="M1655.009,346.813L1639.22,353.032C1623.431,359.251,1591.852,371.69,1557.646,377.91C1523.44,384.129,1486.607,384.129,1451.918,384.129C1417.229,384.129,1384.685,384.129,1347.428,384.129C1310.172,384.129,1268.203,384.129,1226.234,384.129C1184.266,384.129,1142.297,384.129,1100.753,384.129C1059.208,384.129,1018.089,384.129,976.969,384.129C935.849,384.129,894.729,384.129,863.579,378.334C832.429,372.538,811.248,360.947,800.657,355.152L790.067,349.357" id="L-I-E-0" class="edge-thickness-normal edge-pattern-solid flowchart-link LS-I LE-E" style="fill:none;" marker-end="url(#pdf_mermaid_37_flowchart-pointEnd)"></path><path d="M1610.156,449.335L1601.842,450.217C1593.529,451.1,1576.901,452.864,1550.171,453.747C1523.44,454.629,1486.607,454.629,1451.918,454.629C1417.229,454.629,1384.685,454.629,1347.428,454.629C1310.172,454.629,1268.203,454.629,1226.234,454.629C1184.266,454.629,1142.297,454.629,1100.753,454.629C1059.208,454.629,1018.089,454.629,976.969,454.629C935.849,454.629,894.729,454.629,857.779,454.629C820.828,454.629,788.047,454.629,753.121,454.629C718.195,454.629,681.125,454.629,636.336,454.629C591.547,454.629,539.039,454.629,488.676,454.629C438.313,454.629,390.094,454.629,350.882,454.629C311.669,454.629,281.464,454.629,251.258,454.629C221.052,454.629,190.846,454.629,162.093,428.112C133.34,401.594,106.04,348.56,92.39,322.042L78.74,295.525" id="L-J-A-0" class="edge-thickness-normal edge-pattern-solid flowchart-link LS-J LE-A" style="fill:none;" marker-end="url(#pdf_mermaid_37_flowchart-pointEnd)"></path><path d="M731.536,213.484L716.956,223.622C702.375,233.76,673.215,254.036,632.381,264.174C591.547,274.313,539.039,274.313,488.676,274.313C438.313,274.313,390.094,274.313,350.882,274.313C311.669,274.313,281.464,274.313,251.258,274.313C221.052,274.313,190.846,274.313,172.46,274.313C154.074,274.313,147.507,274.313,144.224,274.313L140.941,274.313" id="L-D-A-0" class="edge-thickness-normal edge-pattern-solid flowchart-link LS-D LE-A" style="fill:none;" marker-end="url(#pdf_mermaid_37_flowchart-pointEnd)"></path></g><g class="edgeLabels"><g class="edgeLabel"><g class="label" transform="translate(0, 0)"><foreignObject width="0" height="0"><div xmlns="http://www.w3.org/1999/xhtml" style="display: inline-block; white-space: nowrap;"><span class="edgeLabel"></span></div></foreignObject></g></g><g class="edgeLabel"><g class="label" transform="translate(0, 0)"><foreignObject width="0" height="0"><div xmlns="http://www.w3.org/1999/xhtml" style="display: inline-block; white-space: nowrap;"><span class="edgeLabel"></span></div></foreignObject></g></g><g class="edgeLabel" transform="translate(644.0546875, 119.65625)"><g class="label" transform="translate(-10.3515625, -9)"><foreignObject width="20.703125" height="18"><div xmlns="http://www.w3.org/1999/xhtml" style="display: inline-block; white-space: nowrap;"><span class="edgeLabel">No</span></div></foreignObject></g></g><g class="edgeLabel" transform="translate(644.0546875, 330.3125)"><g class="label" transform="translate(-12.8671875, -9)"><foreignObject width="25.734375" height="18"><div xmlns="http://www.w3.org/1999/xhtml" style="display: inline-block; white-space: nowrap;"><span class="edgeLabel">Yes</span></div></foreignObject></g></g><g class="edgeLabel"><g class="label" transform="translate(0, 0)"><foreignObject width="0" height="0"><div xmlns="http://www.w3.org/1999/xhtml" style="display: inline-block; white-space: nowrap;"><span class="edgeLabel"></span></div></foreignObject></g></g><g class="edgeLabel"><g class="label" transform="translate(0, 0)"><foreignObject width="0" height="0"><div xmlns="http://www.w3.org/1999/xhtml" style="display: inline-block; white-space: nowrap;"><span class="edgeLabel"></span></div></foreignObject></g></g><g class="edgeLabel"><g class="label" transform="translate(0, 0)"><foreignObject width="0" height="0"><div xmlns="http://www.w3.org/1999/xhtml" style="display: inline-block; white-space: nowrap;"><span class="edgeLabel"></span></div></foreignObject></g></g><g class="edgeLabel" transform="translate(1560.2734375, 276.49609375)"><g class="label" transform="translate(-10.3515625, -9)"><foreignObject width="20.703125" height="18"><div xmlns="http://www.w3.org/1999/xhtml" style="display: inline-block; white-space: nowrap;"><span class="edgeLabel">No</span></div></foreignObject></g></g><g class="edgeLabel" transform="translate(1560.2734375, 413.12890625)"><g class="label" transform="translate(-12.8671875, -9)"><foreignObject width="25.734375" height="18"><div xmlns="http://www.w3.org/1999/xhtml" style="display: inline-block; white-space: nowrap;"><span class="edgeLabel">Yes</span></div></foreignObject></g></g><g class="edgeLabel"><g class="label" transform="translate(0, 0)"><foreignObject width="0" height="0"><div xmlns="http://www.w3.org/1999/xhtml" style="display: inline-block; white-space: nowrap;"><span class="edgeLabel"></span></div></foreignObject></g></g><g class="edgeLabel"><g class="label" transform="translate(0, 0)"><foreignObject width="0" height="0"><div xmlns="http://www.w3.org/1999/xhtml" style="display: inline-block; white-space: nowrap;"><span class="edgeLabel"></span></div></foreignObject></g></g><g class="edgeLabel"><g class="label" transform="translate(0, 0)"><foreignObject width="0" height="0"><div xmlns="http://www.w3.org/1999/xhtml" style="display: inline-block; white-space: nowrap;"><span class="edgeLabel"></span></div></foreignObject></g></g></g><g class="nodes"><g class="node default default flowchart-label" id="flowchart-A-797" data-node="true" data-id="A" transform="translate(67.8203125, 274.3125)"><rect class="basic label-container" style="" rx="0" ry="0" x="-67.8203125" y="-16.5" width="135.640625" height="33"></rect><g class="label" style="" transform="translate(-60.3203125, -9)"><rect></rect><foreignObject width="120.640625" height="18"><div xmlns="http://www.w3.org/1999/xhtml" style="display: inline-block; white-space: nowrap;"><span class="nodeLabel">Production trace</span></div></foreignObject></g></g><g class="node default default flowchart-label" id="flowchart-B-798" data-node="true" data-id="B" transform="translate(251.2578125, 119.65625)"><rect class="basic label-container" style="" rx="0" ry="0" x="-65.6171875" y="-16.5" width="131.234375" height="33"></rect><g class="label" style="" transform="translate(-58.1171875, -9)"><rect></rect><foreignObject width="116.234375" height="18"><div xmlns="http://www.w3.org/1999/xhtml" style="display: inline-block; white-space: nowrap;"><span class="nodeLabel">Operator review</span></div></foreignObject></g></g><g class="node default default flowchart-label" id="flowchart-C-800" data-node="true" data-id="C" transform="translate(486.53125, 119.65625)"><polygon points="119.65625,0 239.3125,-119.65625 119.65625,-239.3125 0,-119.65625" class="label-container" transform="translate(-119.65625,119.65625)" style=""></polygon><g class="label" style="" transform="translate(-95.65625, -9)"><rect></rect><foreignObject width="191.3125" height="18"><div xmlns="http://www.w3.org/1999/xhtml" style="display: inline-block; white-space: nowrap;"><span class="nodeLabel">Failure, drift, or near miss?</span></div></foreignObject></g></g><g class="node default default flowchart-label" id="flowchart-D-802" data-node="true" data-id="D" transform="translate(755.265625, 196.984375)"><rect class="basic label-container" style="" rx="0" ry="0" x="-56.6953125" y="-16.5" width="113.390625" height="33"></rect><g class="label" style="" transform="translate(-49.1953125, -9)"><rect></rect><foreignObject width="98.390625" height="18"><div xmlns="http://www.w3.org/1999/xhtml" style="display: inline-block; white-space: nowrap;"><span class="nodeLabel">Monitor trend</span></div></foreignObject></g></g><g class="node default default flowchart-label" id="flowchart-E-804" data-node="true" data-id="E" transform="translate(755.265625, 330.3125)"><rect class="basic label-container" style="" rx="0" ry="0" x="-73.34375" y="-16.5" width="146.6875" height="33"></rect><g class="label" style="" transform="translate(-65.84375, -9)"><rect></rect><foreignObject width="131.6875" height="18"><div xmlns="http://www.w3.org/1999/xhtml" style="display: inline-block; white-space: nowrap;"><span class="nodeLabel">Create eval fixture</span></div></foreignObject></g></g><g class="node default default flowchart-label" id="flowchart-F-806" data-node="true" data-id="F" transform="translate(976.96875, 276.49609375)"><rect class="basic label-container" style="" rx="0" ry="0" x="-98.359375" y="-16.5" width="196.71875" height="33"></rect><g class="label" style="" transform="translate(-90.859375, -9)"><rect></rect><foreignObject width="181.71875" height="18"><div xmlns="http://www.w3.org/1999/xhtml" style="display: inline-block; white-space: nowrap;"><span class="nodeLabel">Add owner and threshold</span></div></foreignObject></g></g><g class="node default default flowchart-label" id="flowchart-G-808" data-node="true" data-id="G" transform="translate(1226.234375, 276.49609375)"><rect class="basic label-container" style="" rx="0" ry="0" x="-100.90625" y="-16.5" width="201.8125" height="33"></rect><g class="label" style="" transform="translate(-93.40625, -9)"><rect></rect><foreignObject width="186.8125" height="18"><div xmlns="http://www.w3.org/1999/xhtml" style="display: inline-block; white-space: nowrap;"><span class="nodeLabel">Run targeted release gate</span></div></foreignObject></g></g><g class="node default default flowchart-label" id="flowchart-H-810" data-node="true" data-id="H" transform="translate(1449.7734375, 276.49609375)"><polygon points="72.6328125,0 145.265625,-72.6328125 72.6328125,-145.265625 0,-72.6328125" class="label-container" transform="translate(-72.6328125,72.6328125)" style=""></polygon><g class="label" style="" transform="translate(-48.6328125, -9)"><rect></rect><foreignObject width="97.265625" height="18"><div xmlns="http://www.w3.org/1999/xhtml" style="display: inline-block; white-space: nowrap;"><span class="nodeLabel">Gate passes?</span></div></foreignObject></g></g><g class="node default default flowchart-label" id="flowchart-I-812" data-node="true" data-id="I" transform="translate(1696.8984375, 330.3125)"><rect class="basic label-container" style="" rx="0" ry="0" x="-98.7578125" y="-16.5" width="197.515625" height="33"></rect><g class="label" style="" transform="translate(-91.2578125, -9)"><rect></rect><foreignObject width="182.515625" height="18"><div xmlns="http://www.w3.org/1999/xhtml" style="display: inline-block; white-space: nowrap;"><span class="nodeLabel">Block or roll back change</span></div></foreignObject></g></g><g class="node default default flowchart-label" id="flowchart-J-814" data-node="true" data-id="J" transform="translate(1696.8984375, 440.12890625)"><rect class="basic label-container" style="" rx="0" ry="0" x="-86.7421875" y="-16.5" width="173.484375" height="33"></rect><g class="label" style="" transform="translate(-79.2421875, -9)"><rect></rect><foreignObject width="158.484375" height="18"><div xmlns="http://www.w3.org/1999/xhtml" style="display: inline-block; white-space: nowrap;"><span class="nodeLabel">Ship or expand rollout</span></div></foreignObject></g></g></g></g></g></svg>