<svg id="pdf_mermaid_40" width="100%" xmlns="http://www.w3.org/2000/svg" style="max-width: 1923.015625px;" viewBox="-8 -8 1923.015625 436.65234375" role="graphics-document document" aria-roledescription="flowchart-v2"><style>#pdf_mermaid_40{font-family:Inter,system-ui,sans-serif;font-size:16px;fill:#173f4f;}#pdf_mermaid_40 .error-icon{fill:#fffaf0;}#pdf_mermaid_40 .error-text{fill:#00050f;stroke:#00050f;}#pdf_mermaid_40 .edge-thickness-normal{stroke-width:2px;}#pdf_mermaid_40 .edge-thickness-thick{stroke-width:3.5px;}#pdf_mermaid_40 .edge-pattern-solid{stroke-dasharray:0;}#pdf_mermaid_40 .edge-pattern-dashed{stroke-dasharray:3;}#pdf_mermaid_40 .edge-pattern-dotted{stroke-dasharray:2;}#pdf_mermaid_40 .marker{fill:#527887;stroke:#527887;}#pdf_mermaid_40 .marker.cross{stroke:#527887;}#pdf_mermaid_40 svg{font-family:Inter,system-ui,sans-serif;font-size:16px;}#pdf_mermaid_40 .label{font-family:Inter,system-ui,sans-serif;color:#173f4f;}#pdf_mermaid_40 .cluster-label text{fill:#00050f;}#pdf_mermaid_40 .cluster-label span,#pdf_mermaid_40 p{color:#00050f;}#pdf_mermaid_40 .label text,#pdf_mermaid_40 span,#pdf_mermaid_40 p{fill:#173f4f;color:#173f4f;}#pdf_mermaid_40 .node rect,#pdf_mermaid_40 .node circle,#pdf_mermaid_40 .node ellipse,#pdf_mermaid_40 .node polygon,#pdf_mermaid_40 .node path{fill:#f6efe2;stroke:#c7a76a;stroke-width:1px;}#pdf_mermaid_40 .flowchart-label text{text-anchor:middle;}#pdf_mermaid_40 .node .katex path{fill:#000;stroke:#000;stroke-width:1px;}#pdf_mermaid_40 .node .label{text-align:center;}#pdf_mermaid_40 .node.clickable{cursor:pointer;}#pdf_mermaid_40 .arrowheadPath{fill:#0b0b0b;}#pdf_mermaid_40 .edgePath .path{stroke:#527887;stroke-width:2.0px;}#pdf_mermaid_40 .flowchart-link{stroke:#527887;fill:none;}#pdf_mermaid_40 .edgeLabel{background-color:#e8f0ed;text-align:center;}#pdf_mermaid_40 .edgeLabel rect{opacity:0.5;background-color:#e8f0ed;fill:#e8f0ed;}#pdf_mermaid_40 .labelBkg{background-color:rgba(232, 240, 237, 0.5);}#pdf_mermaid_40 .cluster rect{fill:#fffaf0;stroke:hsl(40, 60%, 87.0588235294%);stroke-width:1px;}#pdf_mermaid_40 .cluster text{fill:#00050f;}#pdf_mermaid_40 .cluster span,#pdf_mermaid_40 p{color:#00050f;}#pdf_mermaid_40 div.mermaidTooltip{position:absolute;text-align:center;max-width:200px;padding:2px;font-family:Inter,system-ui,sans-serif;font-size:12px;background:#fffaf0;border:1px solid hsl(40, 60%, 87.0588235294%);border-radius:2px;pointer-events:none;z-index:100;}#pdf_mermaid_40 .flowchartTitleText{text-anchor:middle;font-size:18px;fill:#173f4f;}#pdf_mermaid_40 :root{--mermaid-font-family:"trebuchet ms",verdana,arial,sans-serif;}</style><g><marker id="pdf_mermaid_40_flowchart-pointEnd" class="marker flowchart" viewBox="0 0 10 10" refX="6" refY="5" markerUnits="userSpaceOnUse" markerWidth="12" markerHeight="12" orient="auto"><path d="M 0 0 L 10 5 L 0 10 z" class="arrowMarkerPath" style="stroke-width: 1; stroke-dasharray: 1, 0;"></path></marker><marker id="pdf_mermaid_40_flowchart-pointStart" class="marker flowchart" viewBox="0 0 10 10" refX="4.5" refY="5" markerUnits="userSpaceOnUse" markerWidth="12" markerHeight="12" orient="auto"><path d="M 0 5 L 10 10 L 10 0 z" class="arrowMarkerPath" style="stroke-width: 1; stroke-dasharray: 1, 0;"></path></marker><marker id="pdf_mermaid_40_flowchart-circleEnd" class="marker flowchart" viewBox="0 0 10 10" refX="11" refY="5" markerUnits="userSpaceOnUse" markerWidth="11" markerHeight="11" orient="auto"><circle cx="5" cy="5" r="5" class="arrowMarkerPath" style="stroke-width: 1; stroke-dasharray: 1, 0;"></circle></marker><marker id="pdf_mermaid_40_flowchart-circleStart" class="marker flowchart" viewBox="0 0 10 10" refX="-1" refY="5" markerUnits="userSpaceOnUse" markerWidth="11" markerHeight="11" orient="auto"><circle cx="5" cy="5" r="5" class="arrowMarkerPath" style="stroke-width: 1; stroke-dasharray: 1, 0;"></circle></marker><marker id="pdf_mermaid_40_flowchart-crossEnd" class="marker cross flowchart" viewBox="0 0 11 11" refX="12" refY="5.2" markerUnits="userSpaceOnUse" markerWidth="11" markerHeight="11" orient="auto"><path d="M 1,1 l 9,9 M 10,1 l -9,9" class="arrowMarkerPath" style="stroke-width: 2; stroke-dasharray: 1, 0;"></path></marker><marker id="pdf_mermaid_40_flowchart-crossStart" class="marker cross flowchart" viewBox="0 0 11 11" refX="-1" refY="5.2" markerUnits="userSpaceOnUse" markerWidth="11" markerHeight="11" orient="auto"><path d="M 1,1 l 9,9 M 10,1 l -9,9" class="arrowMarkerPath" style="stroke-width: 2; stroke-dasharray: 1, 0;"></path></marker><g class="root"><g class="clusters"></g><g class="edgePaths"><path d="M157.609,271.332L161.776,271.332C165.943,271.332,174.276,271.332,181.726,271.332C189.176,271.332,195.743,271.332,199.026,271.332L202.309,271.332" id="L-A-B-0" class="edge-thickness-normal edge-pattern-solid flowchart-link LS-A LE-B" style="fill:none;" marker-end="url(#pdf_mermaid_40_flowchart-pointEnd)"></path><path d="M511.422,271.332L515.589,271.332C519.755,271.332,528.089,271.332,535.622,271.398C543.156,271.464,549.889,271.596,553.256,271.662L556.623,271.728" id="L-B-C-0" class="edge-thickness-normal edge-pattern-solid flowchart-link LS-B LE-C" style="fill:none;" marker-end="url(#pdf_mermaid_40_flowchart-pointEnd)"></path><path d="M713.658,316.471L726.906,327.501C740.155,338.531,766.652,360.592,806.999,371.622C847.346,382.652,901.544,382.652,956.161,382.652C1010.779,382.652,1065.815,382.652,1117.085,382.652C1168.354,382.652,1215.857,382.652,1271.734,382.652C1327.612,382.652,1391.865,382.652,1437.798,383.932C1483.73,385.212,1511.344,387.771,1525.15,389.05L1538.957,390.33" id="L-C-S-0" class="edge-thickness-normal edge-pattern-solid flowchart-link LS-C LE-S" style="fill:none;" marker-end="url(#pdf_mermaid_40_flowchart-pointEnd)"></path><path d="M721.191,234.727L733.184,227.307C745.177,219.888,769.163,205.049,786.248,197.701C803.332,190.353,813.516,190.495,818.609,190.566L823.701,190.637" id="L-C-D-0" class="edge-thickness-normal edge-pattern-solid flowchart-link LS-C LE-D" style="fill:none;" marker-end="url(#pdf_mermaid_40_flowchart-pointEnd)"></path><path d="M1040.05,234.145L1053.517,241.085C1066.984,248.024,1093.918,261.903,1117.796,268.842C1141.673,275.781,1162.495,275.781,1172.906,275.781L1183.317,275.781" id="L-D-P-0" class="edge-thickness-normal edge-pattern-solid flowchart-link LS-D LE-P" style="fill:none;" marker-end="url(#pdf_mermaid_40_flowchart-pointEnd)"></path><path d="M1040.05,147.276L1053.517,140.17C1066.984,133.064,1093.918,118.853,1112.896,111.818C1131.874,104.784,1142.897,104.928,1148.408,105L1153.919,105.072" id="L-D-E-0" class="edge-thickness-normal edge-pattern-solid flowchart-link LS-D LE-E" style="fill:none;" marker-end="url(#pdf_mermaid_40_flowchart-pointEnd)"></path><path d="M1359.111,95.752L1375.279,94.067C1391.446,92.381,1423.782,89.011,1454.933,87.326C1486.085,85.641,1516.053,85.641,1531.036,85.641L1546.02,85.641" id="L-E-G-0" class="edge-thickness-normal edge-pattern-solid flowchart-link LS-E LE-G" style="fill:none;" marker-end="url(#pdf_mermaid_40_flowchart-pointEnd)"></path><path d="M1341.638,132.002L1360.718,138.537C1379.798,145.072,1417.958,158.141,1457.31,175.764C1496.662,193.387,1537.207,215.562,1557.48,226.65L1577.752,237.738" id="L-E-R-0" class="edge-thickness-normal edge-pattern-solid flowchart-link LS-E LE-R" style="fill:none;" marker-end="url(#pdf_mermaid_40_flowchart-pointEnd)"></path><path d="M1338.102,275.781L1357.771,275.781C1377.44,275.781,1416.779,275.781,1454.953,273.534C1493.126,271.287,1530.136,266.792,1548.64,264.545L1567.145,262.298" id="L-P-R-0" class="edge-thickness-normal edge-pattern-solid flowchart-link LS-P LE-R" style="fill:none;" marker-end="url(#pdf_mermaid_40_flowchart-pointEnd)"></path><path d="M1286.768,292.281L1314.993,312.176C1343.217,332.072,1399.667,371.862,1441.699,390.478C1483.73,409.093,1511.344,406.534,1525.15,405.254L1538.957,403.975" id="L-P-S-0" class="edge-thickness-normal edge-pattern-solid flowchart-link LS-P LE-S" style="fill:none;" marker-end="url(#pdf_mermaid_40_flowchart-pointEnd)"></path><path d="M1673.82,85.641L1679.168,85.641C1684.516,85.641,1695.211,85.641,1717.098,110.677C1738.984,135.713,1772.062,185.786,1788.601,210.823L1805.14,235.859" id="L-G-T-0" class="edge-thickness-normal edge-pattern-solid flowchart-link LS-G LE-T" style="fill:none;" marker-end="url(#pdf_mermaid_40_flowchart-pointEnd)"></path><path d="M1652.734,256.781L1661.596,256.781C1670.458,256.781,1688.182,256.781,1700.328,256.781C1712.473,256.781,1719.04,256.781,1722.323,256.781L1725.606,256.781" id="L-R-T-0" class="edge-thickness-normal edge-pattern-solid flowchart-link LS-R LE-T" style="fill:none;" marker-end="url(#pdf_mermaid_40_flowchart-pointEnd)"></path><path d="M1680.906,397.152L1685.073,397.152C1689.24,397.152,1697.573,397.152,1717.813,377.195C1738.053,357.238,1770.2,317.323,1786.274,297.366L1802.347,277.409" id="L-S-T-0" class="edge-thickness-normal edge-pattern-solid flowchart-link LS-S LE-T" style="fill:none;" marker-end="url(#pdf_mermaid_40_flowchart-pointEnd)"></path></g><g class="edgeLabels"><g class="edgeLabel"><g class="label" transform="translate(0, 0)"><foreignObject width="0" height="0"><div xmlns="http://www.w3.org/1999/xhtml" style="display: inline-block; white-space: nowrap;"><span class="edgeLabel"></span></div></foreignObject></g></g><g class="edgeLabel"><g class="label" transform="translate(0, 0)"><foreignObject width="0" height="0"><div xmlns="http://www.w3.org/1999/xhtml" style="display: inline-block; white-space: nowrap;"><span class="edgeLabel"></span></div></foreignObject></g></g><g class="edgeLabel" transform="translate(1120.8515625, 382.65234375)"><g class="label" transform="translate(-12.8671875, -9)"><foreignObject width="25.734375" height="18"><div xmlns="http://www.w3.org/1999/xhtml" style="display: inline-block; white-space: nowrap;"><span class="edgeLabel">Yes</span></div></foreignObject></g></g><g class="edgeLabel" transform="translate(793.1484375, 190.2109375)"><g class="label" transform="translate(-10.3515625, -9)"><foreignObject width="20.703125" height="18"><div xmlns="http://www.w3.org/1999/xhtml" style="display: inline-block; white-space: nowrap;"><span class="edgeLabel">No</span></div></foreignObject></g></g><g class="edgeLabel" transform="translate(1120.8515625, 275.78125)"><g class="label" transform="translate(-12.8671875, -9)"><foreignObject width="25.734375" height="18"><div xmlns="http://www.w3.org/1999/xhtml" style="display: inline-block; white-space: nowrap;"><span class="edgeLabel">Yes</span></div></foreignObject></g></g><g class="edgeLabel" transform="translate(1120.8515625, 104.640625)"><g class="label" transform="translate(-10.3515625, -9)"><foreignObject width="20.703125" height="18"><div xmlns="http://www.w3.org/1999/xhtml" style="display: inline-block; white-space: nowrap;"><span class="edgeLabel">No</span></div></foreignObject></g></g><g class="edgeLabel" transform="translate(1456.1171875, 85.640625)"><g class="label" transform="translate(-12.8671875, -9)"><foreignObject width="25.734375" height="18"><div xmlns="http://www.w3.org/1999/xhtml" style="display: inline-block; white-space: nowrap;"><span class="edgeLabel">Yes</span></div></foreignObject></g></g><g class="edgeLabel" transform="translate(1456.1171875, 171.2109375)"><g class="label" transform="translate(-10.3515625, -9)"><foreignObject width="20.703125" height="18"><div xmlns="http://www.w3.org/1999/xhtml" style="display: inline-block; white-space: nowrap;"><span class="edgeLabel">No</span></div></foreignObject></g></g><g class="edgeLabel" transform="translate(1456.1171875, 275.78125)"><g class="label" transform="translate(-34.09375, -9)"><foreignObject width="68.1875" height="18"><div xmlns="http://www.w3.org/1999/xhtml" style="display: inline-block; white-space: nowrap;"><span class="edgeLabel">approved</span></div></foreignObject></g></g><g class="edgeLabel" transform="translate(1456.1171875, 411.65234375)"><g class="label" transform="translate(-63.1171875, -9)"><foreignObject width="126.234375" height="18"><div xmlns="http://www.w3.org/1999/xhtml" style="display: inline-block; white-space: nowrap;"><span class="edgeLabel">denied or expired</span></div></foreignObject></g></g><g class="edgeLabel"><g class="label" transform="translate(0, 0)"><foreignObject width="0" height="0"><div xmlns="http://www.w3.org/1999/xhtml" style="display: inline-block; white-space: nowrap;"><span class="edgeLabel"></span></div></foreignObject></g></g><g class="edgeLabel"><g class="label" transform="translate(0, 0)"><foreignObject width="0" height="0"><div xmlns="http://www.w3.org/1999/xhtml" style="display: inline-block; white-space: nowrap;"><span class="edgeLabel"></span></div></foreignObject></g></g><g class="edgeLabel"><g class="label" transform="translate(0, 0)"><foreignObject width="0" height="0"><div xmlns="http://www.w3.org/1999/xhtml" style="display: inline-block; white-space: nowrap;"><span class="edgeLabel"></span></div></foreignObject></g></g></g><g class="nodes"><g class="node default default flowchart-label" id="flowchart-A-869" data-node="true" data-id="A" transform="translate(78.8046875, 271.33203125)"><rect class="basic label-container" style="" rx="0" ry="0" x="-78.8046875" y="-16.5" width="157.609375" height="33"></rect><g class="label" style="" transform="translate(-71.3046875, -9)"><rect></rect><foreignObject width="142.609375" height="18"><div xmlns="http://www.w3.org/1999/xhtml" style="display: inline-block; white-space: nowrap;"><span class="nodeLabel">Planned next action</span></div></foreignObject></g></g><g class="node default default flowchart-label" id="flowchart-B-870" data-node="true" data-id="B" transform="translate(359.515625, 271.33203125)"><rect class="basic label-container" style="" rx="0" ry="0" x="-151.90625" y="-16.5" width="303.8125" height="33"></rect><g class="label" style="" transform="translate(-144.40625, -9)"><rect></rect><foreignObject width="288.8125" height="18"><div xmlns="http://www.w3.org/1999/xhtml" style="display: inline-block; white-space: nowrap;"><span class="nodeLabel">Project cost, time, calls, retries, and risk</span></div></foreignObject></g></g><g class="node default default flowchart-label" id="flowchart-C-872" data-node="true" data-id="C" transform="translate(659.609375, 271.33203125)"><polygon points="98.1875,0 196.375,-98.1875 98.1875,-196.375 0,-98.1875" class="label-container" transform="translate(-98.1875,98.1875)" style=""></polygon><g class="label" style="" transform="translate(-74.1875, -9)"><rect></rect><foreignObject width="148.375" height="18"><div xmlns="http://www.w3.org/1999/xhtml" style="display: inline-block; white-space: nowrap;"><span class="nodeLabel">Hard cap exceeded?</span></div></foreignObject></g></g><g class="node default default flowchart-label" id="flowchart-S-874" data-node="true" data-id="S" transform="translate(1612.5703125, 397.15234375)"><rect class="basic label-container" style="" rx="0" ry="0" x="-68.3359375" y="-16.5" width="136.671875" height="33"></rect><g class="label" style="" transform="translate(-60.8359375, -9)"><rect></rect><foreignObject width="121.671875" height="18"><div xmlns="http://www.w3.org/1999/xhtml" style="display: inline-block; white-space: nowrap;"><span class="nodeLabel">Stop with reason</span></div></foreignObject></g></g><g class="node default default flowchart-label" id="flowchart-D-876" data-node="true" data-id="D" transform="translate(955.7421875, 190.2109375)"><polygon points="127.2421875,0 254.484375,-127.2421875 127.2421875,-254.484375 0,-127.2421875" class="label-container" transform="translate(-127.2421875,127.2421875)" style=""></polygon><g class="label" style="" transform="translate(-103.2421875, -9)"><rect></rect><foreignObject width="206.484375" height="18"><div xmlns="http://www.w3.org/1999/xhtml" style="display: inline-block; white-space: nowrap;"><span class="nodeLabel">Approval threshold crossed?</span></div></foreignObject></g></g><g class="node default default flowchart-label" id="flowchart-P-878" data-node="true" data-id="P" transform="translate(1263.359375, 275.78125)"><rect class="basic label-container" style="" rx="0" ry="0" x="-74.7421875" y="-16.5" width="149.484375" height="33"></rect><g class="label" style="" transform="translate(-67.2421875, -9)"><rect></rect><foreignObject width="134.484375" height="18"><div xmlns="http://www.w3.org/1999/xhtml" style="display: inline-block; white-space: nowrap;"><span class="nodeLabel">Pause for approval</span></div></foreignObject></g></g><g class="node default default flowchart-label" id="flowchart-E-880" data-node="true" data-id="E" transform="translate(1263.359375, 104.640625)"><polygon points="104.640625,0 209.28125,-104.640625 104.640625,-209.28125 0,-104.640625" class="label-container" transform="translate(-104.640625,104.640625)" style=""></polygon><g class="label" style="" transform="translate(-80.640625, -9)"><rect></rect><foreignObject width="161.28125" height="18"><div xmlns="http://www.w3.org/1999/xhtml" style="display: inline-block; white-space: nowrap;"><span class="nodeLabel">Soft budget pressure?</span></div></foreignObject></g></g><g class="node default default flowchart-label" id="flowchart-G-882" data-node="true" data-id="G" transform="translate(1612.5703125, 85.640625)"><rect class="basic label-container" style="" rx="0" ry="0" x="-61.25" y="-16.5" width="122.5" height="33"></rect><g class="label" style="" transform="translate(-53.75, -9)"><rect></rect><foreignObject width="107.5" height="18"><div xmlns="http://www.w3.org/1999/xhtml" style="display: inline-block; white-space: nowrap;"><span class="nodeLabel">Degrade mode</span></div></foreignObject></g></g><g class="node default default flowchart-label" id="flowchart-R-884" data-node="true" data-id="R" transform="translate(1612.5703125, 256.78125)"><rect class="basic label-container" style="" rx="0" ry="0" x="-40.1640625" y="-16.5" width="80.328125" height="33"></rect><g class="label" style="" transform="translate(-32.6640625, -9)"><rect></rect><foreignObject width="65.328125" height="18"><div xmlns="http://www.w3.org/1999/xhtml" style="display: inline-block; white-space: nowrap;"><span class="nodeLabel">Continue</span></div></foreignObject></g></g><g class="node default default flowchart-label" id="flowchart-T-890" data-node="true" data-id="T" transform="translate(1818.9609375, 256.78125)"><rect class="basic label-container" style="" rx="0" ry="0" x="-88.0546875" y="-16.5" width="176.109375" height="33"></rect><g class="label" style="" transform="translate(-80.5546875, -9)"><rect></rect><foreignObject width="161.109375" height="18"><div xmlns="http://www.w3.org/1999/xhtml" style="display: inline-block; white-space: nowrap;"><span class="nodeLabel">Trace budget decision</span></div></foreignObject></g></g></g></g></g></svg>