<svg id="pdf_mermaid_4" width="100%" xmlns="http://www.w3.org/2000/svg" style="max-width: 961.953125px;" viewBox="-8 -8 961.953125 1212.765625" role="graphics-document document" aria-roledescription="flowchart-v2"><style>#pdf_mermaid_4{font-family:Inter,system-ui,sans-serif;font-size:16px;fill:#173f4f;}#pdf_mermaid_4 .error-icon{fill:#fffaf0;}#pdf_mermaid_4 .error-text{fill:#00050f;stroke:#00050f;}#pdf_mermaid_4 .edge-thickness-normal{stroke-width:2px;}#pdf_mermaid_4 .edge-thickness-thick{stroke-width:3.5px;}#pdf_mermaid_4 .edge-pattern-solid{stroke-dasharray:0;}#pdf_mermaid_4 .edge-pattern-dashed{stroke-dasharray:3;}#pdf_mermaid_4 .edge-pattern-dotted{stroke-dasharray:2;}#pdf_mermaid_4 .marker{fill:#527887;stroke:#527887;}#pdf_mermaid_4 .marker.cross{stroke:#527887;}#pdf_mermaid_4 svg{font-family:Inter,system-ui,sans-serif;font-size:16px;}#pdf_mermaid_4 .label{font-family:Inter,system-ui,sans-serif;color:#173f4f;}#pdf_mermaid_4 .cluster-label text{fill:#00050f;}#pdf_mermaid_4 .cluster-label span,#pdf_mermaid_4 p{color:#00050f;}#pdf_mermaid_4 .label text,#pdf_mermaid_4 span,#pdf_mermaid_4 p{fill:#173f4f;color:#173f4f;}#pdf_mermaid_4 .node rect,#pdf_mermaid_4 .node circle,#pdf_mermaid_4 .node ellipse,#pdf_mermaid_4 .node polygon,#pdf_mermaid_4 .node path{fill:#f6efe2;stroke:#c7a76a;stroke-width:1px;}#pdf_mermaid_4 .flowchart-label text{text-anchor:middle;}#pdf_mermaid_4 .node .katex path{fill:#000;stroke:#000;stroke-width:1px;}#pdf_mermaid_4 .node .label{text-align:center;}#pdf_mermaid_4 .node.clickable{cursor:pointer;}#pdf_mermaid_4 .arrowheadPath{fill:#0b0b0b;}#pdf_mermaid_4 .edgePath .path{stroke:#527887;stroke-width:2.0px;}#pdf_mermaid_4 .flowchart-link{stroke:#527887;fill:none;}#pdf_mermaid_4 .edgeLabel{background-color:#e8f0ed;text-align:center;}#pdf_mermaid_4 .edgeLabel rect{opacity:0.5;background-color:#e8f0ed;fill:#e8f0ed;}#pdf_mermaid_4 .labelBkg{background-color:rgba(232, 240, 237, 0.5);}#pdf_mermaid_4 .cluster rect{fill:#fffaf0;stroke:hsl(40, 60%, 87.0588235294%);stroke-width:1px;}#pdf_mermaid_4 .cluster text{fill:#00050f;}#pdf_mermaid_4 .cluster span,#pdf_mermaid_4 p{color:#00050f;}#pdf_mermaid_4 div.mermaidTooltip{position:absolute;text-align:center;max-width:200px;padding:2px;font-family:Inter,system-ui,sans-serif;font-size:12px;background:#fffaf0;border:1px solid hsl(40, 60%, 87.0588235294%);border-radius:2px;pointer-events:none;z-index:100;}#pdf_mermaid_4 .flowchartTitleText{text-anchor:middle;font-size:18px;fill:#173f4f;}#pdf_mermaid_4 :root{--mermaid-font-family:"trebuchet ms",verdana,arial,sans-serif;}</style><g><marker id="pdf_mermaid_4_flowchart-pointEnd" class="marker flowchart" viewBox="0 0 10 10" refX="6" refY="5" markerUnits="userSpaceOnUse" markerWidth="12" markerHeight="12" orient="auto"><path d="M 0 0 L 10 5 L 0 10 z" class="arrowMarkerPath" style="stroke-width: 1; stroke-dasharray: 1, 0;"></path></marker><marker id="pdf_mermaid_4_flowchart-pointStart" class="marker flowchart" viewBox="0 0 10 10" refX="4.5" refY="5" markerUnits="userSpaceOnUse" markerWidth="12" markerHeight="12" orient="auto"><path d="M 0 5 L 10 10 L 10 0 z" class="arrowMarkerPath" style="stroke-width: 1; stroke-dasharray: 1, 0;"></path></marker><marker id="pdf_mermaid_4_flowchart-circleEnd" class="marker flowchart" viewBox="0 0 10 10" refX="11" refY="5" markerUnits="userSpaceOnUse" markerWidth="11" markerHeight="11" orient="auto"><circle cx="5" cy="5" r="5" class="arrowMarkerPath" style="stroke-width: 1; stroke-dasharray: 1, 0;"></circle></marker><marker id="pdf_mermaid_4_flowchart-circleStart" class="marker flowchart" viewBox="0 0 10 10" refX="-1" refY="5" markerUnits="userSpaceOnUse" markerWidth="11" markerHeight="11" orient="auto"><circle cx="5" cy="5" r="5" class="arrowMarkerPath" style="stroke-width: 1; stroke-dasharray: 1, 0;"></circle></marker><marker id="pdf_mermaid_4_flowchart-crossEnd" class="marker cross flowchart" viewBox="0 0 11 11" refX="12" refY="5.2" markerUnits="userSpaceOnUse" markerWidth="11" markerHeight="11" orient="auto"><path d="M 1,1 l 9,9 M 10,1 l -9,9" class="arrowMarkerPath" style="stroke-width: 2; stroke-dasharray: 1, 0;"></path></marker><marker id="pdf_mermaid_4_flowchart-crossStart" class="marker cross flowchart" viewBox="0 0 11 11" refX="-1" refY="5.2" markerUnits="userSpaceOnUse" markerWidth="11" markerHeight="11" orient="auto"><path d="M 1,1 l 9,9 M 10,1 l -9,9" class="arrowMarkerPath" style="stroke-width: 2; stroke-dasharray: 1, 0;"></path></marker><g class="root"><g class="clusters"></g><g class="edgePaths"><path d="M368.096,33L377.953,37.167C387.81,41.333,407.524,49.667,417.447,57.2C427.37,64.734,427.502,71.467,427.568,74.834L427.634,78.201" id="L-A-B-0" class="edge-thickness-normal edge-pattern-solid flowchart-link LS-A LE-B" style="fill:none;" marker-end="url(#pdf_mermaid_4_flowchart-pointEnd)"></path><path d="M383.142,184.545L362.361,197.561C341.581,210.577,300.019,236.609,279.238,254.408C258.457,272.207,258.457,281.774,258.457,286.557L258.457,291.341" id="L-B-X-0" class="edge-thickness-normal edge-pattern-solid flowchart-link LS-B LE-X" style="fill:none;" marker-end="url(#pdf_mermaid_4_flowchart-pointEnd)"></path><path d="M258.457,329.641L258.457,333.807C258.457,337.974,258.457,346.307,238.875,387.573C219.293,428.839,180.129,503.037,160.547,540.136L140.965,577.235" id="L-X-Y-0" class="edge-thickness-normal edge-pattern-solid flowchart-link LS-X LE-Y" style="fill:none;" marker-end="url(#pdf_mermaid_4_flowchart-pointEnd)"></path><path d="M126.943,581.922L120.426,544.042C113.91,506.161,100.877,430.401,94.36,385.604C87.844,340.807,87.844,326.974,87.844,311.641C87.844,296.307,87.844,279.474,87.844,253.254C87.844,227.034,87.844,191.427,87.844,157.32C87.844,123.214,87.844,90.607,111.392,70.252C134.941,49.897,182.039,41.794,205.587,37.743L229.136,33.692" id="L-Y-A-0" class="edge-thickness-normal edge-pattern-solid flowchart-link LS-Y LE-A" style="fill:none;" marker-end="url(#pdf_mermaid_4_flowchart-pointEnd)"></path><path d="M463.148,193.731L474.014,205.216C484.88,216.701,506.612,239.671,517.478,255.939C528.344,272.207,528.344,281.774,528.344,286.557L528.344,291.341" id="L-B-C-0" class="edge-thickness-normal edge-pattern-solid flowchart-link LS-B LE-C" style="fill:none;" marker-end="url(#pdf_mermaid_4_flowchart-pointEnd)"></path><path d="M528.344,329.641L528.344,333.807C528.344,337.974,528.344,346.307,528.41,353.841C528.476,361.374,528.608,368.108,528.674,371.475L528.74,374.842" id="L-C-D-0" class="edge-thickness-normal edge-pattern-solid flowchart-link LS-C LE-D" style="fill:none;" marker-end="url(#pdf_mermaid_4_flowchart-pointEnd)"></path><path d="M482.64,771.5L478.978,784.784C475.316,798.068,467.992,824.635,464.33,850.583C460.668,876.53,460.668,901.857,460.668,914.521L460.668,927.184" id="L-D-P-0" class="edge-thickness-normal edge-pattern-solid flowchart-link LS-D LE-P" style="fill:none;" marker-end="url(#pdf_mermaid_4_flowchart-pointEnd)"></path><path d="M614.602,731.945L627.386,751.821C640.171,771.698,665.74,811.45,678.595,836.194C691.45,860.937,691.591,870.67,691.661,875.537L691.732,880.404" id="L-D-E-0" class="edge-thickness-normal edge-pattern-solid flowchart-link LS-D LE-E" style="fill:none;" marker-end="url(#pdf_mermaid_4_flowchart-pointEnd)"></path><path d="M735.427,969.647L763.33,982.5C791.233,995.353,847.038,1021.059,874.941,1038.696C902.844,1056.332,902.844,1065.899,902.844,1070.682L902.844,1075.466" id="L-E-P0-0" class="edge-thickness-normal edge-pattern-solid flowchart-link LS-E LE-P0" style="fill:none;" marker-end="url(#pdf_mermaid_4_flowchart-pointEnd)"></path><path d="M717.485,987.59L724.103,997.452C730.721,1007.315,743.958,1027.04,750.577,1041.686C757.195,1056.332,757.195,1065.899,757.195,1070.682L757.195,1075.466" id="L-E-P1-0" class="edge-thickness-normal edge-pattern-solid flowchart-link LS-E LE-P1" style="fill:none;" marker-end="url(#pdf_mermaid_4_flowchart-pointEnd)"></path><path d="M652.111,973.568L631.781,985.768C611.452,997.967,570.792,1022.366,550.462,1039.349C530.133,1056.332,530.133,1065.899,530.133,1070.682L530.133,1075.466" id="L-E-P2-0" class="edge-thickness-normal edge-pattern-solid flowchart-link LS-E LE-P2" style="fill:none;" marker-end="url(#pdf_mermaid_4_flowchart-pointEnd)"></path><path d="M639.05,960.507L569.755,974.883C500.46,989.26,361.871,1018.013,292.576,1037.172C223.281,1056.332,223.281,1065.899,223.281,1070.682L223.281,1075.466" id="L-E-P3-0" class="edge-thickness-normal edge-pattern-solid flowchart-link LS-E LE-P3" style="fill:none;" marker-end="url(#pdf_mermaid_4_flowchart-pointEnd)"></path><path d="M902.844,1113.766L902.844,1117.932C902.844,1122.099,902.844,1130.432,880.22,1138.611C857.595,1146.79,812.347,1154.815,789.723,1158.828L767.098,1162.84" id="L-P0-R-0" class="edge-thickness-normal edge-pattern-solid flowchart-link LS-P0 LE-R" style="fill:none;" marker-end="url(#pdf_mermaid_4_flowchart-pointEnd)"></path><path d="M757.195,1113.766L757.195,1117.932C757.195,1122.099,757.195,1130.432,749.124,1138.39C741.053,1146.348,724.911,1153.93,716.84,1157.721L708.769,1161.512" id="L-P1-R-0" class="edge-thickness-normal edge-pattern-solid flowchart-link LS-P1 LE-R" style="fill:none;" marker-end="url(#pdf_mermaid_4_flowchart-pointEnd)"></path><path d="M530.133,1113.766L530.133,1117.932C530.133,1122.099,530.133,1130.432,543.213,1138.512C556.294,1146.593,582.455,1154.42,595.535,1158.333L608.616,1162.246" id="L-P2-R-0" class="edge-thickness-normal edge-pattern-solid flowchart-link LS-P2 LE-R" style="fill:none;" marker-end="url(#pdf_mermaid_4_flowchart-pointEnd)"></path><path d="M223.281,1113.766L223.281,1117.932C223.281,1122.099,223.281,1130.432,271.348,1139.076C319.415,1147.72,415.55,1156.674,463.617,1161.151L511.684,1165.628" id="L-P3-R-0" class="edge-thickness-normal edge-pattern-solid flowchart-link LS-P3 LE-R" style="fill:none;" marker-end="url(#pdf_mermaid_4_flowchart-pointEnd)"></path></g><g class="edgeLabels"><g class="edgeLabel"><g class="label" transform="translate(0, 0)"><foreignObject width="0" height="0"><div xmlns="http://www.w3.org/1999/xhtml" style="display: inline-block; white-space: nowrap;"><span class="edgeLabel"></span></div></foreignObject></g></g><g class="edgeLabel" transform="translate(258.45703125, 262.640625)"><g class="label" transform="translate(-12.8671875, -9)"><foreignObject width="25.734375" height="18"><div xmlns="http://www.w3.org/1999/xhtml" style="display: inline-block; white-space: nowrap;"><span class="edgeLabel">Yes</span></div></foreignObject></g></g><g class="edgeLabel"><g class="label" transform="translate(0, 0)"><foreignObject width="0" height="0"><div xmlns="http://www.w3.org/1999/xhtml" style="display: inline-block; white-space: nowrap;"><span class="edgeLabel"></span></div></foreignObject></g></g><g class="edgeLabel"><g class="label" transform="translate(0, 0)"><foreignObject width="0" height="0"><div xmlns="http://www.w3.org/1999/xhtml" style="display: inline-block; white-space: nowrap;"><span class="edgeLabel"></span></div></foreignObject></g></g><g class="edgeLabel" transform="translate(528.34375, 262.640625)"><g class="label" transform="translate(-10.3515625, -9)"><foreignObject width="20.703125" height="18"><div xmlns="http://www.w3.org/1999/xhtml" style="display: inline-block; white-space: nowrap;"><span class="edgeLabel">No</span></div></foreignObject></g></g><g class="edgeLabel"><g class="label" transform="translate(0, 0)"><foreignObject width="0" height="0"><div xmlns="http://www.w3.org/1999/xhtml" style="display: inline-block; white-space: nowrap;"><span class="edgeLabel"></span></div></foreignObject></g></g><g class="edgeLabel" transform="translate(460.66796875, 851.203125)"><g class="label" transform="translate(-10.3515625, -9)"><foreignObject width="20.703125" height="18"><div xmlns="http://www.w3.org/1999/xhtml" style="display: inline-block; white-space: nowrap;"><span class="edgeLabel">No</span></div></foreignObject></g></g><g class="edgeLabel" transform="translate(691.30859375, 851.203125)"><g class="label" transform="translate(-12.8671875, -9)"><foreignObject width="25.734375" height="18"><div xmlns="http://www.w3.org/1999/xhtml" style="display: inline-block; white-space: nowrap;"><span class="edgeLabel">Yes</span></div></foreignObject></g></g><g class="edgeLabel" transform="translate(902.84375, 1046.765625)"><g class="label" transform="translate(-20.734375, -9)"><foreignObject width="41.46875" height="18"><div xmlns="http://www.w3.org/1999/xhtml" style="display: inline-block; white-space: nowrap;"><span class="edgeLabel">0 to 7</span></div></foreignObject></g></g><g class="edgeLabel" transform="translate(757.1953125, 1046.765625)"><g class="label" transform="translate(-24.8203125, -9)"><foreignObject width="49.640625" height="18"><div xmlns="http://www.w3.org/1999/xhtml" style="display: inline-block; white-space: nowrap;"><span class="edgeLabel">8 to 13</span></div></foreignObject></g></g><g class="edgeLabel" transform="translate(530.1328125, 1046.765625)"><g class="label" transform="translate(-27.953125, -9)"><foreignObject width="55.90625" height="18"><div xmlns="http://www.w3.org/1999/xhtml" style="display: inline-block; white-space: nowrap;"><span class="edgeLabel">14 to 17</span></div></foreignObject></g></g><g class="edgeLabel" transform="translate(223.28125, 1046.765625)"><g class="label" transform="translate(-29.515625, -9)"><foreignObject width="59.03125" height="18"><div xmlns="http://www.w3.org/1999/xhtml" style="display: inline-block; white-space: nowrap;"><span class="edgeLabel">18 to 20</span></div></foreignObject></g></g><g class="edgeLabel"><g class="label" transform="translate(0, 0)"><foreignObject width="0" height="0"><div xmlns="http://www.w3.org/1999/xhtml" style="display: inline-block; white-space: nowrap;"><span class="edgeLabel"></span></div></foreignObject></g></g><g class="edgeLabel"><g class="label" transform="translate(0, 0)"><foreignObject width="0" height="0"><div xmlns="http://www.w3.org/1999/xhtml" style="display: inline-block; white-space: nowrap;"><span class="edgeLabel"></span></div></foreignObject></g></g><g class="edgeLabel"><g class="label" transform="translate(0, 0)"><foreignObject width="0" height="0"><div xmlns="http://www.w3.org/1999/xhtml" style="display: inline-block; white-space: nowrap;"><span class="edgeLabel"></span></div></foreignObject></g></g><g class="edgeLabel"><g class="label" transform="translate(0, 0)"><foreignObject width="0" height="0"><div xmlns="http://www.w3.org/1999/xhtml" style="display: inline-block; white-space: nowrap;"><span class="edgeLabel"></span></div></foreignObject></g></g></g><g class="nodes"><g class="node default default flowchart-label" id="flowchart-A-34" data-node="true" data-id="A" transform="translate(329.0625, 16.5)"><rect class="basic label-container" style="" rx="0" ry="0" x="-94.703125" y="-16.5" width="189.40625" height="33"></rect><g class="label" style="" transform="translate(-87.203125, -9)"><rect></rect><foreignObject width="174.40625" height="18"><div xmlns="http://www.w3.org/1999/xhtml" style="display: inline-block; white-space: nowrap;"><span class="nodeLabel">Collect evidence bundle</span></div></foreignObject></g></g><g class="node default default flowchart-label" id="flowchart-B-35" data-node="true" data-id="B" transform="translate(427.23828125, 155.8203125)"><polygon points="72.8203125,0 145.640625,-72.8203125 72.8203125,-145.640625 0,-72.8203125" class="label-container" transform="translate(-72.8203125,72.8203125)" style=""></polygon><g class="label" style="" transform="translate(-48.8203125, -9)"><rect></rect><foreignObject width="97.640625" height="18"><div xmlns="http://www.w3.org/1999/xhtml" style="display: inline-block; white-space: nowrap;"><span class="nodeLabel">Any hard fail?</span></div></foreignObject></g></g><g class="node default default flowchart-label" id="flowchart-X-37" data-node="true" data-id="X" transform="translate(258.45703125, 313.140625)"><rect class="basic label-container" style="" rx="0" ry="0" x="-48.875" y="-16.5" width="97.75" height="33"></rect><g class="label" style="" transform="translate(-41.375, -9)"><rect></rect><foreignObject width="82.75" height="18"><div xmlns="http://www.w3.org/1999/xhtml" style="display: inline-block; white-space: nowrap;"><span class="nodeLabel">Do not ship</span></div></foreignObject></g></g><g class="node default default flowchart-label" id="flowchart-Y-39" data-node="true" data-id="Y" transform="translate(129.78125, 598.421875)"><rect class="basic label-container" style="" rx="0" ry="0" x="-129.78125" y="-16.5" width="259.5625" height="33"></rect><g class="label" style="" transform="translate(-122.28125, -9)"><rect></rect><foreignObject width="244.5625" height="18"><div xmlns="http://www.w3.org/1999/xhtml" style="display: inline-block; white-space: nowrap;"><span class="nodeLabel">Fix control, add evidence, rescore</span></div></foreignObject></g></g><g class="node default default flowchart-label" id="flowchart-C-43" data-node="true" data-id="C" transform="translate(528.34375, 313.140625)"><rect class="basic label-container" style="" rx="0" ry="0" x="-103.3359375" y="-16.5" width="206.671875" height="33"></rect><g class="label" style="" transform="translate(-95.8359375, -9)"><rect></rect><foreignObject width="191.671875" height="18"><div xmlns="http://www.w3.org/1999/xhtml" style="display: inline-block; white-space: nowrap;"><span class="nodeLabel">Score 10 gates from 0 to 2</span></div></foreignObject></g></g><g class="node default default flowchart-label" id="flowchart-D-45" data-node="true" data-id="D" transform="translate(528.34375, 598.421875)"><polygon points="218.78125,0 437.5625,-218.78125 218.78125,-437.5625 0,-218.78125" class="label-container" transform="translate(-218.78125,218.78125)" style=""></polygon><g class="label" style="" transform="translate(-194.78125, -9)"><rect></rect><foreignObject width="389.5625" height="18"><div xmlns="http://www.w3.org/1999/xhtml" style="display: inline-block; white-space: nowrap;"><span class="nodeLabel">Security, human control, and observability all score 2?</span></div></foreignObject></g></g><g class="node default default flowchart-label" id="flowchart-P-47" data-node="true" data-id="P" transform="translate(460.66796875, 948.984375)"><rect class="basic label-container" style="" rx="0" ry="0" x="-116.859375" y="-16.5" width="233.71875" height="33"></rect><g class="label" style="" transform="translate(-109.359375, -9)"><rect></rect><foreignObject width="218.71875" height="18"><div xmlns="http://www.w3.org/1999/xhtml" style="display: inline-block; white-space: nowrap;"><span class="nodeLabel">Prototype or internal pilot only</span></div></foreignObject></g></g><g class="node default default flowchart-label" id="flowchart-E-49" data-node="true" data-id="E" transform="translate(691.30859375, 948.984375)"><polygon points="63.78125,0 127.5625,-63.78125 63.78125,-127.5625 0,-63.78125" class="label-container" transform="translate(-63.78125,63.78125)" style=""></polygon><g class="label" style="" transform="translate(-39.78125, -9)"><rect></rect><foreignObject width="79.5625" height="18"><div xmlns="http://www.w3.org/1999/xhtml" style="display: inline-block; white-space: nowrap;"><span class="nodeLabel">Total score</span></div></foreignObject></g></g><g class="node default default flowchart-label" id="flowchart-P0-51" data-node="true" data-id="P0" transform="translate(902.84375, 1097.265625)"><rect class="basic label-container" style="" rx="0" ry="0" x="-43.109375" y="-16.5" width="86.21875" height="33"></rect><g class="label" style="" transform="translate(-35.609375, -9)"><rect></rect><foreignObject width="71.21875" height="18"><div xmlns="http://www.w3.org/1999/xhtml" style="display: inline-block; white-space: nowrap;"><span class="nodeLabel">Prototype</span></div></foreignObject></g></g><g class="node default default flowchart-label" id="flowchart-P1-53" data-node="true" data-id="P1" transform="translate(757.1953125, 1097.265625)"><rect class="basic label-container" style="" rx="0" ry="0" x="-52.5390625" y="-16.5" width="105.078125" height="33"></rect><g class="label" style="" transform="translate(-45.0390625, -9)"><rect></rect><foreignObject width="90.078125" height="18"><div xmlns="http://www.w3.org/1999/xhtml" style="display: inline-block; white-space: nowrap;"><span class="nodeLabel">Internal pilot</span></div></foreignObject></g></g><g class="node default default flowchart-label" id="flowchart-P2-55" data-node="true" data-id="P2" transform="translate(530.1328125, 1097.265625)"><rect class="basic label-container" style="" rx="0" ry="0" x="-124.5234375" y="-16.5" width="249.046875" height="33"></rect><g class="label" style="" transform="translate(-117.0234375, -9)"><rect></rect><foreignObject width="234.046875" height="18"><div xmlns="http://www.w3.org/1999/xhtml" style="display: inline-block; white-space: nowrap;"><span class="nodeLabel">Controlled production candidate</span></div></foreignObject></g></g><g class="node default default flowchart-label" id="flowchart-P3-57" data-node="true" data-id="P3" transform="translate(223.28125, 1097.265625)"><rect class="basic label-container" style="" rx="0" ry="0" x="-132.328125" y="-16.5" width="264.65625" height="33"></rect><g class="label" style="" transform="translate(-124.828125, -9)"><rect></rect><foreignObject width="249.65625" height="18"><div xmlns="http://www.w3.org/1999/xhtml" style="display: inline-block; white-space: nowrap;"><span class="nodeLabel">Production-ready for stated scope</span></div></foreignObject></g></g><g class="node default default flowchart-label" id="flowchart-R-59" data-node="true" data-id="R" transform="translate(668.84375, 1180.265625)"><rect class="basic label-container" style="" rx="0" ry="0" x="-151.8828125" y="-16.5" width="303.765625" height="33"></rect><g class="label" style="" transform="translate(-144.3828125, -9)"><rect></rect><foreignObject width="288.765625" height="18"><div xmlns="http://www.w3.org/1999/xhtml" style="display: inline-block; white-space: nowrap;"><span class="nodeLabel">Record limits and next evidence needed</span></div></foreignObject></g></g></g></g></g></svg>