<svg id="pdf_mermaid_31" width="100%" xmlns="http://www.w3.org/2000/svg" style="max-width: 862.453125px;" viewBox="-8 -8 862.453125 891.96875" role="graphics-document document" aria-roledescription="flowchart-v2"><style>#pdf_mermaid_31{font-family:Inter,system-ui,sans-serif;font-size:16px;fill:#173f4f;}#pdf_mermaid_31 .error-icon{fill:#fffaf0;}#pdf_mermaid_31 .error-text{fill:#00050f;stroke:#00050f;}#pdf_mermaid_31 .edge-thickness-normal{stroke-width:2px;}#pdf_mermaid_31 .edge-thickness-thick{stroke-width:3.5px;}#pdf_mermaid_31 .edge-pattern-solid{stroke-dasharray:0;}#pdf_mermaid_31 .edge-pattern-dashed{stroke-dasharray:3;}#pdf_mermaid_31 .edge-pattern-dotted{stroke-dasharray:2;}#pdf_mermaid_31 .marker{fill:#527887;stroke:#527887;}#pdf_mermaid_31 .marker.cross{stroke:#527887;}#pdf_mermaid_31 svg{font-family:Inter,system-ui,sans-serif;font-size:16px;}#pdf_mermaid_31 .label{font-family:Inter,system-ui,sans-serif;color:#173f4f;}#pdf_mermaid_31 .cluster-label text{fill:#00050f;}#pdf_mermaid_31 .cluster-label span,#pdf_mermaid_31 p{color:#00050f;}#pdf_mermaid_31 .label text,#pdf_mermaid_31 span,#pdf_mermaid_31 p{fill:#173f4f;color:#173f4f;}#pdf_mermaid_31 .node rect,#pdf_mermaid_31 .node circle,#pdf_mermaid_31 .node ellipse,#pdf_mermaid_31 .node polygon,#pdf_mermaid_31 .node path{fill:#f6efe2;stroke:#c7a76a;stroke-width:1px;}#pdf_mermaid_31 .flowchart-label text{text-anchor:middle;}#pdf_mermaid_31 .node .katex path{fill:#000;stroke:#000;stroke-width:1px;}#pdf_mermaid_31 .node .label{text-align:center;}#pdf_mermaid_31 .node.clickable{cursor:pointer;}#pdf_mermaid_31 .arrowheadPath{fill:#0b0b0b;}#pdf_mermaid_31 .edgePath .path{stroke:#527887;stroke-width:2.0px;}#pdf_mermaid_31 .flowchart-link{stroke:#527887;fill:none;}#pdf_mermaid_31 .edgeLabel{background-color:#e8f0ed;text-align:center;}#pdf_mermaid_31 .edgeLabel rect{opacity:0.5;background-color:#e8f0ed;fill:#e8f0ed;}#pdf_mermaid_31 .labelBkg{background-color:rgba(232, 240, 237, 0.5);}#pdf_mermaid_31 .cluster rect{fill:#fffaf0;stroke:hsl(40, 60%, 87.0588235294%);stroke-width:1px;}#pdf_mermaid_31 .cluster text{fill:#00050f;}#pdf_mermaid_31 .cluster span,#pdf_mermaid_31 p{color:#00050f;}#pdf_mermaid_31 div.mermaidTooltip{position:absolute;text-align:center;max-width:200px;padding:2px;font-family:Inter,system-ui,sans-serif;font-size:12px;background:#fffaf0;border:1px solid hsl(40, 60%, 87.0588235294%);border-radius:2px;pointer-events:none;z-index:100;}#pdf_mermaid_31 .flowchartTitleText{text-anchor:middle;font-size:18px;fill:#173f4f;}#pdf_mermaid_31 :root{--mermaid-font-family:"trebuchet ms",verdana,arial,sans-serif;}</style><g><marker id="pdf_mermaid_31_flowchart-pointEnd" class="marker flowchart" viewBox="0 0 10 10" refX="6" refY="5" markerUnits="userSpaceOnUse" markerWidth="12" markerHeight="12" orient="auto"><path d="M 0 0 L 10 5 L 0 10 z" class="arrowMarkerPath" style="stroke-width: 1; stroke-dasharray: 1, 0;"></path></marker><marker id="pdf_mermaid_31_flowchart-pointStart" class="marker flowchart" viewBox="0 0 10 10" refX="4.5" refY="5" markerUnits="userSpaceOnUse" markerWidth="12" markerHeight="12" orient="auto"><path d="M 0 5 L 10 10 L 10 0 z" class="arrowMarkerPath" style="stroke-width: 1; stroke-dasharray: 1, 0;"></path></marker><marker id="pdf_mermaid_31_flowchart-circleEnd" class="marker flowchart" viewBox="0 0 10 10" refX="11" refY="5" markerUnits="userSpaceOnUse" markerWidth="11" markerHeight="11" orient="auto"><circle cx="5" cy="5" r="5" class="arrowMarkerPath" style="stroke-width: 1; stroke-dasharray: 1, 0;"></circle></marker><marker id="pdf_mermaid_31_flowchart-circleStart" class="marker flowchart" viewBox="0 0 10 10" refX="-1" refY="5" markerUnits="userSpaceOnUse" markerWidth="11" markerHeight="11" orient="auto"><circle cx="5" cy="5" r="5" class="arrowMarkerPath" style="stroke-width: 1; stroke-dasharray: 1, 0;"></circle></marker><marker id="pdf_mermaid_31_flowchart-crossEnd" class="marker cross flowchart" viewBox="0 0 11 11" refX="12" refY="5.2" markerUnits="userSpaceOnUse" markerWidth="11" markerHeight="11" orient="auto"><path d="M 1,1 l 9,9 M 10,1 l -9,9" class="arrowMarkerPath" style="stroke-width: 2; stroke-dasharray: 1, 0;"></path></marker><marker id="pdf_mermaid_31_flowchart-crossStart" class="marker cross flowchart" viewBox="0 0 11 11" refX="-1" refY="5.2" markerUnits="userSpaceOnUse" markerWidth="11" markerHeight="11" orient="auto"><path d="M 1,1 l 9,9 M 10,1 l -9,9" class="arrowMarkerPath" style="stroke-width: 2; stroke-dasharray: 1, 0;"></path></marker><g class="root"><g class="clusters"></g><g class="edgePaths"><path d="M239.383,33L239.383,37.167C239.383,41.333,239.383,49.667,239.383,57.117C239.383,64.567,239.383,71.133,239.383,74.417L239.383,77.7" id="L-A-B-0" class="edge-thickness-normal edge-pattern-solid flowchart-link LS-A LE-B" style="fill:none;" marker-end="url(#pdf_mermaid_31_flowchart-pointEnd)"></path><path d="M239.383,116L239.383,120.167C239.383,124.333,239.383,132.667,239.383,140.117C239.383,147.567,239.383,154.133,239.383,157.417L239.383,160.7" id="L-B-C-0" class="edge-thickness-normal edge-pattern-solid flowchart-link LS-B LE-C" style="fill:none;" marker-end="url(#pdf_mermaid_31_flowchart-pointEnd)"></path><path d="M239.383,199L239.383,203.167C239.383,207.333,239.383,215.667,239.449,223.2C239.515,230.734,239.647,237.467,239.713,240.834L239.779,244.201" id="L-C-D-0" class="edge-thickness-normal edge-pattern-solid flowchart-link LS-C LE-D" style="fill:none;" marker-end="url(#pdf_mermaid_31_flowchart-pointEnd)"></path><path d="M194.659,352.213L173.802,365.334C152.944,378.455,111.23,404.696,90.373,426.233C69.516,447.771,69.516,464.604,69.516,481.438C69.516,498.271,69.516,515.104,69.516,539.69C69.516,564.276,69.516,596.615,69.516,628.953C69.516,661.292,69.516,693.63,69.516,714.583C69.516,735.535,69.516,745.102,69.516,749.885L69.516,754.669" id="L-D-E-0" class="edge-thickness-normal edge-pattern-solid flowchart-link LS-D LE-E" style="fill:none;" marker-end="url(#pdf_mermaid_31_flowchart-pointEnd)"></path><path d="M239.883,397.438L239.799,403.021C239.716,408.604,239.549,419.771,239.466,433.771C239.383,447.771,239.383,464.604,239.383,481.438C239.383,498.271,239.383,515.104,239.383,539.69C239.383,564.276,239.383,596.615,239.383,628.953C239.383,661.292,239.383,693.63,239.383,714.583C239.383,735.535,239.383,745.102,239.383,749.885L239.383,754.669" id="L-D-F-0" class="edge-thickness-normal edge-pattern-solid flowchart-link LS-D LE-F" style="fill:none;" marker-end="url(#pdf_mermaid_31_flowchart-pointEnd)"></path><path d="M296.25,341.07L344.399,356.048C392.548,371.026,488.846,400.982,536.995,420.743C585.145,440.504,585.145,450.071,585.145,454.854L585.145,459.638" id="L-D-G-0" class="edge-thickness-normal edge-pattern-solid flowchart-link LS-D LE-G" style="fill:none;" marker-end="url(#pdf_mermaid_31_flowchart-pointEnd)"></path><path d="M585.145,497.938L585.145,503.604C585.145,509.271,585.145,520.604,585.215,531.138C585.286,541.671,585.427,551.405,585.497,556.271L585.568,561.138" id="L-G-H-0" class="edge-thickness-normal edge-pattern-solid flowchart-link LS-G LE-H" style="fill:none;" marker-end="url(#pdf_mermaid_31_flowchart-pointEnd)"></path><path d="M548.921,655.746L532.375,667.449C515.828,679.153,482.734,702.561,466.187,719.048C449.641,735.535,449.641,745.102,449.641,749.885L449.641,754.669" id="L-H-I-0" class="edge-thickness-normal edge-pattern-solid flowchart-link LS-H LE-I" style="fill:none;" marker-end="url(#pdf_mermaid_31_flowchart-pointEnd)"></path><path d="M622.368,655.746L638.748,667.449C655.128,679.153,687.888,702.561,704.268,719.048C720.648,735.535,720.648,745.102,720.648,749.885L720.648,754.669" id="L-H-J-0" class="edge-thickness-normal edge-pattern-solid flowchart-link LS-H LE-J" style="fill:none;" marker-end="url(#pdf_mermaid_31_flowchart-pointEnd)"></path><path d="M69.516,792.969L69.516,797.135C69.516,801.302,69.516,809.635,88.352,818.404C107.187,827.172,144.859,836.376,163.695,840.978L182.531,845.579" id="L-E-K-0" class="edge-thickness-normal edge-pattern-solid flowchart-link LS-E LE-K" style="fill:none;" marker-end="url(#pdf_mermaid_31_flowchart-pointEnd)"></path><path d="M239.383,792.969L239.383,797.135C239.383,801.302,239.383,809.635,239.383,817.085C239.383,824.535,239.383,831.102,239.383,834.385L239.383,837.669" id="L-F-K-0" class="edge-thickness-normal edge-pattern-solid flowchart-link LS-F LE-K" style="fill:none;" marker-end="url(#pdf_mermaid_31_flowchart-pointEnd)"></path><path d="M720.648,792.969L720.648,797.135C720.648,801.302,720.648,809.635,649.935,819.9C579.221,830.164,437.794,842.36,367.08,848.457L296.366,854.555" id="L-J-K-0" class="edge-thickness-normal edge-pattern-solid flowchart-link LS-J LE-K" style="fill:none;" marker-end="url(#pdf_mermaid_31_flowchart-pointEnd)"></path></g><g class="edgeLabels"><g class="edgeLabel"><g class="label" transform="translate(0, 0)"><foreignObject width="0" height="0"><div xmlns="http://www.w3.org/1999/xhtml" style="display: inline-block; white-space: nowrap;"><span class="edgeLabel"></span></div></foreignObject></g></g><g class="edgeLabel"><g class="label" transform="translate(0, 0)"><foreignObject width="0" height="0"><div xmlns="http://www.w3.org/1999/xhtml" style="display: inline-block; white-space: nowrap;"><span class="edgeLabel"></span></div></foreignObject></g></g><g class="edgeLabel"><g class="label" transform="translate(0, 0)"><foreignObject width="0" height="0"><div xmlns="http://www.w3.org/1999/xhtml" style="display: inline-block; white-space: nowrap;"><span class="edgeLabel"></span></div></foreignObject></g></g><g class="edgeLabel" transform="translate(69.515625, 531.9375)"><g class="label" transform="translate(-69.515625, -9)"><foreignObject width="139.03125" height="18"><div xmlns="http://www.w3.org/1999/xhtml" style="display: inline-block; white-space: nowrap;"><span class="edgeLabel">Draft or summarize</span></div></foreignObject></g></g><g class="edgeLabel" transform="translate(239.3828125, 531.9375)"><g class="label" transform="translate(-45.5546875, -9)"><foreignObject width="91.109375" height="18"><div xmlns="http://www.w3.org/1999/xhtml" style="display: inline-block; white-space: nowrap;"><span class="edgeLabel">Recommend</span></div></foreignObject></g></g><g class="edgeLabel" transform="translate(585.14453125, 430.9375)"><g class="label" transform="translate(-64.9375, -9)"><foreignObject width="129.875" height="18"><div xmlns="http://www.w3.org/1999/xhtml" style="display: inline-block; white-space: nowrap;"><span class="edgeLabel">Execute or decide</span></div></foreignObject></g></g><g class="edgeLabel"><g class="label" transform="translate(0, 0)"><foreignObject width="0" height="0"><div xmlns="http://www.w3.org/1999/xhtml" style="display: inline-block; white-space: nowrap;"><span class="edgeLabel"></span></div></foreignObject></g></g><g class="edgeLabel" transform="translate(449.640625, 725.96875)"><g class="label" transform="translate(-12.4765625, -9)"><foreignObject width="24.953125" height="18"><div xmlns="http://www.w3.org/1999/xhtml" style="display: inline-block; white-space: nowrap;"><span class="edgeLabel">yes</span></div></foreignObject></g></g><g class="edgeLabel" transform="translate(720.6484375, 725.96875)"><g class="label" transform="translate(-9.0859375, -9)"><foreignObject width="18.171875" height="18"><div xmlns="http://www.w3.org/1999/xhtml" style="display: inline-block; white-space: nowrap;"><span class="edgeLabel">no</span></div></foreignObject></g></g><g class="edgeLabel"><g class="label" transform="translate(0, 0)"><foreignObject width="0" height="0"><div xmlns="http://www.w3.org/1999/xhtml" style="display: inline-block; white-space: nowrap;"><span class="edgeLabel"></span></div></foreignObject></g></g><g class="edgeLabel"><g class="label" transform="translate(0, 0)"><foreignObject width="0" height="0"><div xmlns="http://www.w3.org/1999/xhtml" style="display: inline-block; white-space: nowrap;"><span class="edgeLabel"></span></div></foreignObject></g></g><g class="edgeLabel"><g class="label" transform="translate(0, 0)"><foreignObject width="0" height="0"><div xmlns="http://www.w3.org/1999/xhtml" style="display: inline-block; white-space: nowrap;"><span class="edgeLabel"></span></div></foreignObject></g></g></g><g class="nodes"><g class="node default default flowchart-label" id="flowchart-A-659" data-node="true" data-id="A" transform="translate(239.3828125, 16.5)"><rect class="basic label-container" style="" rx="0" ry="0" x="-64.7890625" y="-16.5" width="129.578125" height="33"></rect><g class="label" style="" transform="translate(-57.2890625, -9)"><rect></rect><foreignObject width="114.578125" height="18"><div xmlns="http://www.w3.org/1999/xhtml" style="display: inline-block; white-space: nowrap;"><span class="nodeLabel">Domain request</span></div></foreignObject></g></g><g class="node default default flowchart-label" id="flowchart-B-660" data-node="true" data-id="B" transform="translate(239.3828125, 99.5)"><rect class="basic label-container" style="" rx="0" ry="0" x="-43.9765625" y="-16.5" width="87.953125" height="33"></rect><g class="label" style="" transform="translate(-36.4765625, -9)"><rect></rect><foreignObject width="72.953125" height="18"><div xmlns="http://www.w3.org/1999/xhtml" style="display: inline-block; white-space: nowrap;"><span class="nodeLabel">Case card</span></div></foreignObject></g></g><g class="node default default flowchart-label" id="flowchart-C-662" data-node="true" data-id="C" transform="translate(239.3828125, 182.5)"><rect class="basic label-container" style="" rx="0" ry="0" x="-67.0859375" y="-16.5" width="134.171875" height="33"></rect><g class="label" style="" transform="translate(-59.5859375, -9)"><rect></rect><foreignObject width="119.171875" height="18"><div xmlns="http://www.w3.org/1999/xhtml" style="display: inline-block; white-space: nowrap;"><span class="nodeLabel">Evidence packet</span></div></foreignObject></g></g><g class="node default default flowchart-label" id="flowchart-D-664" data-node="true" data-id="D" transform="translate(239.3828125, 322.96875)"><polygon points="73.96875,0 147.9375,-73.96875 73.96875,-147.9375 0,-73.96875" class="label-container" transform="translate(-73.96875,73.96875)" style=""></polygon><g class="label" style="" transform="translate(-49.96875, -9)"><rect></rect><foreignObject width="99.9375" height="18"><div xmlns="http://www.w3.org/1999/xhtml" style="display: inline-block; white-space: nowrap;"><span class="nodeLabel">Decision right</span></div></foreignObject></g></g><g class="node default default flowchart-label" id="flowchart-E-666" data-node="true" data-id="E" transform="translate(69.515625, 776.46875)"><rect class="basic label-container" style="" rx="0" ry="0" x="-54.8125" y="-16.5" width="109.625" height="33"></rect><g class="label" style="" transform="translate(-47.3125, -9)"><rect></rect><foreignObject width="94.625" height="18"><div xmlns="http://www.w3.org/1999/xhtml" style="display: inline-block; white-space: nowrap;"><span class="nodeLabel">Agent output</span></div></foreignObject></g></g><g class="node default default flowchart-label" id="flowchart-F-668" data-node="true" data-id="F" transform="translate(239.3828125, 776.46875)"><rect class="basic label-container" style="" rx="0" ry="0" x="-65.0546875" y="-16.5" width="130.109375" height="33"></rect><g class="label" style="" transform="translate(-57.5546875, -9)"><rect></rect><foreignObject width="115.109375" height="18"><div xmlns="http://www.w3.org/1999/xhtml" style="display: inline-block; white-space: nowrap;"><span class="nodeLabel">Reviewer queue</span></div></foreignObject></g></g><g class="node default default flowchart-label" id="flowchart-G-670" data-node="true" data-id="G" transform="translate(585.14453125, 481.4375)"><rect class="basic label-container" style="" rx="0" ry="0" x="-96.015625" y="-16.5" width="192.03125" height="33"></rect><g class="label" style="" transform="translate(-88.515625, -9)"><rect></rect><foreignObject width="177.03125" height="18"><div xmlns="http://www.w3.org/1999/xhtml" style="display: inline-block; white-space: nowrap;"><span class="nodeLabel">Policy and approval gate</span></div></foreignObject></g></g><g class="node default default flowchart-label" id="flowchart-H-672" data-node="true" data-id="H" transform="translate(585.14453125, 628.953125)"><polygon points="63.015625,0 126.03125,-63.015625 63.015625,-126.03125 0,-63.015625" class="label-container" transform="translate(-63.015625,63.015625)" style=""></polygon><g class="label" style="" transform="translate(-39.015625, -9)"><rect></rect><foreignObject width="78.03125" height="18"><div xmlns="http://www.w3.org/1999/xhtml" style="display: inline-block; white-space: nowrap;"><span class="nodeLabel">Approved?</span></div></foreignObject></g></g><g class="node default default flowchart-label" id="flowchart-I-674" data-node="true" data-id="I" transform="translate(449.640625, 776.46875)"><rect class="basic label-container" style="" rx="0" ry="0" x="-95.203125" y="-16.5" width="190.40625" height="33"></rect><g class="label" style="" transform="translate(-87.703125, -9)"><rect></rect><foreignObject width="175.40625" height="18"><div xmlns="http://www.w3.org/1999/xhtml" style="display: inline-block; white-space: nowrap;"><span class="nodeLabel">Governed system action</span></div></foreignObject></g></g><g class="node default default flowchart-label" id="flowchart-J-676" data-node="true" data-id="J" transform="translate(720.6484375, 776.46875)"><rect class="basic label-container" style="" rx="0" ry="0" x="-125.8046875" y="-16.5" width="251.609375" height="33"></rect><g class="label" style="" transform="translate(-118.3046875, -9)"><rect></rect><foreignObject width="236.609375" height="18"><div xmlns="http://www.w3.org/1999/xhtml" style="display: inline-block; white-space: nowrap;"><span class="nodeLabel">Blocked or needs more evidence</span></div></foreignObject></g></g><g class="node default default flowchart-label" id="flowchart-K-678" data-node="true" data-id="K" transform="translate(239.3828125, 859.46875)"><rect class="basic label-container" style="" rx="0" ry="0" x="-51.703125" y="-16.5" width="103.40625" height="33"></rect><g class="label" style="" transform="translate(-44.203125, -9)"><rect></rect><foreignObject width="88.40625" height="18"><div xmlns="http://www.w3.org/1999/xhtml" style="display: inline-block; white-space: nowrap;"><span class="nodeLabel">Domain eval</span></div></foreignObject></g></g></g></g></g></svg>