<svg id="pdf_mermaid_33" width="100%" xmlns="http://www.w3.org/2000/svg" style="max-width: 853.5625px;" viewBox="-8 -8 853.5625 806.28125" role="graphics-document document" aria-roledescription="flowchart-v2"><style>#pdf_mermaid_33{font-family:Inter,system-ui,sans-serif;font-size:16px;fill:#173f4f;}#pdf_mermaid_33 .error-icon{fill:#fffaf0;}#pdf_mermaid_33 .error-text{fill:#00050f;stroke:#00050f;}#pdf_mermaid_33 .edge-thickness-normal{stroke-width:2px;}#pdf_mermaid_33 .edge-thickness-thick{stroke-width:3.5px;}#pdf_mermaid_33 .edge-pattern-solid{stroke-dasharray:0;}#pdf_mermaid_33 .edge-pattern-dashed{stroke-dasharray:3;}#pdf_mermaid_33 .edge-pattern-dotted{stroke-dasharray:2;}#pdf_mermaid_33 .marker{fill:#527887;stroke:#527887;}#pdf_mermaid_33 .marker.cross{stroke:#527887;}#pdf_mermaid_33 svg{font-family:Inter,system-ui,sans-serif;font-size:16px;}#pdf_mermaid_33 .label{font-family:Inter,system-ui,sans-serif;color:#173f4f;}#pdf_mermaid_33 .cluster-label text{fill:#00050f;}#pdf_mermaid_33 .cluster-label span,#pdf_mermaid_33 p{color:#00050f;}#pdf_mermaid_33 .label text,#pdf_mermaid_33 span,#pdf_mermaid_33 p{fill:#173f4f;color:#173f4f;}#pdf_mermaid_33 .node rect,#pdf_mermaid_33 .node circle,#pdf_mermaid_33 .node ellipse,#pdf_mermaid_33 .node polygon,#pdf_mermaid_33 .node path{fill:#f6efe2;stroke:#c7a76a;stroke-width:1px;}#pdf_mermaid_33 .flowchart-label text{text-anchor:middle;}#pdf_mermaid_33 .node .katex path{fill:#000;stroke:#000;stroke-width:1px;}#pdf_mermaid_33 .node .label{text-align:center;}#pdf_mermaid_33 .node.clickable{cursor:pointer;}#pdf_mermaid_33 .arrowheadPath{fill:#0b0b0b;}#pdf_mermaid_33 .edgePath .path{stroke:#527887;stroke-width:2.0px;}#pdf_mermaid_33 .flowchart-link{stroke:#527887;fill:none;}#pdf_mermaid_33 .edgeLabel{background-color:#e8f0ed;text-align:center;}#pdf_mermaid_33 .edgeLabel rect{opacity:0.5;background-color:#e8f0ed;fill:#e8f0ed;}#pdf_mermaid_33 .labelBkg{background-color:rgba(232, 240, 237, 0.5);}#pdf_mermaid_33 .cluster rect{fill:#fffaf0;stroke:hsl(40, 60%, 87.0588235294%);stroke-width:1px;}#pdf_mermaid_33 .cluster text{fill:#00050f;}#pdf_mermaid_33 .cluster span,#pdf_mermaid_33 p{color:#00050f;}#pdf_mermaid_33 div.mermaidTooltip{position:absolute;text-align:center;max-width:200px;padding:2px;font-family:Inter,system-ui,sans-serif;font-size:12px;background:#fffaf0;border:1px solid hsl(40, 60%, 87.0588235294%);border-radius:2px;pointer-events:none;z-index:100;}#pdf_mermaid_33 .flowchartTitleText{text-anchor:middle;font-size:18px;fill:#173f4f;}#pdf_mermaid_33 :root{--mermaid-font-family:"trebuchet ms",verdana,arial,sans-serif;}</style><g><marker id="pdf_mermaid_33_flowchart-pointEnd" class="marker flowchart" viewBox="0 0 10 10" refX="6" refY="5" markerUnits="userSpaceOnUse" markerWidth="12" markerHeight="12" orient="auto"><path d="M 0 0 L 10 5 L 0 10 z" class="arrowMarkerPath" style="stroke-width: 1; stroke-dasharray: 1, 0;"></path></marker><marker id="pdf_mermaid_33_flowchart-pointStart" class="marker flowchart" viewBox="0 0 10 10" refX="4.5" refY="5" markerUnits="userSpaceOnUse" markerWidth="12" markerHeight="12" orient="auto"><path d="M 0 5 L 10 10 L 10 0 z" class="arrowMarkerPath" style="stroke-width: 1; stroke-dasharray: 1, 0;"></path></marker><marker id="pdf_mermaid_33_flowchart-circleEnd" class="marker flowchart" viewBox="0 0 10 10" refX="11" refY="5" markerUnits="userSpaceOnUse" markerWidth="11" markerHeight="11" orient="auto"><circle cx="5" cy="5" r="5" class="arrowMarkerPath" style="stroke-width: 1; stroke-dasharray: 1, 0;"></circle></marker><marker id="pdf_mermaid_33_flowchart-circleStart" class="marker flowchart" viewBox="0 0 10 10" refX="-1" refY="5" markerUnits="userSpaceOnUse" markerWidth="11" markerHeight="11" orient="auto"><circle cx="5" cy="5" r="5" class="arrowMarkerPath" style="stroke-width: 1; stroke-dasharray: 1, 0;"></circle></marker><marker id="pdf_mermaid_33_flowchart-crossEnd" class="marker cross flowchart" viewBox="0 0 11 11" refX="12" refY="5.2" markerUnits="userSpaceOnUse" markerWidth="11" markerHeight="11" orient="auto"><path d="M 1,1 l 9,9 M 10,1 l -9,9" class="arrowMarkerPath" style="stroke-width: 2; stroke-dasharray: 1, 0;"></path></marker><marker id="pdf_mermaid_33_flowchart-crossStart" class="marker cross flowchart" viewBox="0 0 11 11" refX="-1" refY="5.2" markerUnits="userSpaceOnUse" markerWidth="11" markerHeight="11" orient="auto"><path d="M 1,1 l 9,9 M 10,1 l -9,9" class="arrowMarkerPath" style="stroke-width: 2; stroke-dasharray: 1, 0;"></path></marker><g class="root"><g class="clusters"></g><g class="edgePaths"><path d="M359.254,33L359.254,37.167C359.254,41.333,359.254,49.667,359.254,57.117C359.254,64.567,359.254,71.133,359.254,74.417L359.254,77.7" id="L-E-I-0" class="edge-thickness-normal edge-pattern-solid flowchart-link LS-E LE-I" style="fill:none;" marker-end="url(#pdf_mermaid_33_flowchart-pointEnd)"></path><path d="M359.254,116L359.254,120.167C359.254,124.333,359.254,132.667,359.254,140.117C359.254,147.567,359.254,154.133,359.254,157.417L359.254,160.7" id="L-I-G-0" class="edge-thickness-normal edge-pattern-solid flowchart-link LS-I LE-G" style="fill:none;" marker-end="url(#pdf_mermaid_33_flowchart-pointEnd)"></path><path d="M359.254,199L359.254,203.167C359.254,207.333,359.254,215.667,359.32,223.2C359.386,230.734,359.518,237.467,359.584,240.834L359.65,244.201" id="L-G-R-0" class="edge-thickness-normal edge-pattern-solid flowchart-link LS-G LE-R" style="fill:none;" marker-end="url(#pdf_mermaid_33_flowchart-pointEnd)"></path><path d="M323.987,304.014L279.536,315.559C235.085,327.103,146.183,350.192,101.732,366.52C57.281,382.848,57.281,392.415,57.281,397.198L57.281,401.981" id="L-R-D-0" class="edge-thickness-normal edge-pattern-solid flowchart-link LS-R LE-D" style="fill:none;" marker-end="url(#pdf_mermaid_33_flowchart-pointEnd)"></path><path d="M337.711,317.738L328.713,326.995C319.716,336.253,301.721,354.767,292.724,368.807C283.727,382.848,283.727,392.415,283.727,397.198L283.727,401.981" id="L-R-K-0" class="edge-thickness-normal edge-pattern-solid flowchart-link LS-R LE-K" style="fill:none;" marker-end="url(#pdf_mermaid_33_flowchart-pointEnd)"></path><path d="M390.212,309.323L412.415,319.983C434.618,330.642,479.024,351.962,501.227,367.405C523.43,382.848,523.43,392.415,523.43,397.198L523.43,401.981" id="L-R-W-0" class="edge-thickness-normal edge-pattern-solid flowchart-link LS-R LE-W" style="fill:none;" marker-end="url(#pdf_mermaid_33_flowchart-pointEnd)"></path><path d="M397.139,302.396L454.41,314.21C511.681,326.024,626.224,349.653,683.495,366.25C740.766,382.848,740.766,392.415,740.766,397.198L740.766,401.981" id="L-R-M-0" class="edge-thickness-normal edge-pattern-solid flowchart-link LS-R LE-M" style="fill:none;" marker-end="url(#pdf_mermaid_33_flowchart-pointEnd)"></path><path d="M57.281,440.281L57.281,444.448C57.281,448.615,57.281,456.948,97.438,466.072C137.594,475.196,217.907,485.11,258.064,490.067L298.22,495.025" id="L-D-P-0" class="edge-thickness-normal edge-pattern-solid flowchart-link LS-D LE-P" style="fill:none;" marker-end="url(#pdf_mermaid_33_flowchart-pointEnd)"></path><path d="M283.727,440.281L283.727,444.448C283.727,448.615,283.727,456.948,293.917,464.969C304.108,472.99,324.49,480.698,334.681,484.552L344.872,488.406" id="L-K-P-0" class="edge-thickness-normal edge-pattern-solid flowchart-link LS-K LE-P" style="fill:none;" marker-end="url(#pdf_mermaid_33_flowchart-pointEnd)"></path><path d="M523.43,440.281L523.43,444.448C523.43,448.615,523.43,456.948,511.222,465.013C499.014,473.077,474.598,480.873,462.39,484.771L450.182,488.669" id="L-W-P-0" class="edge-thickness-normal edge-pattern-solid flowchart-link LS-W LE-P" style="fill:none;" marker-end="url(#pdf_mermaid_33_flowchart-pointEnd)"></path><path d="M740.766,440.281L740.766,444.448C740.766,448.615,740.766,456.948,698.754,466.135C656.742,475.321,572.719,485.361,530.708,490.381L488.696,495.401" id="L-M-P-0" class="edge-thickness-normal edge-pattern-solid flowchart-link LS-M LE-P" style="fill:none;" marker-end="url(#pdf_mermaid_33_flowchart-pointEnd)"></path><path d="M333.622,523.281L313.072,528.948C292.522,534.615,251.423,545.948,230.874,560.031C210.324,574.115,210.324,590.948,210.324,606.281C210.324,621.615,210.324,635.448,217.029,646.101C223.734,656.755,237.143,664.228,243.848,667.964L250.553,671.701" id="L-P-X-0" class="edge-thickness-normal edge-pattern-solid flowchart-link LS-P LE-X" style="fill:none;" marker-end="url(#pdf_mermaid_33_flowchart-pointEnd)"></path><path d="M382.282,523.281L378.444,528.948C374.606,534.615,366.93,545.948,363.092,556.398C359.254,566.848,359.254,576.415,359.254,581.198L359.254,585.981" id="L-P-A-0" class="edge-thickness-normal edge-pattern-solid flowchart-link LS-P LE-A" style="fill:none;" marker-end="url(#pdf_mermaid_33_flowchart-pointEnd)"></path><path d="M444.97,523.281L462.661,528.948C480.352,534.615,515.735,545.948,533.426,560.031C551.117,574.115,551.117,590.948,551.117,606.281C551.117,621.615,551.117,635.448,551.117,645.648C551.117,655.848,551.117,662.415,551.117,665.698L551.117,668.981" id="L-P-N-0" class="edge-thickness-normal edge-pattern-solid flowchart-link LS-P LE-N" style="fill:none;" marker-end="url(#pdf_mermaid_33_flowchart-pointEnd)"></path><path d="M359.254,624.281L359.254,628.448C359.254,632.615,359.254,640.948,352.549,648.851C345.844,656.755,332.435,664.228,325.73,667.964L319.025,671.701" id="L-A-X-0" class="edge-thickness-normal edge-pattern-solid flowchart-link LS-A LE-X" style="fill:none;" marker-end="url(#pdf_mermaid_33_flowchart-pointEnd)"></path><path d="M284.789,707.281L284.789,711.448C284.789,715.615,284.789,723.948,295.882,731.99C306.974,740.032,329.16,747.783,340.253,751.658L351.345,755.533" id="L-X-T-0" class="edge-thickness-normal edge-pattern-solid flowchart-link LS-X LE-T" style="fill:none;" marker-end="url(#pdf_mermaid_33_flowchart-pointEnd)"></path><path d="M551.117,707.281L551.117,711.448C551.117,715.615,551.117,723.948,537.154,732.042C523.192,740.136,495.266,747.991,481.303,751.919L467.34,755.846" id="L-N-T-0" class="edge-thickness-normal edge-pattern-solid flowchart-link LS-N LE-T" style="fill:none;" marker-end="url(#pdf_mermaid_33_flowchart-pointEnd)"></path></g><g class="edgeLabels"><g class="edgeLabel"><g class="label" transform="translate(0, 0)"><foreignObject width="0" height="0"><div xmlns="http://www.w3.org/1999/xhtml" style="display: inline-block; white-space: nowrap;"><span class="edgeLabel"></span></div></foreignObject></g></g><g class="edgeLabel"><g class="label" transform="translate(0, 0)"><foreignObject width="0" height="0"><div xmlns="http://www.w3.org/1999/xhtml" style="display: inline-block; white-space: nowrap;"><span class="edgeLabel"></span></div></foreignObject></g></g><g class="edgeLabel"><g class="label" transform="translate(0, 0)"><foreignObject width="0" height="0"><div xmlns="http://www.w3.org/1999/xhtml" style="display: inline-block; white-space: nowrap;"><span class="edgeLabel"></span></div></foreignObject></g></g><g class="edgeLabel" transform="translate(57.28125, 373.28125)"><g class="label" transform="translate(-20.9140625, -9)"><foreignObject width="41.828125" height="18"><div xmlns="http://www.w3.org/1999/xhtml" style="display: inline-block; white-space: nowrap;"><span class="edgeLabel">direct</span></div></foreignObject></g></g><g class="edgeLabel" transform="translate(283.7265625, 373.28125)"><g class="label" transform="translate(-15.8515625, -9)"><foreignObject width="31.703125" height="18"><div xmlns="http://www.w3.org/1999/xhtml" style="display: inline-block; white-space: nowrap;"><span class="edgeLabel">RAG</span></div></foreignObject></g></g><g class="edgeLabel" transform="translate(523.4296875, 373.28125)"><g class="label" transform="translate(-32.59375, -9)"><foreignObject width="65.1875" height="18"><div xmlns="http://www.w3.org/1999/xhtml" style="display: inline-block; white-space: nowrap;"><span class="edgeLabel">workflow</span></div></foreignObject></g></g><g class="edgeLabel" transform="translate(740.765625, 373.28125)"><g class="label" transform="translate(-42.0234375, -9)"><foreignObject width="84.046875" height="18"><div xmlns="http://www.w3.org/1999/xhtml" style="display: inline-block; white-space: nowrap;"><span class="edgeLabel">multi-agent</span></div></foreignObject></g></g><g class="edgeLabel"><g class="label" transform="translate(0, 0)"><foreignObject width="0" height="0"><div xmlns="http://www.w3.org/1999/xhtml" style="display: inline-block; white-space: nowrap;"><span class="edgeLabel"></span></div></foreignObject></g></g><g class="edgeLabel"><g class="label" transform="translate(0, 0)"><foreignObject width="0" height="0"><div xmlns="http://www.w3.org/1999/xhtml" style="display: inline-block; white-space: nowrap;"><span class="edgeLabel"></span></div></foreignObject></g></g><g class="edgeLabel"><g class="label" transform="translate(0, 0)"><foreignObject width="0" height="0"><div xmlns="http://www.w3.org/1999/xhtml" style="display: inline-block; white-space: nowrap;"><span class="edgeLabel"></span></div></foreignObject></g></g><g class="edgeLabel"><g class="label" transform="translate(0, 0)"><foreignObject width="0" height="0"><div xmlns="http://www.w3.org/1999/xhtml" style="display: inline-block; white-space: nowrap;"><span class="edgeLabel"></span></div></foreignObject></g></g><g class="edgeLabel" transform="translate(210.32421875, 607.78125)"><g class="label" transform="translate(-27.4609375, -9)"><foreignObject width="54.921875" height="18"><div xmlns="http://www.w3.org/1999/xhtml" style="display: inline-block; white-space: nowrap;"><span class="edgeLabel">allowed</span></div></foreignObject></g></g><g class="edgeLabel" transform="translate(359.25390625, 557.28125)"><g class="label" transform="translate(-55.2734375, -9)"><foreignObject width="110.546875" height="18"><div xmlns="http://www.w3.org/1999/xhtml" style="display: inline-block; white-space: nowrap;"><span class="edgeLabel">needs approval</span></div></foreignObject></g></g><g class="edgeLabel" transform="translate(551.1171875, 607.78125)"><g class="label" transform="translate(-24.6796875, -9)"><foreignObject width="49.359375" height="18"><div xmlns="http://www.w3.org/1999/xhtml" style="display: inline-block; white-space: nowrap;"><span class="edgeLabel">denied</span></div></foreignObject></g></g><g class="edgeLabel"><g class="label" transform="translate(0, 0)"><foreignObject width="0" height="0"><div xmlns="http://www.w3.org/1999/xhtml" style="display: inline-block; white-space: nowrap;"><span class="edgeLabel"></span></div></foreignObject></g></g><g class="edgeLabel"><g class="label" transform="translate(0, 0)"><foreignObject width="0" height="0"><div xmlns="http://www.w3.org/1999/xhtml" style="display: inline-block; white-space: nowrap;"><span class="edgeLabel"></span></div></foreignObject></g></g><g class="edgeLabel"><g class="label" transform="translate(0, 0)"><foreignObject width="0" height="0"><div xmlns="http://www.w3.org/1999/xhtml" style="display: inline-block; white-space: nowrap;"><span class="edgeLabel"></span></div></foreignObject></g></g></g><g class="nodes"><g class="node default default flowchart-label" id="flowchart-E-709" data-node="true" data-id="E" transform="translate(359.25390625, 16.5)"><rect class="basic label-container" style="" rx="0" ry="0" x="-133.6796875" y="-16.5" width="267.359375" height="33"></rect><g class="label" style="" transform="translate(-126.1796875, -9)"><rect></rect><foreignObject width="252.359375" height="18"><div xmlns="http://www.w3.org/1999/xhtml" style="display: inline-block; white-space: nowrap;"><span class="nodeLabel">Entry: user, API, event, or schedule</span></div></foreignObject></g></g><g class="node default default flowchart-label" id="flowchart-I-710" data-node="true" data-id="I" transform="translate(359.25390625, 99.5)"><rect class="basic label-container" style="" rx="0" ry="0" x="-99.6875" y="-16.5" width="199.375" height="33"></rect><g class="label" style="" transform="translate(-92.1875, -9)"><rect></rect><foreignObject width="184.375" height="18"><div xmlns="http://www.w3.org/1999/xhtml" style="display: inline-block; white-space: nowrap;"><span class="nodeLabel">Identity and tenant scope</span></div></foreignObject></g></g><g class="node default default flowchart-label" id="flowchart-G-712" data-node="true" data-id="G" transform="translate(359.25390625, 182.5)"><rect class="basic label-container" style="" rx="0" ry="0" x="-100.8828125" y="-16.5" width="201.765625" height="33"></rect><g class="label" style="" transform="translate(-93.3828125, -9)"><rect></rect><foreignObject width="186.765625" height="18"><div xmlns="http://www.w3.org/1999/xhtml" style="display: inline-block; white-space: nowrap;"><span class="nodeLabel">Goal record and risk class</span></div></foreignObject></g></g><g class="node default default flowchart-label" id="flowchart-R-714" data-node="true" data-id="R" transform="translate(359.25390625, 294.140625)"><polygon points="45.140625,0 90.28125,-45.140625 45.140625,-90.28125 0,-45.140625" class="label-container" transform="translate(-45.140625,45.140625)" style=""></polygon><g class="label" style="" transform="translate(-21.140625, -9)"><rect></rect><foreignObject width="42.28125" height="18"><div xmlns="http://www.w3.org/1999/xhtml" style="display: inline-block; white-space: nowrap;"><span class="nodeLabel">Route</span></div></foreignObject></g></g><g class="node default default flowchart-label" id="flowchart-D-716" data-node="true" data-id="D" transform="translate(57.28125, 423.78125)"><rect class="basic label-container" style="" rx="0" ry="0" x="-57.28125" y="-16.5" width="114.5625" height="33"></rect><g class="label" style="" transform="translate(-49.78125, -9)"><rect></rect><foreignObject width="99.5625" height="18"><div xmlns="http://www.w3.org/1999/xhtml" style="display: inline-block; white-space: nowrap;"><span class="nodeLabel">Direct answer</span></div></foreignObject></g></g><g class="node default default flowchart-label" id="flowchart-K-718" data-node="true" data-id="K" transform="translate(283.7265625, 423.78125)"><rect class="basic label-container" style="" rx="0" ry="0" x="-119.1640625" y="-16.5" width="238.328125" height="33"></rect><g class="label" style="" transform="translate(-111.6640625, -9)"><rect></rect><foreignObject width="223.328125" height="18"><div xmlns="http://www.w3.org/1999/xhtml" style="display: inline-block; white-space: nowrap;"><span class="nodeLabel">Knowledge and context packet</span></div></foreignObject></g></g><g class="node default default flowchart-label" id="flowchart-W-720" data-node="true" data-id="W" transform="translate(523.4296875, 423.78125)"><rect class="basic label-container" style="" rx="0" ry="0" x="-70.5390625" y="-16.5" width="141.078125" height="33"></rect><g class="label" style="" transform="translate(-63.0390625, -9)"><rect></rect><foreignObject width="126.078125" height="18"><div xmlns="http://www.w3.org/1999/xhtml" style="display: inline-block; white-space: nowrap;"><span class="nodeLabel">Durable workflow</span></div></foreignObject></g></g><g class="node default default flowchart-label" id="flowchart-M-722" data-node="true" data-id="M" transform="translate(740.765625, 423.78125)"><rect class="basic label-container" style="" rx="0" ry="0" x="-96.796875" y="-16.5" width="193.59375" height="33"></rect><g class="label" style="" transform="translate(-89.296875, -9)"><rect></rect><foreignObject width="178.59375" height="18"><div xmlns="http://www.w3.org/1999/xhtml" style="display: inline-block; white-space: nowrap;"><span class="nodeLabel">Coordinator and workers</span></div></foreignObject></g></g><g class="node default default flowchart-label" id="flowchart-P-724" data-node="true" data-id="P" transform="translate(393.45703125, 506.78125)"><rect class="basic label-container" style="" rx="0" ry="0" x="-89.9765625" y="-16.5" width="179.953125" height="33"></rect><g class="label" style="" transform="translate(-82.4765625, -9)"><rect></rect><foreignObject width="164.953125" height="18"><div xmlns="http://www.w3.org/1999/xhtml" style="display: inline-block; white-space: nowrap;"><span class="nodeLabel">Policy and verifier gate</span></div></foreignObject></g></g><g class="node default default flowchart-label" id="flowchart-X-732" data-node="true" data-id="X" transform="translate(284.7890625, 690.78125)"><rect class="basic label-container" style="" rx="0" ry="0" x="-113.109375" y="-16.5" width="226.21875" height="33"></rect><g class="label" style="" transform="translate(-105.609375, -9)"><rect></rect><foreignObject width="211.21875" height="18"><div xmlns="http://www.w3.org/1999/xhtml" style="display: inline-block; white-space: nowrap;"><span class="nodeLabel">Tool, memory, or final answer</span></div></foreignObject></g></g><g class="node default default flowchart-label" id="flowchart-A-734" data-node="true" data-id="A" transform="translate(359.25390625, 607.78125)"><rect class="basic label-container" style="" rx="0" ry="0" x="-86.46875" y="-16.5" width="172.9375" height="33"></rect><g class="label" style="" transform="translate(-78.96875, -9)"><rect></rect><foreignObject width="157.9375" height="18"><div xmlns="http://www.w3.org/1999/xhtml" style="display: inline-block; white-space: nowrap;"><span class="nodeLabel">Exact-action approval</span></div></foreignObject></g></g><g class="node default default flowchart-label" id="flowchart-N-736" data-node="true" data-id="N" transform="translate(551.1171875, 690.78125)"><rect class="basic label-container" style="" rx="0" ry="0" x="-74.46875" y="-16.5" width="148.9375" height="33"></rect><g class="label" style="" transform="translate(-66.96875, -9)"><rect></rect><foreignObject width="133.9375" height="18"><div xmlns="http://www.w3.org/1999/xhtml" style="display: inline-block; white-space: nowrap;"><span class="nodeLabel">Refuse or escalate</span></div></foreignObject></g></g><g class="node default default flowchart-label" id="flowchart-T-740" data-node="true" data-id="T" transform="translate(403.578125, 773.78125)"><rect class="basic label-container" style="" rx="0" ry="0" x="-132.375" y="-16.5" width="264.75" height="33"></rect><g class="label" style="" transform="translate(-124.875, -9)"><rect></rect><foreignObject width="249.75" height="18"><div xmlns="http://www.w3.org/1999/xhtml" style="display: inline-block; white-space: nowrap;"><span class="nodeLabel">Trace, eval signal, and stop reason</span></div></foreignObject></g></g></g></g></g></svg>